M48
;Layer_Color=6321
;FILE_FORMAT=2:5
INCH,LZ
;TYPE=PLATED
T1F00S00C0.03701
T2F00S00C0.09843
%
T01
X0114614Y011422
X0118921Y0133622
X0108921
Y0143622
Y0153622
X0118921
Y0143622
X0146653Y0149606
X0145669Y0127953
X0206693Y0132874
X0236094Y0136437
Y0126437
Y0146437
X0295957
Y0136437
Y0126437
X0307189Y011422
X0295957Y0156437
Y0166437
Y0176437
Y0186437
Y0196437
Y0206437
Y0216437
Y0226437
Y0236437
Y0246437
Y0256437
Y0266437
Y0276437
Y0286437
Y0296437
Y0306437
X0282638Y0277657
Y0267657
Y0257657
X0272638
Y0267657
Y0277657
X0236094Y0276437
Y0266437
Y0256437
Y0246437
Y0236437
Y0226437
Y0216437
Y0206437
Y0196437
Y0186437
Y0176437
Y0166437
Y0156437
X015748Y015748
X0172244Y0173228
Y02
X0169291Y0207677
X0188976
X0191761Y0260427
X0165354Y028937
X0156363Y0289237
X0216535Y0311024
X0236094Y0306437
Y0296437
Y0286437
X0142717Y0280512
X0118921Y0283622
X0108921
Y0293622
Y0303622
X0118921
Y0293622
Y0273622
X0108921
Y0263622
Y0253622
Y0243622
Y0233622
Y0223622
Y0213622
Y0203622
Y0193622
Y0183622
Y0173622
Y0163622
X0118921
Y0173622
Y0183622
Y0193622
Y0203622
Y0213622
Y0223622
Y0233622
Y0243622
Y0253622
Y0263622
X0146653Y0231299
Y0223425
Y015748
X0118921Y0313622
X0108921
Y0323622
X0118921
X0114614Y034285
X0129Y0344
Y0354
X0139
X0149
Y0344
X0139
X0159
Y0354
X0169
X0179
X0189
X0199
X0209
X0219
Y0344
X0209
X0199
X0189
X0179
X0169
X0236094Y0316437
X0295957
X0307189Y034285
T02
X0088917Y0150492
X033307
Y030748
X0088917
M30
