G04 Layer_Color=20142*
%FSLAX25Y25*%
%MOIN*%
G70*
G01*
G75*
%ADD45R,0.11624X0.05915*%
%ADD46R,0.02962X0.03750*%
%ADD47R,0.03750X0.02962*%
%ADD48R,0.11230X0.05324*%
%ADD49R,0.03553X0.03947*%
%ADD50C,0.06600*%
%ADD51C,0.08474*%
%ADD52R,0.03947X0.03356*%
%ADD53R,0.03356X0.03947*%
%ADD54R,0.04143X0.03750*%
%ADD55R,0.04537X0.04931*%
%ADD56R,0.03947X0.04143*%
%ADD57R,0.04931X0.04537*%
%ADD58R,0.05718X0.02962*%
%ADD59R,0.04143X0.03750*%
%ADD60R,0.03750X0.04143*%
%ADD61R,0.06112X0.05324*%
%ADD62R,0.02962X0.05718*%
%ADD63R,0.06309X0.01781*%
%ADD64R,0.04931X0.03159*%
%ADD65C,0.11230*%
%ADD66C,0.04931*%
%ADD67O,0.08100X0.05600*%
%ADD68O,0.05600X0.08100*%
D45*
X191024Y280000D02*
D03*
Y268386D02*
D03*
D46*
X212992Y323819D02*
D03*
X218110D02*
D03*
D47*
X149700Y104546D02*
D03*
Y110254D02*
D03*
D48*
X176013Y279915D02*
D03*
Y268498D02*
D03*
D49*
X218110Y317913D02*
D03*
X212992D02*
D03*
D50*
X168307Y163386D02*
D03*
X216535Y311024D02*
D03*
X146653Y223425D02*
D03*
X188976Y207677D02*
D03*
X169291D02*
D03*
X191761Y260427D02*
D03*
X146653Y231299D02*
D03*
X145669Y127953D02*
D03*
X146653Y149606D02*
D03*
X157480Y157480D02*
D03*
X146653D02*
D03*
X142717Y280512D02*
D03*
X156363Y289237D02*
D03*
X165354Y289370D02*
D03*
X206693Y132874D02*
D03*
D51*
X275590Y137795D02*
D03*
Y314961D02*
D03*
X177165D02*
D03*
D52*
X185855Y250093D02*
D03*
Y255014D02*
D03*
X149600Y119361D02*
D03*
Y114439D02*
D03*
X213681Y140551D02*
D03*
Y145473D02*
D03*
X216535Y198327D02*
D03*
Y203248D02*
D03*
Y192421D02*
D03*
Y187500D02*
D03*
D53*
X156988Y322835D02*
D03*
X152067D02*
D03*
X146161D02*
D03*
X141240D02*
D03*
X135335D02*
D03*
X130413D02*
D03*
X155020Y186614D02*
D03*
X150098D02*
D03*
D54*
X154527Y315551D02*
D03*
Y306496D02*
D03*
X143701Y315551D02*
D03*
Y306496D02*
D03*
X132874Y315551D02*
D03*
Y306496D02*
D03*
X143701Y192913D02*
D03*
Y201969D02*
D03*
D55*
X134842Y230709D02*
D03*
Y224016D02*
D03*
X213620Y158627D02*
D03*
Y151934D02*
D03*
D56*
X204368Y143469D02*
D03*
X199250D02*
D03*
X156918Y281097D02*
D03*
X151800D02*
D03*
D57*
X157087Y149606D02*
D03*
X163779D02*
D03*
D58*
X177824Y250742D02*
D03*
Y258301D02*
D03*
X170265Y254522D02*
D03*
D59*
X162233Y250782D02*
D03*
Y258262D02*
D03*
X154359Y254522D02*
D03*
D60*
X150787Y193504D02*
D03*
X158268D02*
D03*
X154527Y201378D02*
D03*
D61*
X163583Y186614D02*
D03*
X180905Y176772D02*
D03*
X180905Y196457D02*
D03*
D62*
X145827Y172008D02*
D03*
X153386D02*
D03*
X149606Y179567D02*
D03*
D63*
X145698Y274207D02*
D03*
Y272238D02*
D03*
Y270270D02*
D03*
Y268301D02*
D03*
Y266333D02*
D03*
X163020Y274207D02*
D03*
Y272238D02*
D03*
Y270270D02*
D03*
Y268301D02*
D03*
Y266333D02*
D03*
D64*
X197085Y151540D02*
D03*
Y159020D02*
D03*
X206534D02*
D03*
Y155280D02*
D03*
Y151540D02*
D03*
D65*
X333070Y307480D02*
D03*
Y150492D02*
D03*
X88917Y307480D02*
D03*
Y150492D02*
D03*
D66*
X307189Y114220D02*
D03*
X114614D02*
D03*
Y342850D02*
D03*
X307189D02*
D03*
X172244Y173228D02*
D03*
Y200000D02*
D03*
D67*
X236094Y126437D02*
D03*
Y136437D02*
D03*
Y146437D02*
D03*
Y156437D02*
D03*
Y166437D02*
D03*
Y176437D02*
D03*
Y186437D02*
D03*
Y196437D02*
D03*
Y206437D02*
D03*
Y216437D02*
D03*
Y226437D02*
D03*
Y236437D02*
D03*
Y246437D02*
D03*
Y256437D02*
D03*
Y266437D02*
D03*
Y276437D02*
D03*
Y286437D02*
D03*
Y296437D02*
D03*
Y306437D02*
D03*
Y316437D02*
D03*
X295957Y126437D02*
D03*
Y136437D02*
D03*
Y146437D02*
D03*
Y156437D02*
D03*
Y166437D02*
D03*
Y176437D02*
D03*
Y186437D02*
D03*
Y196437D02*
D03*
Y206437D02*
D03*
Y216437D02*
D03*
Y226437D02*
D03*
Y236437D02*
D03*
Y246437D02*
D03*
Y256437D02*
D03*
Y266437D02*
D03*
Y276437D02*
D03*
Y286437D02*
D03*
Y296437D02*
D03*
Y306437D02*
D03*
Y316437D02*
D03*
X108921Y323622D02*
D03*
Y313622D02*
D03*
Y303622D02*
D03*
Y293622D02*
D03*
Y283622D02*
D03*
Y273622D02*
D03*
Y263622D02*
D03*
Y253622D02*
D03*
Y243622D02*
D03*
Y233622D02*
D03*
Y223622D02*
D03*
Y213622D02*
D03*
Y203622D02*
D03*
Y193622D02*
D03*
Y183622D02*
D03*
Y173622D02*
D03*
Y163622D02*
D03*
Y153622D02*
D03*
Y143622D02*
D03*
Y133622D02*
D03*
X118921D02*
D03*
Y143622D02*
D03*
Y153622D02*
D03*
Y163622D02*
D03*
Y173622D02*
D03*
Y183622D02*
D03*
Y193622D02*
D03*
Y203622D02*
D03*
Y213622D02*
D03*
Y223622D02*
D03*
Y233622D02*
D03*
Y243622D02*
D03*
Y253622D02*
D03*
Y263622D02*
D03*
Y273622D02*
D03*
Y283622D02*
D03*
Y293622D02*
D03*
Y303622D02*
D03*
Y313622D02*
D03*
Y323622D02*
D03*
X272638Y257657D02*
D03*
X282638D02*
D03*
X272638Y267657D02*
D03*
X282638D02*
D03*
X272638Y277657D02*
D03*
X282638D02*
D03*
D68*
X129000Y354000D02*
D03*
X139000D02*
D03*
X149000D02*
D03*
X159000D02*
D03*
X169000D02*
D03*
X179000D02*
D03*
X189000D02*
D03*
X199000D02*
D03*
X209000D02*
D03*
X219000D02*
D03*
Y344000D02*
D03*
X209000D02*
D03*
X199000D02*
D03*
X189000D02*
D03*
X179000D02*
D03*
X169000D02*
D03*
X159000D02*
D03*
X149000D02*
D03*
X139000D02*
D03*
X129000D02*
D03*
M02*
