G04 Layer_Physical_Order=2*
G04 Layer_Color=11436288*
%FSLAX25Y25*%
%MOIN*%
G70*
G01*
G75*
%ADD15C,0.06000*%
%ADD31C,0.01000*%
%ADD34C,0.01598*%
%ADD35C,0.10630*%
%ADD36C,0.04331*%
%ADD37O,0.07500X0.05000*%
%ADD38O,0.05000X0.07500*%
G36*
X292517Y269420D02*
X292068Y269076D01*
X291475Y268303D01*
X291102Y267403D01*
X290975Y266437D01*
X291102Y265471D01*
X291475Y264571D01*
X291879Y264044D01*
X291632Y263544D01*
X284823D01*
X284790Y264044D01*
X284854Y264053D01*
X285754Y264425D01*
X286527Y265019D01*
X287120Y265792D01*
X287493Y266691D01*
X287620Y267657D01*
X287493Y268623D01*
X287123Y269515D01*
X287156Y269568D01*
X287445Y269920D01*
X292347D01*
X292517Y269420D01*
D02*
G37*
G36*
X132267Y196526D02*
Y193462D01*
X131805Y193271D01*
X123367Y201709D01*
X123403Y201756D01*
X123776Y202656D01*
X123903Y203622D01*
X123818Y204268D01*
X124292Y204501D01*
X132267Y196526D01*
D02*
G37*
G36*
X317164Y291605D02*
Y288879D01*
X316702Y288688D01*
X302128Y303263D01*
X301566Y303638D01*
X300902Y303770D01*
X300202D01*
X299956Y304270D01*
X300264Y304672D01*
X300617Y305523D01*
X300658Y305837D01*
X295957D01*
Y307037D01*
X300658D01*
X300617Y307351D01*
X300550Y307512D01*
X300973Y307796D01*
X317164Y291605D01*
D02*
G37*
G36*
X239234Y371185D02*
X239637Y371088D01*
X239732Y371076D01*
X239791Y371051D01*
X239978Y371006D01*
X240684Y370714D01*
X240848Y370614D01*
X240907Y370589D01*
X240983Y370531D01*
X241336Y370314D01*
X241875Y369854D01*
X241909Y369809D01*
X241950Y369778D01*
X242379Y369276D01*
X242591Y368930D01*
X242632Y368876D01*
X242650Y368833D01*
X242750Y368670D01*
X243022Y368013D01*
X243067Y367827D01*
X243085Y367784D01*
X243093Y367716D01*
X243188Y367322D01*
X243240Y366664D01*
X243233Y366613D01*
Y366400D01*
Y357200D01*
X243275Y356882D01*
X243325Y356631D01*
X243472Y356276D01*
X243614Y356064D01*
X243809Y355809D01*
X244063Y355614D01*
X244276Y355472D01*
X244631Y355325D01*
X244882Y355275D01*
X245200Y355233D01*
X312364D01*
X312364D01*
X312365D01*
X312365Y355233D01*
X312764Y355189D01*
X312845Y355184D01*
X312853Y355184D01*
X313646Y355105D01*
X313724Y355082D01*
X313798Y355073D01*
X314067Y355020D01*
X314882Y354743D01*
X315654Y354363D01*
X315998Y354133D01*
X316013Y354125D01*
X316026Y354114D01*
X316370Y353884D01*
X316975Y353354D01*
X317009Y353309D01*
X317062Y353268D01*
X317674Y352571D01*
X317914Y352212D01*
X317956Y352161D01*
X317988Y352101D01*
X318227Y351743D01*
X318667Y350851D01*
X318987Y349909D01*
X319071Y349486D01*
X319091Y349422D01*
X319097Y349355D01*
X319181Y348933D01*
X319242Y348007D01*
X319233Y347940D01*
Y296372D01*
X319212Y296363D01*
Y295113D01*
X318750Y294922D01*
X317866Y295806D01*
X317847Y295798D01*
X301409Y312236D01*
X301188Y312406D01*
X301002Y312530D01*
X300693Y312658D01*
X300197Y312757D01*
X298775D01*
X298675Y313257D01*
X298972Y313380D01*
X299703Y313941D01*
X299930Y314237D01*
X299930Y314238D01*
X299948Y314261D01*
X300158Y314534D01*
X300374Y314939D01*
X300506Y315257D01*
X300639Y315696D01*
X300658Y315837D01*
X291255D01*
X291274Y315696D01*
X291407Y315257D01*
X291539Y314939D01*
X291755Y314534D01*
X291965Y314261D01*
X292007Y314210D01*
X292007Y314206D01*
X292211Y313941D01*
X292942Y313380D01*
X293238Y313257D01*
X293139Y312757D01*
X292323D01*
X291659Y312625D01*
X291571Y312566D01*
X291563Y312549D01*
X291518Y312530D01*
X291332Y312406D01*
X291265Y312354D01*
X291110Y312236D01*
X284723Y305849D01*
X251969D01*
X251692Y305812D01*
X251473Y305768D01*
X251163Y305640D01*
X250978Y305516D01*
X250756Y305346D01*
X242505Y297095D01*
X242480Y297096D01*
X241514Y296130D01*
X241065Y296351D01*
X241076Y296437D01*
X240949Y297403D01*
X240880Y297571D01*
X240865Y297577D01*
X240832Y297685D01*
X240693Y298021D01*
X240464Y298449D01*
X240243Y298737D01*
X239973Y299066D01*
X239645Y299336D01*
X239356Y299557D01*
X238928Y299786D01*
X238593Y299925D01*
X238128Y300066D01*
X237768Y300113D01*
X237345Y300155D01*
X234844D01*
X234421Y300113D01*
X234061Y300066D01*
X233596Y299925D01*
X233261Y299786D01*
X232833Y299557D01*
X232544Y299336D01*
X232215Y299066D01*
X231946Y298737D01*
X231724Y298449D01*
X231496Y298021D01*
X231357Y297685D01*
X231216Y297221D01*
X231168Y296860D01*
X231127Y296437D01*
X231168Y296014D01*
X231216Y295653D01*
X231347Y295221D01*
X231347Y295211D01*
X231612Y294571D01*
X231843Y294270D01*
X231597Y293770D01*
X231421D01*
X230757Y293638D01*
X230430Y293420D01*
X230418Y293410D01*
X230208Y293250D01*
X229478Y292520D01*
X226318Y289360D01*
X226148Y289138D01*
X226024Y288952D01*
X225896Y288643D01*
X225852Y288424D01*
X225816Y288147D01*
Y259674D01*
X225852Y259397D01*
X225896Y259178D01*
X226024Y258869D01*
X226148Y258683D01*
X226318Y258462D01*
X229555Y255225D01*
X229663Y255142D01*
X229777Y255054D01*
X229962Y254930D01*
X230230Y254820D01*
X230272Y254802D01*
X230491Y254759D01*
X230768Y254722D01*
X231566D01*
X231724Y254425D01*
X231946Y254137D01*
X232215Y253808D01*
X232544Y253538D01*
X232833Y253317D01*
X233261Y253088D01*
X233596Y252949D01*
X234061Y252808D01*
X234421Y252761D01*
X234844Y252719D01*
X237345D01*
X237768Y252761D01*
X238128Y252808D01*
X238593Y252949D01*
X238928Y253088D01*
X239356Y253317D01*
X239645Y253538D01*
X239973Y253808D01*
X240243Y254137D01*
X240464Y254425D01*
X240693Y254853D01*
X240832Y255189D01*
X240973Y255653D01*
X241021Y256014D01*
X241062Y256437D01*
X241021Y256860D01*
X240973Y257221D01*
X240832Y257685D01*
X240693Y258021D01*
X240464Y258449D01*
X240243Y258737D01*
X239973Y259066D01*
X239645Y259336D01*
X239356Y259557D01*
X238928Y259786D01*
X238593Y259925D01*
X238128Y260066D01*
X237768Y260113D01*
X237345Y260155D01*
X234844D01*
X234421Y260113D01*
X234061Y260066D01*
X233596Y259925D01*
X233261Y259786D01*
X232833Y259557D01*
X232544Y259336D01*
X232215Y259066D01*
X232199Y259067D01*
X231807Y258556D01*
X231205Y258479D01*
X231156Y258500D01*
X230483Y259173D01*
X230427Y259203D01*
X229245Y260384D01*
Y264422D01*
X229264Y264428D01*
Y265663D01*
X229726Y265854D01*
X230369Y265211D01*
X230789Y264931D01*
X231099Y264802D01*
X231317Y264759D01*
X231373Y264752D01*
X231563Y264726D01*
X231724Y264425D01*
X231946Y264137D01*
X232215Y263808D01*
X232544Y263538D01*
X232833Y263317D01*
X233261Y263088D01*
X233596Y262949D01*
X234061Y262808D01*
X234421Y262761D01*
X234844Y262719D01*
X237345D01*
X237768Y262761D01*
X238128Y262808D01*
X238593Y262949D01*
X238928Y263088D01*
X239356Y263317D01*
X239645Y263538D01*
X239973Y263808D01*
X240243Y264137D01*
X240464Y264425D01*
X240693Y264853D01*
X240832Y265189D01*
X240973Y265653D01*
X241021Y266014D01*
X241062Y266437D01*
X241021Y266860D01*
X240973Y267221D01*
X240832Y267685D01*
X240693Y268021D01*
X240464Y268449D01*
X240243Y268737D01*
X239973Y269066D01*
X239645Y269336D01*
X239356Y269557D01*
X238928Y269786D01*
X238593Y269925D01*
X238128Y270066D01*
X237768Y270113D01*
X237345Y270155D01*
X234844D01*
X234421Y270113D01*
X234061Y270066D01*
X233596Y269925D01*
X233261Y269786D01*
X232833Y269557D01*
X232544Y269336D01*
X232499Y269298D01*
X232497Y269299D01*
X232206Y269076D01*
X232090Y268925D01*
X231591Y268892D01*
X231064Y269419D01*
Y269990D01*
X231045Y270005D01*
Y272869D01*
X231064Y272884D01*
Y274589D01*
X231564Y274688D01*
X231612Y274571D01*
X232206Y273798D01*
X232833Y273317D01*
X233261Y273088D01*
X233596Y272949D01*
X234061Y272808D01*
X234421Y272761D01*
X234844Y272719D01*
X237345D01*
X237768Y272761D01*
X238128Y272808D01*
X238593Y272949D01*
X238928Y273088D01*
X239356Y273317D01*
X239645Y273538D01*
X239973Y273808D01*
X240243Y274137D01*
X240464Y274425D01*
X240693Y274853D01*
X240832Y275189D01*
X240973Y275653D01*
X241021Y276014D01*
X241062Y276437D01*
X241021Y276860D01*
X240973Y277221D01*
X240832Y277685D01*
X240693Y278021D01*
X240464Y278449D01*
X240243Y278737D01*
X239973Y279066D01*
X239645Y279336D01*
X239356Y279557D01*
X238928Y279786D01*
X238593Y279925D01*
X238128Y280066D01*
X237768Y280113D01*
X237345Y280155D01*
X234844D01*
X234421Y280113D01*
X234061Y280066D01*
X233596Y279925D01*
X233261Y279786D01*
X232833Y279557D01*
X232206Y279076D01*
X231612Y278303D01*
X231564Y278186D01*
X231064Y278285D01*
Y279990D01*
X231045Y280005D01*
Y282869D01*
X231064Y282884D01*
Y284589D01*
X231564Y284688D01*
X231612Y284571D01*
X232206Y283798D01*
X232833Y283317D01*
X233261Y283088D01*
X233596Y282949D01*
X234061Y282808D01*
X234421Y282761D01*
X234844Y282719D01*
X237345D01*
X237768Y282761D01*
X238128Y282808D01*
X238593Y282949D01*
X238928Y283088D01*
X239356Y283317D01*
X239645Y283538D01*
X239973Y283808D01*
X240243Y284137D01*
X240464Y284425D01*
X240664Y284799D01*
X240672Y284802D01*
X240672Y284802D01*
X240673Y284802D01*
X240982Y284930D01*
X241168Y285054D01*
X241390Y285225D01*
X254687Y298522D01*
X289945D01*
X289982Y298504D01*
X291022D01*
X291351Y298004D01*
X291102Y297403D01*
X291031Y296860D01*
X290989Y296437D01*
X291031Y296014D01*
X291078Y295653D01*
X291219Y295189D01*
X291358Y294853D01*
X291587Y294425D01*
X291808Y294137D01*
X292078Y293808D01*
X292407Y293538D01*
X292695Y293317D01*
X293123Y293088D01*
X293459Y292949D01*
X293923Y292808D01*
X294284Y292761D01*
X294707Y292719D01*
X297207D01*
X297630Y292761D01*
X297990Y292808D01*
X298455Y292949D01*
X298791Y293088D01*
X299219Y293317D01*
X299507Y293538D01*
X299836Y293808D01*
X300105Y294137D01*
X300327Y294425D01*
X300555Y294853D01*
X300812Y295471D01*
X300922Y296313D01*
X301384Y296558D01*
X302323Y295619D01*
X302351Y295618D01*
X313583Y284386D01*
Y277416D01*
X313564Y277408D01*
Y276154D01*
X313102Y275963D01*
X312216Y276850D01*
X312197Y276842D01*
X301390Y287649D01*
X301168Y287820D01*
X300982Y287944D01*
X300913Y287972D01*
X300673Y288072D01*
X300522Y288102D01*
X300520Y288107D01*
X300509Y288108D01*
X300327Y288449D01*
X300105Y288737D01*
X299836Y289066D01*
X299507Y289336D01*
X299219Y289557D01*
X298791Y289786D01*
X298455Y289925D01*
X297990Y290066D01*
X297630Y290113D01*
X297207Y290155D01*
X294707D01*
X294284Y290113D01*
X293923Y290066D01*
X293459Y289925D01*
X293123Y289786D01*
X292695Y289557D01*
X292407Y289336D01*
X292078Y289066D01*
X291808Y288737D01*
X291587Y288449D01*
X291358Y288021D01*
X291219Y287685D01*
X291078Y287221D01*
X291031Y286860D01*
X290989Y286437D01*
X291031Y286014D01*
X291078Y285653D01*
X291219Y285189D01*
X291358Y284853D01*
X291587Y284425D01*
X291808Y284137D01*
X292078Y283808D01*
X292407Y283538D01*
X292695Y283317D01*
X293123Y283088D01*
X293459Y282949D01*
X293923Y282808D01*
X294284Y282761D01*
X294707Y282719D01*
X297207D01*
X297630Y282761D01*
X297990Y282808D01*
X298455Y282949D01*
X298791Y283088D01*
X299219Y283317D01*
X299507Y283538D01*
X299836Y283808D01*
X300356Y283834D01*
X311783Y272406D01*
Y264452D01*
X311764Y264444D01*
Y263191D01*
X311302Y262999D01*
X310416Y263886D01*
X310397Y263878D01*
X301409Y272866D01*
X301188Y273036D01*
X300860Y273255D01*
X300197Y273387D01*
X300057D01*
X299914Y273887D01*
X300439Y274571D01*
X300546Y274831D01*
X300546Y274835D01*
X300555Y274853D01*
X300695Y275189D01*
X300835Y275653D01*
X300883Y276014D01*
X300925Y276437D01*
X300883Y276860D01*
X300835Y277221D01*
X300695Y277685D01*
X300555Y278021D01*
X300327Y278449D01*
X300105Y278737D01*
X299836Y279066D01*
X299507Y279336D01*
X299219Y279557D01*
X298791Y279786D01*
X298455Y279925D01*
X297990Y280066D01*
X297630Y280113D01*
X297207Y280155D01*
X294707D01*
X294284Y280113D01*
X293923Y280066D01*
X293459Y279925D01*
X293123Y279786D01*
X292695Y279557D01*
X292407Y279336D01*
X292078Y279066D01*
X291808Y278737D01*
X291587Y278449D01*
X291358Y278021D01*
X291219Y277685D01*
X291078Y277221D01*
X291031Y276860D01*
X290989Y276437D01*
X291031Y276014D01*
X291078Y275653D01*
X291219Y275189D01*
X291475Y274571D01*
X292000Y273887D01*
X291856Y273387D01*
X290519D01*
X290498Y273368D01*
X286967D01*
X286905D01*
X286634Y273368D01*
X286584Y273377D01*
X285971Y273255D01*
X285432Y272895D01*
X285433Y272894D01*
X285421Y272866D01*
X285099Y272544D01*
X285059Y272504D01*
X283927Y271372D01*
X283888Y271375D01*
X281388D01*
X280965Y271334D01*
X280604Y271286D01*
X280140Y271145D01*
X279804Y271006D01*
X279376Y270778D01*
X279087Y270556D01*
X278759Y270286D01*
X278529Y270006D01*
X278526Y270005D01*
X278156Y269523D01*
X277908Y268926D01*
X277367D01*
X277120Y269523D01*
X276750Y270005D01*
X276747Y270006D01*
X276517Y270286D01*
X276188Y270556D01*
X275900Y270778D01*
X275472Y271006D01*
X275136Y271145D01*
X274672Y271286D01*
X274311Y271334D01*
X273888Y271375D01*
X271388D01*
X270965Y271334D01*
X270604Y271286D01*
X270140Y271145D01*
X269804Y271006D01*
X269376Y270778D01*
X269088Y270556D01*
X268759Y270286D01*
X268489Y269958D01*
X268268Y269669D01*
X268039Y269241D01*
X267900Y268905D01*
X267759Y268441D01*
X267712Y268080D01*
X267670Y267657D01*
X267712Y267234D01*
X267759Y266874D01*
X267900Y266409D01*
X268039Y266074D01*
X268268Y265646D01*
X268489Y265357D01*
X268759Y265029D01*
X269088Y264759D01*
X269376Y264537D01*
X269804Y264309D01*
X270140Y264170D01*
X270604Y264029D01*
X270965Y263981D01*
X271388Y263939D01*
X273888D01*
X273927Y263943D01*
X275167Y262703D01*
X275160Y262684D01*
X277259Y260585D01*
X277821Y260210D01*
X278022Y260170D01*
X278229Y259619D01*
X278156Y259523D01*
X277908Y258926D01*
X277367D01*
X277120Y259523D01*
X276527Y260296D01*
X275754Y260889D01*
X274854Y261262D01*
X274311Y261334D01*
X273888Y261375D01*
X271388D01*
X270965Y261334D01*
X270604Y261286D01*
X270140Y261145D01*
X269804Y261006D01*
X269376Y260777D01*
X269088Y260556D01*
X268759Y260286D01*
X268489Y259958D01*
X268268Y259669D01*
X268039Y259241D01*
X267900Y258906D01*
X267759Y258441D01*
X267712Y258081D01*
X267670Y257657D01*
X267712Y257234D01*
X267759Y256874D01*
X267900Y256409D01*
X268039Y256074D01*
X268268Y255646D01*
X268489Y255357D01*
X268759Y255029D01*
X269088Y254759D01*
X269376Y254537D01*
X269804Y254309D01*
X270140Y254170D01*
X270604Y254029D01*
X270965Y253981D01*
X271388Y253940D01*
X273888D01*
X274311Y253981D01*
X274672Y254029D01*
X275136Y254170D01*
X275472Y254309D01*
X275900Y254537D01*
X276188Y254759D01*
X276517Y255029D01*
X276747Y255309D01*
X276750Y255310D01*
X277120Y255791D01*
X277367Y256389D01*
X277908D01*
X278156Y255791D01*
X278526Y255310D01*
X278529Y255309D01*
X278759Y255029D01*
X279087Y254759D01*
X279376Y254537D01*
X279804Y254309D01*
X280140Y254170D01*
X280604Y254029D01*
X280965Y253981D01*
X281388Y253940D01*
X283888D01*
X284311Y253981D01*
X284671Y254029D01*
X285136Y254170D01*
X285472Y254309D01*
X285900Y254537D01*
X286188Y254759D01*
X286517Y255029D01*
X286787Y255357D01*
X287008Y255646D01*
X287237Y256074D01*
X287376Y256409D01*
X287517Y256874D01*
X287564Y257234D01*
X287606Y257657D01*
X287564Y258081D01*
X287517Y258441D01*
X287470Y258596D01*
X287489Y258632D01*
X287120Y259523D01*
X287038Y259629D01*
X287260Y260078D01*
X288459D01*
X288480Y260096D01*
X291057D01*
X291072Y260082D01*
X291073Y260078D01*
X292581D01*
X292722Y259578D01*
X292068Y259076D01*
X291587Y258449D01*
X291358Y258021D01*
X291219Y257685D01*
X291078Y257221D01*
X291031Y256860D01*
X290989Y256437D01*
X291031Y256014D01*
X291078Y255653D01*
X291219Y255189D01*
X291358Y254853D01*
X291587Y254425D01*
X291808Y254137D01*
X292078Y253808D01*
X292407Y253538D01*
X292695Y253317D01*
X293123Y253088D01*
X293459Y252949D01*
X293923Y252808D01*
X294284Y252761D01*
X294707Y252719D01*
X297207D01*
X297630Y252761D01*
X297990Y252808D01*
X298455Y252949D01*
X298791Y253088D01*
X299219Y253317D01*
X299507Y253538D01*
X299836Y253808D01*
X300105Y254137D01*
X300327Y254425D01*
X300555Y254853D01*
X300695Y255189D01*
X300835Y255653D01*
X300883Y256014D01*
X300925Y256437D01*
X300914Y256548D01*
X300923Y256553D01*
X300812Y257403D01*
X300439Y258303D01*
X300083Y258767D01*
X300460Y259097D01*
X302336Y257221D01*
X302354Y257229D01*
X308183Y251400D01*
Y183406D01*
X308164Y183399D01*
Y182145D01*
X307702Y181954D01*
X306816Y182840D01*
X306797Y182833D01*
X301980Y187650D01*
X301758Y187820D01*
X301573Y187943D01*
X301264Y188072D01*
X301045Y188115D01*
X300768Y188152D01*
X300486D01*
X300327Y188449D01*
X300105Y188737D01*
X299836Y189066D01*
X299507Y189336D01*
X299219Y189557D01*
X298791Y189786D01*
X298455Y189925D01*
X297990Y190066D01*
X297630Y190113D01*
X297207Y190155D01*
X294707D01*
X294284Y190113D01*
X293923Y190066D01*
X293459Y189925D01*
X293123Y189786D01*
X292695Y189557D01*
X292407Y189336D01*
X292078Y189066D01*
X291808Y188737D01*
X291587Y188449D01*
X291358Y188021D01*
X291219Y187685D01*
X291078Y187221D01*
X291031Y186860D01*
X290989Y186437D01*
X291031Y186014D01*
X291078Y185653D01*
X291219Y185189D01*
X291358Y184853D01*
X291587Y184425D01*
X291808Y184137D01*
X292078Y183808D01*
X292407Y183538D01*
X292695Y183317D01*
X293123Y183088D01*
X293459Y182949D01*
X293923Y182808D01*
X294284Y182761D01*
X294707Y182719D01*
X297207D01*
X297630Y182761D01*
X297990Y182808D01*
X298455Y182949D01*
X298791Y183088D01*
X299219Y183317D01*
X299507Y183538D01*
X299836Y183808D01*
X299850Y183804D01*
X300097Y184125D01*
X300595Y184158D01*
X301377Y183377D01*
X301413Y183366D01*
X306356Y178424D01*
Y174407D01*
X306338Y174399D01*
Y173145D01*
X305876Y172954D01*
X304989Y173840D01*
X304970Y173832D01*
X301153Y177649D01*
X300932Y177820D01*
X300746Y177944D01*
X300677Y177972D01*
X300554Y178023D01*
X300327Y178449D01*
X300105Y178737D01*
X299836Y179066D01*
X299507Y179336D01*
X299219Y179557D01*
X298791Y179786D01*
X298455Y179925D01*
X297990Y180066D01*
X297630Y180113D01*
X297207Y180155D01*
X294707D01*
X294284Y180113D01*
X293923Y180066D01*
X293459Y179925D01*
X293123Y179786D01*
X292695Y179557D01*
X292407Y179336D01*
X292078Y179066D01*
X291808Y178737D01*
X291587Y178449D01*
X291358Y178021D01*
X291219Y177685D01*
X291078Y177221D01*
X291031Y176860D01*
X290989Y176437D01*
X291031Y176014D01*
X291078Y175653D01*
X291219Y175189D01*
X291358Y174853D01*
X291587Y174425D01*
X291808Y174137D01*
X292078Y173808D01*
X292407Y173538D01*
X292695Y173317D01*
X293123Y173088D01*
X293459Y172949D01*
X293923Y172808D01*
X294284Y172761D01*
X294707Y172719D01*
X297207D01*
X297630Y172761D01*
X297990Y172808D01*
X298455Y172949D01*
X298791Y173088D01*
X299219Y173317D01*
X299507Y173538D01*
X299836Y173808D01*
X300131Y173822D01*
X304556Y169397D01*
Y166364D01*
X304538Y166356D01*
Y165102D01*
X304076Y164911D01*
X303189Y165798D01*
X303170Y165790D01*
X301311Y167649D01*
X301089Y167820D01*
X300904Y167944D01*
X300835Y167972D01*
X300594Y168072D01*
X300529Y168085D01*
X300524Y168096D01*
X300515Y168097D01*
X300327Y168449D01*
X300105Y168737D01*
X299836Y169066D01*
X299507Y169336D01*
X299219Y169557D01*
X298791Y169786D01*
X298455Y169925D01*
X297990Y170066D01*
X297630Y170113D01*
X297207Y170155D01*
X294707D01*
X294284Y170113D01*
X293923Y170066D01*
X293459Y169925D01*
X293123Y169786D01*
X292695Y169557D01*
X292407Y169336D01*
X292078Y169066D01*
X291808Y168737D01*
X291587Y168449D01*
X291358Y168021D01*
X291219Y167685D01*
X291078Y167221D01*
X291031Y166860D01*
X290989Y166437D01*
X291031Y166014D01*
X291078Y165653D01*
X291219Y165189D01*
X291358Y164853D01*
X291587Y164425D01*
X291808Y164137D01*
X292078Y163808D01*
X292407Y163538D01*
X292695Y163317D01*
X293123Y163088D01*
X293459Y162949D01*
X293923Y162808D01*
X294284Y162761D01*
X294707Y162719D01*
X297207D01*
X297630Y162761D01*
X297990Y162808D01*
X298455Y162949D01*
X298791Y163088D01*
X299219Y163317D01*
X299507Y163538D01*
X299836Y163808D01*
X300281Y163830D01*
X302756Y161354D01*
Y138736D01*
X302738Y138725D01*
Y137375D01*
X302276Y137183D01*
X301797Y137663D01*
X301324Y137979D01*
X301307Y137972D01*
X301067Y138072D01*
X300848Y138115D01*
X300793Y138122D01*
X300571Y138152D01*
X300486D01*
X300327Y138449D01*
X300105Y138737D01*
X299836Y139066D01*
X299507Y139336D01*
X299219Y139557D01*
X298791Y139786D01*
X298455Y139925D01*
X297990Y140066D01*
X297630Y140113D01*
X297207Y140155D01*
X294707D01*
X294284Y140113D01*
X293923Y140066D01*
X293459Y139925D01*
X293123Y139786D01*
X292695Y139557D01*
X292407Y139336D01*
X292078Y139066D01*
X291808Y138737D01*
X291587Y138449D01*
X291358Y138021D01*
X291219Y137685D01*
X291078Y137221D01*
X291031Y136860D01*
X290989Y136437D01*
X291031Y136014D01*
X291078Y135653D01*
X291219Y135189D01*
X291358Y134853D01*
X291587Y134425D01*
X291808Y134137D01*
X292078Y133808D01*
X292407Y133538D01*
X292695Y133317D01*
X293123Y133088D01*
X293459Y132949D01*
X293923Y132808D01*
X294284Y132761D01*
X294707Y132719D01*
X297207D01*
X297630Y132761D01*
X297990Y132808D01*
X298455Y132949D01*
X298791Y133088D01*
X299219Y133317D01*
X299846Y133798D01*
X300011Y134014D01*
X300510Y134047D01*
X300938Y133619D01*
Y132852D01*
X300956Y132836D01*
Y130038D01*
X300938Y130022D01*
Y128405D01*
X300439Y128303D01*
X299846Y129076D01*
X299219Y129557D01*
X298791Y129786D01*
X298455Y129925D01*
X297990Y130066D01*
X297630Y130113D01*
X297207Y130155D01*
X294707D01*
X294284Y130113D01*
X293923Y130066D01*
X293459Y129925D01*
X293123Y129786D01*
X292695Y129557D01*
X292407Y129336D01*
X292078Y129066D01*
X291808Y128737D01*
X291587Y128449D01*
X291358Y128021D01*
X291219Y127685D01*
X291078Y127221D01*
X291031Y126860D01*
X290989Y126437D01*
X291031Y126014D01*
X291078Y125653D01*
X291219Y125189D01*
X291358Y124853D01*
X291587Y124425D01*
X291808Y124137D01*
X292078Y123808D01*
X292407Y123538D01*
X292695Y123317D01*
X293123Y123088D01*
X293459Y122949D01*
X293923Y122808D01*
X294707Y122705D01*
X297207D01*
X297466Y122739D01*
X297700Y122266D01*
X296741Y121307D01*
X293935D01*
X293935Y121288D01*
X238117D01*
X238116Y121307D01*
X234073D01*
X234072Y121288D01*
X146173D01*
X144966Y122495D01*
X144974Y122513D01*
X143512Y123976D01*
X143795Y124399D01*
X144625Y124056D01*
X145069Y123997D01*
Y127953D01*
Y131908D01*
X144822Y131876D01*
X144415Y131752D01*
X144403Y131758D01*
X143652Y131447D01*
X143382Y131239D01*
X142933Y131460D01*
Y132701D01*
X142915Y132717D01*
Y145304D01*
X142933Y145317D01*
Y146734D01*
X143433Y146904D01*
X143658Y146611D01*
X144394Y146046D01*
X144415Y146052D01*
X144741Y145852D01*
X145352Y145599D01*
X145887Y145471D01*
X146214Y145428D01*
X146653Y145393D01*
X147093Y145428D01*
X147420Y145471D01*
X147955Y145599D01*
X148566Y145852D01*
X149036Y146140D01*
X149298Y146341D01*
X149633Y146627D01*
X149919Y146962D01*
X150120Y147224D01*
X150407Y147694D01*
X150660Y148304D01*
X150789Y148840D01*
X150832Y149167D01*
X150866Y149606D01*
X150832Y150045D01*
X150789Y150373D01*
X150660Y150908D01*
X150586Y151087D01*
D01*
X150578Y151106D01*
X152787Y153315D01*
X152870Y153423D01*
X152957Y153537D01*
X153081Y153722D01*
X153192Y153990D01*
X153209Y154032D01*
X153308Y154528D01*
Y155794D01*
X153808Y155893D01*
X153986Y155463D01*
X154628Y154628D01*
X154771Y154518D01*
X154785Y154517D01*
X154994Y154347D01*
X155305Y154107D01*
X155768Y153860D01*
X156131Y153710D01*
X156633Y153557D01*
X156880Y153525D01*
Y157480D01*
Y161436D01*
X156633Y161403D01*
X156131Y161251D01*
X155768Y161101D01*
X155305Y160853D01*
X154994Y160614D01*
X154785Y160443D01*
X154771Y160443D01*
X154628Y160333D01*
X153986Y159498D01*
X153808Y159067D01*
X153308Y159167D01*
Y160433D01*
X153209Y160929D01*
X153181Y160998D01*
X153081Y161238D01*
X152957Y161424D01*
X152906Y161491D01*
X152787Y161645D01*
X146515Y167918D01*
Y212987D01*
X152787Y219260D01*
X152870Y219368D01*
X152957Y219482D01*
X153081Y219667D01*
X153192Y219935D01*
X153209Y219976D01*
X153253Y220195D01*
X153289Y220472D01*
Y227362D01*
X153260Y227584D01*
X153253Y227639D01*
X153209Y227858D01*
X153081Y228167D01*
X152957Y228353D01*
X152787Y228575D01*
X150797Y230565D01*
X150802Y230587D01*
X150797Y230592D01*
X150832Y230860D01*
X150866Y231299D01*
X150832Y231738D01*
X150789Y232066D01*
X150660Y232601D01*
X150407Y233212D01*
X150120Y233681D01*
X149919Y233943D01*
X149633Y234278D01*
X149298Y234564D01*
X149036Y234765D01*
X148566Y235053D01*
X147955Y235306D01*
X147420Y235435D01*
X147093Y235478D01*
X146653Y235512D01*
X146214Y235478D01*
X145887Y235435D01*
X145352Y235306D01*
X144741Y235053D01*
X144271Y234765D01*
X144009Y234564D01*
X143675Y234278D01*
X143388Y233943D01*
X143187Y233681D01*
X142900Y233212D01*
X142647Y232601D01*
X142518Y232066D01*
X142475Y231738D01*
X142441Y231299D01*
X142475Y230860D01*
X142518Y230533D01*
X142647Y229997D01*
X142900Y229386D01*
X143187Y228917D01*
X143388Y228655D01*
X143675Y228320D01*
X143699Y228300D01*
X143710Y228264D01*
X144535Y227630D01*
X144580Y227612D01*
Y227112D01*
X144535Y227094D01*
X143710Y226461D01*
X143699Y226425D01*
X143675Y226404D01*
X143388Y226069D01*
X143187Y225807D01*
X142900Y225338D01*
X142647Y224727D01*
X142518Y224192D01*
X142475Y223864D01*
X142441Y223425D01*
X142475Y222986D01*
X142518Y222659D01*
X142647Y222123D01*
X142721Y221944D01*
D01*
X142729Y221925D01*
X141788Y220984D01*
X141617Y220762D01*
X141493Y220577D01*
X141365Y220268D01*
X141322Y220049D01*
X141315Y219994D01*
X141285Y219772D01*
Y204609D01*
X141267Y204602D01*
Y203348D01*
X140805Y203157D01*
X139918Y204043D01*
X139900Y204035D01*
X132311Y211623D01*
Y291946D01*
X132282Y292168D01*
X132275Y292223D01*
X132231Y292442D01*
X132167Y292597D01*
X132103Y292752D01*
X131979Y292937D01*
X131928Y293005D01*
X131809Y293159D01*
X123314Y301654D01*
X123520Y302038D01*
X123659Y302374D01*
X123800Y302838D01*
X123847Y303199D01*
X123889Y303622D01*
X123847Y304045D01*
X123800Y304406D01*
X123659Y304870D01*
X123520Y305206D01*
X123291Y305634D01*
X123070Y305922D01*
X122800Y306251D01*
X122471Y306521D01*
X122183Y306742D01*
X121755Y306971D01*
X121419Y307110D01*
X120955Y307251D01*
X120594Y307298D01*
X120171Y307340D01*
X117671D01*
X117248Y307298D01*
X116887Y307251D01*
X116423Y307110D01*
X116087Y306971D01*
X115659Y306742D01*
X115371Y306521D01*
X115042Y306251D01*
X114812Y305971D01*
X114809Y305970D01*
X114439Y305488D01*
X114192Y304891D01*
X113651D01*
X113403Y305488D01*
X113033Y305970D01*
X113030Y305971D01*
X112800Y306251D01*
X112471Y306521D01*
X112183Y306742D01*
X111755Y306971D01*
X111419Y307110D01*
X110955Y307251D01*
X110594Y307298D01*
X110171Y307340D01*
X107671D01*
X107248Y307298D01*
X106887Y307251D01*
X106423Y307110D01*
X106087Y306971D01*
X105659Y306742D01*
X105371Y306521D01*
X105042Y306251D01*
X104772Y305922D01*
X104551Y305634D01*
X104322Y305206D01*
X104066Y304588D01*
X103939Y303622D01*
X104066Y302656D01*
X104322Y302038D01*
X104551Y301610D01*
X104772Y301322D01*
X105042Y300993D01*
X105371Y300723D01*
X105659Y300502D01*
X106087Y300273D01*
X106423Y300134D01*
X106887Y299993D01*
X107248Y299946D01*
X107671Y299904D01*
X110171D01*
X110594Y299946D01*
X110955Y299993D01*
X111419Y300134D01*
X111755Y300273D01*
X112183Y300502D01*
X112471Y300723D01*
X112800Y300993D01*
X113030Y301273D01*
X113033Y301274D01*
X113403Y301756D01*
X113651Y302353D01*
X114192D01*
X114439Y301756D01*
X114809Y301274D01*
X114812Y301273D01*
X115042Y300993D01*
X115371Y300723D01*
X115659Y300502D01*
X116087Y300273D01*
X116423Y300134D01*
X116887Y299993D01*
X117248Y299946D01*
X117671Y299904D01*
X120171D01*
X120210Y299908D01*
X121450Y298668D01*
X121443Y298649D01*
X128864Y291228D01*
Y286784D01*
X128402Y286593D01*
X123332Y291663D01*
X123403Y291756D01*
X123776Y292656D01*
X123903Y293622D01*
X123776Y294588D01*
X123403Y295488D01*
X122810Y296261D01*
X122037Y296854D01*
X121137Y297227D01*
X120594Y297298D01*
X120171Y297340D01*
X117671D01*
X117248Y297298D01*
X116887Y297251D01*
X116423Y297110D01*
X116087Y296971D01*
X115659Y296742D01*
X115371Y296521D01*
X115042Y296251D01*
X114772Y295922D01*
X114439Y295488D01*
X114066Y294588D01*
X113668Y294545D01*
X113561Y294583D01*
X113228Y295387D01*
X112913Y295798D01*
X112658Y296109D01*
X112347Y296364D01*
X112074Y296573D01*
X111670Y296790D01*
X111352Y296921D01*
X110913Y297055D01*
X110571Y297099D01*
X110171Y297139D01*
X109521D01*
Y293622D01*
Y290105D01*
X110171D01*
X110571Y290144D01*
X110913Y290189D01*
X111352Y290323D01*
X111670Y290454D01*
X112074Y290670D01*
X112347Y290880D01*
X112658Y291135D01*
X112913Y291446D01*
X113228Y291857D01*
X113561Y292661D01*
X113668Y292699D01*
X114066Y292656D01*
X114439Y291756D01*
X114772Y291322D01*
X115042Y290993D01*
X115371Y290723D01*
X115659Y290502D01*
X116087Y290273D01*
X116423Y290134D01*
X116887Y289993D01*
X117248Y289946D01*
X117671Y289904D01*
X120171D01*
X120210Y289908D01*
X121450Y288668D01*
X121443Y288649D01*
X127064Y283028D01*
Y278584D01*
X126602Y278393D01*
X123332Y281663D01*
X123403Y281756D01*
X123776Y282656D01*
X123903Y283622D01*
X123776Y284588D01*
X123403Y285488D01*
X122810Y286261D01*
X122037Y286854D01*
X121137Y287227D01*
X120594Y287298D01*
X120171Y287340D01*
X117671D01*
X117248Y287298D01*
X116887Y287251D01*
X116423Y287110D01*
X116087Y286971D01*
X115659Y286742D01*
X115371Y286521D01*
X115042Y286251D01*
X114812Y285970D01*
X114809Y285970D01*
X114439Y285488D01*
X114192Y284891D01*
X113651D01*
X113403Y285488D01*
X113033Y285970D01*
X113030Y285970D01*
X112800Y286251D01*
X112471Y286521D01*
X112183Y286742D01*
X111755Y286971D01*
X111419Y287110D01*
X110955Y287251D01*
X110594Y287298D01*
X110171Y287340D01*
X107671D01*
X107248Y287298D01*
X106887Y287251D01*
X106423Y287110D01*
X106087Y286971D01*
X105659Y286742D01*
X105371Y286521D01*
X105042Y286251D01*
X104772Y285922D01*
X104551Y285634D01*
X104322Y285206D01*
X104066Y284588D01*
X103939Y283622D01*
X104066Y282656D01*
X104439Y281756D01*
X105032Y280983D01*
X105805Y280390D01*
X106705Y280017D01*
X107671Y279890D01*
X110171D01*
X111137Y280017D01*
X112037Y280390D01*
X112810Y280983D01*
X113403Y281756D01*
X113651Y282353D01*
X114192D01*
X114439Y281756D01*
X115032Y280983D01*
X115805Y280390D01*
X116705Y280017D01*
X117671Y279890D01*
X120171D01*
X120198Y279894D01*
X125264Y274828D01*
Y270384D01*
X124802Y270193D01*
X123332Y271663D01*
X123403Y271756D01*
X123776Y272656D01*
X123903Y273622D01*
X123776Y274588D01*
X123403Y275488D01*
X122810Y276261D01*
X122037Y276854D01*
X121137Y277227D01*
X120171Y277354D01*
X117671D01*
X116705Y277227D01*
X115805Y276854D01*
X115032Y276261D01*
X114439Y275488D01*
X114192Y274891D01*
X113651D01*
X113403Y275488D01*
X112810Y276261D01*
X112037Y276854D01*
X111137Y277227D01*
X110171Y277354D01*
X107671D01*
X106705Y277227D01*
X105805Y276854D01*
X105032Y276261D01*
X104439Y275488D01*
X104066Y274588D01*
X103939Y273622D01*
X104066Y272656D01*
X104439Y271756D01*
X105032Y270983D01*
X105805Y270390D01*
X106705Y270017D01*
X107671Y269890D01*
X110171D01*
X111137Y270017D01*
X112037Y270390D01*
X112810Y270983D01*
X113403Y271756D01*
X113651Y272353D01*
X114192D01*
X114439Y271756D01*
X115032Y270983D01*
X115805Y270390D01*
X116705Y270017D01*
X117671Y269890D01*
X120171D01*
X120198Y269894D01*
X123394Y266698D01*
X123352Y266375D01*
X122839Y266224D01*
X122810Y266261D01*
X122037Y266854D01*
X121137Y267227D01*
X120171Y267354D01*
X117671D01*
X116705Y267227D01*
X115805Y266854D01*
X115032Y266261D01*
X114439Y265488D01*
X114192Y264891D01*
X113651D01*
X113403Y265488D01*
X112810Y266261D01*
X112037Y266854D01*
X111137Y267227D01*
X110171Y267354D01*
X107671D01*
X106705Y267227D01*
X105805Y266854D01*
X105032Y266261D01*
X104439Y265488D01*
X104066Y264588D01*
X103939Y263622D01*
X104066Y262656D01*
X104322Y262038D01*
X104551Y261610D01*
X104772Y261322D01*
X105042Y260993D01*
X105371Y260723D01*
X105659Y260502D01*
X106087Y260273D01*
X106423Y260134D01*
X106887Y259993D01*
X107248Y259946D01*
X107671Y259904D01*
X110171D01*
X110594Y259946D01*
X110955Y259993D01*
X111419Y260134D01*
X111755Y260273D01*
X112183Y260502D01*
X112471Y260723D01*
X112800Y260993D01*
X113030Y261274D01*
X113033Y261274D01*
X113403Y261756D01*
X113651Y262353D01*
X114192D01*
X114439Y261756D01*
X114809Y261274D01*
X114812Y261274D01*
X115042Y260993D01*
X115371Y260723D01*
X115659Y260502D01*
X116087Y260273D01*
X116423Y260134D01*
X116887Y259993D01*
X117248Y259946D01*
X117671Y259904D01*
X120171D01*
X120594Y259946D01*
X120955Y259993D01*
X121419Y260134D01*
X121755Y260273D01*
X121982Y260395D01*
X122018Y260382D01*
X122037Y260390D01*
X122810Y260983D01*
X122964Y261183D01*
X123464Y261013D01*
Y259626D01*
X123482Y259612D01*
Y257373D01*
X123464Y257362D01*
Y255902D01*
X122964Y255732D01*
X122667Y256118D01*
X122002Y256629D01*
X121982Y256623D01*
X121669Y256790D01*
X121352Y256921D01*
X120913Y257055D01*
X120571Y257100D01*
X120171Y257139D01*
X119521D01*
Y253622D01*
Y250105D01*
X120171D01*
X120571Y250145D01*
X120913Y250189D01*
X121352Y250323D01*
X121669Y250454D01*
X121982Y250621D01*
X122002Y250615D01*
X122667Y251126D01*
X122964Y251512D01*
X123464Y251342D01*
Y249882D01*
X123482Y249871D01*
Y247632D01*
X123464Y247618D01*
Y246231D01*
X122964Y246061D01*
X122810Y246261D01*
X122037Y246854D01*
X122018Y246862D01*
X121982Y246849D01*
X121755Y246971D01*
X121419Y247110D01*
X120955Y247251D01*
X120594Y247298D01*
X120171Y247340D01*
X117671D01*
X117248Y247298D01*
X116887Y247251D01*
X116423Y247110D01*
X116087Y246971D01*
X115659Y246742D01*
X115371Y246521D01*
X115042Y246251D01*
X114812Y245971D01*
X114809Y245970D01*
X114439Y245488D01*
X114192Y244891D01*
X113651D01*
X113403Y245488D01*
X113033Y245970D01*
X113030Y245971D01*
X112800Y246251D01*
X112471Y246521D01*
X112183Y246742D01*
X111755Y246971D01*
X111419Y247110D01*
X110955Y247251D01*
X110594Y247298D01*
X110171Y247340D01*
X107671D01*
X107248Y247298D01*
X106887Y247251D01*
X106423Y247110D01*
X106087Y246971D01*
X105659Y246742D01*
X105371Y246521D01*
X105042Y246251D01*
X104772Y245922D01*
X104551Y245634D01*
X104322Y245206D01*
X104066Y244588D01*
X103939Y243622D01*
X104066Y242656D01*
X104439Y241756D01*
X105032Y240983D01*
X105805Y240390D01*
X106705Y240017D01*
X107671Y239890D01*
X110171D01*
X111137Y240017D01*
X112037Y240390D01*
X112810Y240983D01*
X113403Y241756D01*
X113651Y242353D01*
X114192D01*
X114439Y241756D01*
X115032Y240983D01*
X115805Y240390D01*
X116705Y240017D01*
X117671Y239890D01*
X120171D01*
X121137Y240017D01*
X122037Y240390D01*
X122810Y240983D01*
X122964Y241183D01*
X123464Y241013D01*
Y236231D01*
X122964Y236061D01*
X122810Y236261D01*
X122037Y236854D01*
X121137Y237227D01*
X120171Y237354D01*
X117671D01*
X116705Y237227D01*
X115805Y236854D01*
X115032Y236261D01*
X114439Y235488D01*
X114192Y234891D01*
X113651D01*
X113403Y235488D01*
X112810Y236261D01*
X112037Y236854D01*
X111137Y237227D01*
X110171Y237354D01*
X107671D01*
X106705Y237227D01*
X105805Y236854D01*
X105032Y236261D01*
X104439Y235488D01*
X104066Y234588D01*
X103939Y233622D01*
X104066Y232656D01*
X104322Y232038D01*
X104551Y231610D01*
X104772Y231322D01*
X105042Y230993D01*
X105371Y230723D01*
X105659Y230502D01*
X106087Y230273D01*
X106423Y230134D01*
X106887Y229993D01*
X107248Y229946D01*
X107671Y229904D01*
X110171D01*
X110594Y229946D01*
X110955Y229993D01*
X111419Y230134D01*
X111755Y230273D01*
X112183Y230502D01*
X112471Y230723D01*
X112800Y230993D01*
X113030Y231274D01*
X113033Y231274D01*
X113403Y231756D01*
X113651Y232353D01*
X114192D01*
X114439Y231756D01*
X114809Y231274D01*
X114812Y231274D01*
X115042Y230993D01*
X115371Y230723D01*
X115659Y230502D01*
X116087Y230273D01*
X116423Y230134D01*
X116887Y229993D01*
X117248Y229946D01*
X117671Y229904D01*
X120171D01*
X120594Y229946D01*
X120955Y229993D01*
X121419Y230134D01*
X121755Y230273D01*
X121982Y230395D01*
X122018Y230382D01*
X122037Y230390D01*
X122810Y230983D01*
X122964Y231183D01*
X123464Y231013D01*
Y229626D01*
X123482Y229612D01*
Y227632D01*
X123464Y227618D01*
Y226231D01*
X122964Y226061D01*
X122810Y226261D01*
X122037Y226854D01*
X122018Y226862D01*
X121982Y226849D01*
X121755Y226971D01*
X121419Y227110D01*
X120955Y227251D01*
X120594Y227298D01*
X120171Y227340D01*
X117671D01*
X117248Y227298D01*
X116887Y227251D01*
X116423Y227110D01*
X116087Y226971D01*
X115659Y226742D01*
X115371Y226521D01*
X115042Y226251D01*
X114772Y225922D01*
X114439Y225488D01*
X114066Y224588D01*
X113668Y224545D01*
X113561Y224583D01*
X113228Y225387D01*
X112913Y225798D01*
X112658Y226109D01*
X112347Y226364D01*
X112074Y226573D01*
X111670Y226790D01*
X111352Y226921D01*
X110913Y227055D01*
X110571Y227099D01*
X110171Y227139D01*
X109521D01*
Y223622D01*
Y220105D01*
X110171D01*
X110571Y220145D01*
X110913Y220189D01*
X111352Y220323D01*
X111670Y220454D01*
X112074Y220671D01*
X112347Y220880D01*
X112658Y221135D01*
X112913Y221446D01*
X113228Y221857D01*
X113561Y222661D01*
X113668Y222699D01*
X114066Y222656D01*
X114439Y221756D01*
X114772Y221322D01*
X115042Y220993D01*
X115371Y220723D01*
X115659Y220502D01*
X116087Y220273D01*
X116423Y220134D01*
X116887Y219993D01*
X117248Y219946D01*
X117671Y219904D01*
X120171D01*
X120594Y219946D01*
X120955Y219993D01*
X121419Y220134D01*
X121755Y220273D01*
X121982Y220395D01*
X122018Y220382D01*
X122037Y220390D01*
X122810Y220983D01*
X122964Y221183D01*
X123464Y221013D01*
Y219626D01*
X123482Y219612D01*
Y217632D01*
X123464Y217618D01*
Y216231D01*
X122964Y216061D01*
X122810Y216261D01*
X122037Y216854D01*
X122018Y216862D01*
X121982Y216849D01*
X121755Y216971D01*
X121419Y217110D01*
X120955Y217251D01*
X120594Y217298D01*
X120171Y217340D01*
X117671D01*
X117248Y217298D01*
X116887Y217251D01*
X116423Y217110D01*
X116087Y216971D01*
X115659Y216742D01*
X115371Y216521D01*
X115042Y216251D01*
X114812Y215970D01*
X114809Y215970D01*
X114439Y215488D01*
X114192Y214891D01*
X113651D01*
X113403Y215488D01*
X113033Y215970D01*
X113030Y215970D01*
X112800Y216251D01*
X112471Y216521D01*
X112183Y216742D01*
X111755Y216971D01*
X111419Y217110D01*
X110955Y217251D01*
X110594Y217298D01*
X110171Y217340D01*
X107671D01*
X107248Y217298D01*
X106887Y217251D01*
X106423Y217110D01*
X106087Y216971D01*
X105659Y216742D01*
X105371Y216521D01*
X105042Y216251D01*
X104772Y215922D01*
X104551Y215634D01*
X104322Y215206D01*
X104066Y214588D01*
X103939Y213622D01*
X104066Y212656D01*
X104439Y211756D01*
X105032Y210983D01*
X105805Y210390D01*
X106705Y210017D01*
X107671Y209890D01*
X110171D01*
X110198Y209894D01*
X112262Y207829D01*
X112825Y207454D01*
X113488Y207322D01*
X115422D01*
X115494Y207228D01*
X115408Y206550D01*
X115032Y206261D01*
X114439Y205488D01*
X114192Y204891D01*
X113651D01*
X113403Y205488D01*
X112810Y206261D01*
X112037Y206854D01*
X111137Y207227D01*
X110171Y207354D01*
X107671D01*
X106705Y207227D01*
X105805Y206854D01*
X105032Y206261D01*
X104439Y205488D01*
X104066Y204588D01*
X103939Y203622D01*
X104066Y202656D01*
X104439Y201756D01*
X105032Y200983D01*
X105805Y200390D01*
X106705Y200017D01*
X107671Y199890D01*
X110171D01*
X110198Y199894D01*
X112499Y197593D01*
X113061Y197218D01*
X113724Y197086D01*
X115286D01*
X115455Y196586D01*
X115032Y196261D01*
X114439Y195488D01*
X114066Y194588D01*
X113668Y194545D01*
X113561Y194583D01*
X113228Y195387D01*
X112667Y196118D01*
X111936Y196679D01*
X111085Y197032D01*
X110171Y197152D01*
X109521D01*
Y193622D01*
Y190105D01*
X110171D01*
X110571Y190145D01*
X110913Y190189D01*
X111352Y190323D01*
X111670Y190454D01*
X112074Y190671D01*
X112347Y190880D01*
X112658Y191135D01*
X112913Y191446D01*
X113228Y191857D01*
X113561Y192661D01*
X113668Y192699D01*
X114066Y192656D01*
X114439Y191756D01*
X114772Y191322D01*
X115042Y190993D01*
X115371Y190723D01*
X115659Y190502D01*
X116087Y190273D01*
X116423Y190134D01*
X116887Y189993D01*
X117248Y189946D01*
X117671Y189904D01*
X120171D01*
X120594Y189946D01*
X120955Y189993D01*
X121419Y190134D01*
X121755Y190273D01*
X122183Y190502D01*
X122471Y190723D01*
X122800Y190993D01*
X123070Y191322D01*
X123291Y191610D01*
X123511Y192021D01*
X123513Y192022D01*
X123776Y192656D01*
X123833Y193088D01*
X124361Y193267D01*
X125216Y192412D01*
X125239Y192415D01*
X128685Y188969D01*
Y176487D01*
X128667Y176479D01*
Y175225D01*
X128205Y175034D01*
X127318Y175920D01*
X127299Y175913D01*
X123547Y179665D01*
X123513Y179726D01*
X122879Y180359D01*
X122765Y180436D01*
X122750Y180880D01*
X122822Y180999D01*
X123291Y181610D01*
X123520Y182038D01*
X123659Y182374D01*
X123800Y182838D01*
X123847Y183199D01*
X123889Y183622D01*
X123847Y184045D01*
X123800Y184406D01*
X123659Y184870D01*
X123520Y185206D01*
X123291Y185634D01*
X123070Y185922D01*
X122800Y186251D01*
X122471Y186521D01*
X122183Y186742D01*
X121755Y186971D01*
X121419Y187110D01*
X120955Y187251D01*
X120594Y187298D01*
X120171Y187340D01*
X117671D01*
X117248Y187298D01*
X116887Y187251D01*
X116423Y187110D01*
X116087Y186971D01*
X115659Y186742D01*
X115371Y186521D01*
X115042Y186251D01*
X114812Y185970D01*
X114809Y185970D01*
X114439Y185488D01*
X114192Y184891D01*
X113651D01*
X113403Y185488D01*
X113033Y185970D01*
X113030Y185970D01*
X112800Y186251D01*
X112471Y186521D01*
X112183Y186742D01*
X111755Y186971D01*
X111419Y187110D01*
X110955Y187251D01*
X110594Y187298D01*
X110171Y187340D01*
X107671D01*
X107248Y187298D01*
X106887Y187251D01*
X106423Y187110D01*
X106087Y186971D01*
X105659Y186742D01*
X105371Y186521D01*
X105042Y186251D01*
X104772Y185922D01*
X104551Y185634D01*
X104322Y185206D01*
X104066Y184588D01*
X103939Y183622D01*
X104066Y182656D01*
X104439Y181756D01*
X105032Y180983D01*
X105805Y180390D01*
X106705Y180017D01*
X107671Y179890D01*
X110171D01*
X110198Y179894D01*
X112184Y177908D01*
X112746Y177532D01*
X113409Y177401D01*
X116341D01*
X116440Y176901D01*
X115906Y176679D01*
X115175Y176118D01*
X114614Y175387D01*
X114281Y174583D01*
X114175Y174545D01*
X113776Y174588D01*
X113403Y175488D01*
X112810Y176261D01*
X112037Y176854D01*
X111137Y177227D01*
X110171Y177354D01*
X107671D01*
X106705Y177227D01*
X105805Y176854D01*
X105032Y176261D01*
X104439Y175488D01*
X104066Y174588D01*
X103939Y173622D01*
X104066Y172656D01*
X104439Y171756D01*
X105032Y170983D01*
X105805Y170390D01*
X106705Y170017D01*
X107671Y169890D01*
X110171D01*
X110198Y169894D01*
X112814Y167278D01*
X113376Y166903D01*
X114039Y166771D01*
X114919D01*
X115080Y166297D01*
X115032Y166261D01*
X114439Y165488D01*
X114192Y164891D01*
X113651D01*
X113403Y165488D01*
X112810Y166261D01*
X112037Y166854D01*
X111137Y167227D01*
X110171Y167354D01*
X107671D01*
X106705Y167227D01*
X105805Y166854D01*
X105032Y166261D01*
X104439Y165488D01*
X104066Y164588D01*
X103939Y163622D01*
X104066Y162656D01*
X104439Y161756D01*
X105032Y160983D01*
X105805Y160390D01*
X106705Y160017D01*
X107671Y159890D01*
X110171D01*
X110198Y159894D01*
X112656Y157436D01*
X113218Y157060D01*
X113882Y156928D01*
X115081D01*
X115250Y156428D01*
X115032Y156261D01*
X114439Y155488D01*
X114066Y154588D01*
X113668Y154545D01*
X113561Y154583D01*
X113228Y155387D01*
X112667Y156118D01*
X111936Y156679D01*
X111085Y157032D01*
X110171Y157152D01*
X109521D01*
Y153622D01*
Y150105D01*
X110171D01*
X110571Y150145D01*
X110913Y150189D01*
X111352Y150323D01*
X111670Y150454D01*
X112074Y150671D01*
X112347Y150880D01*
X112658Y151135D01*
X112913Y151446D01*
X113228Y151857D01*
X113561Y152661D01*
X113668Y152699D01*
X114066Y152656D01*
X114439Y151756D01*
X114772Y151322D01*
X115042Y150993D01*
X115371Y150723D01*
X115659Y150502D01*
X116087Y150273D01*
X116423Y150134D01*
X116887Y149993D01*
X117248Y149946D01*
X117671Y149904D01*
X120171D01*
X120594Y149946D01*
X120955Y149993D01*
X121419Y150134D01*
X121755Y150273D01*
X121785Y150289D01*
X121790Y150287D01*
X122037Y150390D01*
X122767Y150950D01*
X123109Y150882D01*
X123267Y150828D01*
Y149470D01*
X123285Y149451D01*
Y147793D01*
X123267Y147774D01*
Y146416D01*
X123109Y146362D01*
X122767Y146294D01*
X122037Y146854D01*
X121790Y146957D01*
X121785Y146955D01*
X121755Y146971D01*
X121419Y147110D01*
X120955Y147251D01*
X120594Y147298D01*
X120171Y147340D01*
X117671D01*
X117248Y147298D01*
X116887Y147251D01*
X116423Y147110D01*
X116087Y146971D01*
X115659Y146742D01*
X115371Y146521D01*
X115042Y146251D01*
X114812Y145970D01*
X114809Y145970D01*
X114439Y145488D01*
X114192Y144891D01*
X113651D01*
X113403Y145488D01*
X113033Y145970D01*
X113030Y145970D01*
X112800Y146251D01*
X112471Y146521D01*
X112183Y146742D01*
X111755Y146971D01*
X111419Y147110D01*
X110955Y147251D01*
X110594Y147298D01*
X110171Y147340D01*
X107671D01*
X107248Y147298D01*
X106887Y147251D01*
X106423Y147110D01*
X106087Y146971D01*
X105659Y146742D01*
X105371Y146521D01*
X105042Y146251D01*
X104772Y145922D01*
X104551Y145634D01*
X104322Y145206D01*
X104066Y144588D01*
X103939Y143622D01*
X104066Y142656D01*
X104439Y141756D01*
X105032Y140983D01*
X105805Y140390D01*
X106705Y140017D01*
X107671Y139890D01*
X110171D01*
X111137Y140017D01*
X112037Y140390D01*
X112810Y140983D01*
X113403Y141756D01*
X113651Y142353D01*
X114192D01*
X114439Y141756D01*
X115032Y140983D01*
X115805Y140390D01*
X116705Y140017D01*
X117671Y139890D01*
X120171D01*
X121137Y140017D01*
X122037Y140390D01*
X122767Y140950D01*
X123109Y140882D01*
X123267Y140828D01*
Y136416D01*
X123109Y136363D01*
X122767Y136294D01*
X122037Y136854D01*
X121137Y137227D01*
X120171Y137354D01*
X117671D01*
X116705Y137227D01*
X115805Y136854D01*
X115032Y136261D01*
X114439Y135488D01*
X114192Y134891D01*
X113651D01*
X113403Y135488D01*
X112810Y136261D01*
X112037Y136854D01*
X111137Y137227D01*
X110171Y137354D01*
X107671D01*
X106705Y137227D01*
X105805Y136854D01*
X105032Y136261D01*
X104439Y135488D01*
X104066Y134588D01*
X103939Y133622D01*
X104066Y132656D01*
X104439Y131756D01*
X105032Y130983D01*
X105805Y130390D01*
X106705Y130017D01*
X107671Y129890D01*
X110171D01*
X111137Y130017D01*
X112037Y130390D01*
X112810Y130983D01*
X113403Y131756D01*
X113651Y132353D01*
X114192D01*
X114439Y131756D01*
X115032Y130983D01*
X115805Y130390D01*
X116705Y130017D01*
X117671Y129890D01*
X120171D01*
X121137Y130017D01*
X122037Y130390D01*
X122767Y130950D01*
X123109Y130882D01*
X123267Y130828D01*
Y117126D01*
X123399Y116463D01*
X123774Y115900D01*
X136425Y103250D01*
X136233Y102788D01*
X110503D01*
X110503D01*
X110512D01*
X110503Y102788D01*
X110064Y102788D01*
X110018D01*
X110018D01*
D01*
X109534Y102813D01*
X109529Y102813D01*
X108603Y102904D01*
X107243Y103317D01*
X105989Y103988D01*
X104950Y104840D01*
X104906Y104906D01*
X104840Y104950D01*
X103988Y105989D01*
X103317Y107243D01*
X102904Y108603D01*
X102813Y109529D01*
X102788Y110018D01*
X102788D01*
Y110018D01*
Y145363D01*
X102767Y145368D01*
Y152718D01*
X102788Y152721D01*
Y185363D01*
X102767Y185368D01*
Y192718D01*
X102788Y192721D01*
Y215363D01*
X102767Y215368D01*
Y222718D01*
X102788Y222721D01*
Y224523D01*
X102767Y224526D01*
Y231876D01*
X102788Y231881D01*
Y245363D01*
X102767Y245368D01*
Y251876D01*
X102788Y251881D01*
Y255363D01*
X102767Y255368D01*
Y261876D01*
X102788Y261881D01*
Y285363D01*
X102767Y285368D01*
Y292718D01*
X102788Y292721D01*
Y294523D01*
X102767Y294526D01*
Y301876D01*
X102788Y301881D01*
Y305363D01*
X102767Y305368D01*
Y311876D01*
X102788Y311881D01*
Y315363D01*
X102767Y315368D01*
Y321876D01*
X102788Y321881D01*
Y325363D01*
X102767Y325368D01*
Y363840D01*
X102758Y363907D01*
X102819Y364833D01*
X102903Y365255D01*
X102909Y365322D01*
X102929Y365386D01*
X103013Y365809D01*
X103333Y366751D01*
X103773Y367643D01*
X104012Y368001D01*
X104044Y368060D01*
X104086Y368112D01*
X104325Y368471D01*
X104938Y369168D01*
X104991Y369209D01*
X105027Y369256D01*
X105663Y369814D01*
X106012Y370047D01*
X106038Y370069D01*
X106067Y370084D01*
X106416Y370318D01*
X107228Y370718D01*
X108086Y371009D01*
X108441Y371080D01*
X108470Y371083D01*
X108529Y371100D01*
X109388Y371185D01*
X109469Y371189D01*
X109877Y371233D01*
X109877D01*
Y371233D01*
X109877Y371233D01*
X238472D01*
X238528Y371241D01*
X239234Y371185D01*
D02*
G37*
G36*
X309964Y259435D02*
Y255148D01*
X309502Y254957D01*
X301423Y263037D01*
X300860Y263412D01*
X300270Y263530D01*
X300135Y263735D01*
X300034Y264044D01*
X300439Y264571D01*
X300812Y265471D01*
X300939Y266437D01*
X300812Y267403D01*
X300439Y268303D01*
X300851Y268548D01*
X309964Y259435D01*
D02*
G37*
%LPC*%
G36*
X172244Y203394D02*
X171366Y203279D01*
X170547Y202940D01*
X169844Y202400D01*
X169406Y201830D01*
X169198Y201441D01*
X169072Y201135D01*
X168944Y200713D01*
X168900Y200385D01*
X168862Y200000D01*
X168900Y199615D01*
X168944Y199287D01*
X169072Y198865D01*
X169198Y198559D01*
X169406Y198170D01*
X169607Y197908D01*
X169853Y197609D01*
X170152Y197363D01*
X170414Y197162D01*
X170803Y196954D01*
X171109Y196828D01*
X171531Y196700D01*
X171859Y196656D01*
X172244Y196618D01*
X172629Y196656D01*
X172957Y196700D01*
X173379Y196828D01*
X173685Y196954D01*
X174074Y197162D01*
X174336Y197363D01*
X174635Y197609D01*
X174881Y197908D01*
X175082Y198170D01*
X175290Y198559D01*
X175417Y198865D01*
X175545Y199287D01*
X175588Y199615D01*
X175626Y200000D01*
X175588Y200385D01*
X175545Y200713D01*
X175417Y201135D01*
X175290Y201441D01*
X175082Y201830D01*
X174881Y202092D01*
X174635Y202391D01*
X174336Y202637D01*
X174074Y202838D01*
X173685Y203046D01*
X173379Y203172D01*
X172957Y203301D01*
X172244Y203394D01*
D02*
G37*
G36*
X237345Y210155D02*
X234844D01*
X234421Y210113D01*
X234061Y210066D01*
X233596Y209925D01*
X233261Y209786D01*
X232833Y209557D01*
X232544Y209336D01*
X232215Y209066D01*
X231946Y208737D01*
X231724Y208449D01*
X231496Y208021D01*
X231357Y207685D01*
X231216Y207221D01*
X231168Y206860D01*
X231127Y206437D01*
X231168Y206014D01*
X231216Y205653D01*
X231357Y205189D01*
X231496Y204853D01*
X231724Y204425D01*
X231946Y204137D01*
X232215Y203808D01*
X232544Y203538D01*
X232833Y203317D01*
X233261Y203088D01*
X233596Y202949D01*
X234061Y202808D01*
X234421Y202761D01*
X234844Y202719D01*
X237345D01*
X237768Y202761D01*
X238128Y202808D01*
X238593Y202949D01*
X238928Y203088D01*
X239356Y203317D01*
X239645Y203538D01*
X239973Y203808D01*
X240243Y204137D01*
X240464Y204425D01*
X240693Y204853D01*
X240832Y205189D01*
X240973Y205653D01*
X241021Y206014D01*
X241062Y206437D01*
X241021Y206860D01*
X240973Y207221D01*
X240832Y207685D01*
X240693Y208021D01*
X240464Y208449D01*
X240243Y208737D01*
X239973Y209066D01*
X239645Y209336D01*
X239356Y209557D01*
X238928Y209786D01*
X238593Y209925D01*
X238128Y210066D01*
X237768Y210113D01*
X237345Y210155D01*
D02*
G37*
G36*
X188976Y211890D02*
X188537Y211856D01*
X188210Y211812D01*
X187674Y211684D01*
X187064Y211431D01*
X186594Y211143D01*
X186332Y210942D01*
X185997Y210656D01*
X185711Y210321D01*
X185510Y210059D01*
X185223Y209590D01*
X185148Y209411D01*
D01*
X185141Y209392D01*
X173127D01*
X173119Y209411D01*
D01*
X173045Y209590D01*
X172757Y210059D01*
X172556Y210321D01*
X172270Y210656D01*
X171935Y210942D01*
X171674Y211143D01*
X171204Y211431D01*
X170593Y211684D01*
X170058Y211812D01*
X169730Y211856D01*
X169291Y211890D01*
X168852Y211856D01*
X168525Y211812D01*
X167990Y211684D01*
X167379Y211431D01*
X166909Y211143D01*
X166647Y210942D01*
X166312Y210656D01*
X166026Y210321D01*
X165825Y210059D01*
X165538Y209590D01*
X165285Y208979D01*
X165156Y208444D01*
X165113Y208116D01*
X165078Y207677D01*
X165113Y207238D01*
X165156Y206911D01*
X165285Y206375D01*
X165538Y205765D01*
X165825Y205295D01*
X166026Y205033D01*
X166312Y204698D01*
X166647Y204412D01*
X166909Y204211D01*
X167379Y203923D01*
X167990Y203670D01*
X168525Y203542D01*
X168852Y203499D01*
X168873Y203497D01*
X168874Y203496D01*
X169291Y203441D01*
X170388Y203585D01*
X171409Y204009D01*
X172287Y204682D01*
X172960Y205559D01*
X173119Y205944D01*
X173362D01*
X173376Y205962D01*
X185141D01*
X185148Y205944D01*
D01*
X185223Y205765D01*
X185510Y205295D01*
X185711Y205033D01*
X185997Y204698D01*
X186332Y204412D01*
X186594Y204211D01*
X187064Y203923D01*
X187674Y203670D01*
X188210Y203542D01*
X188537Y203499D01*
X188976Y203464D01*
X189416Y203499D01*
X189743Y203542D01*
X190278Y203670D01*
X190889Y203923D01*
X191358Y204211D01*
X191621Y204412D01*
X191955Y204698D01*
X192242Y205033D01*
X192443Y205295D01*
X192730Y205765D01*
X192983Y206375D01*
X193112Y206911D01*
X193155Y207238D01*
X193189Y207677D01*
X193155Y208116D01*
X193112Y208444D01*
X192983Y208979D01*
X192730Y209590D01*
X192443Y210059D01*
X192242Y210321D01*
X191955Y210656D01*
X191621Y210942D01*
X191358Y211143D01*
X190889Y211431D01*
X190278Y211684D01*
X189743Y211812D01*
X189416Y211856D01*
X188976Y211890D01*
D02*
G37*
G36*
X297207Y210155D02*
X294707D01*
X294284Y210113D01*
X293923Y210066D01*
X293459Y209925D01*
X293123Y209786D01*
X292695Y209557D01*
X292407Y209336D01*
X292078Y209066D01*
X291808Y208737D01*
X291587Y208449D01*
X291358Y208021D01*
X291219Y207685D01*
X291078Y207221D01*
X291031Y206860D01*
X290989Y206437D01*
X291031Y206014D01*
X291078Y205653D01*
X291219Y205189D01*
X291358Y204853D01*
X291587Y204425D01*
X291808Y204137D01*
X292078Y203808D01*
X292407Y203538D01*
X292695Y203317D01*
X293123Y203088D01*
X293459Y202949D01*
X293923Y202808D01*
X294284Y202761D01*
X294707Y202719D01*
X297207D01*
X297630Y202761D01*
X297990Y202808D01*
X298455Y202949D01*
X298791Y203088D01*
X299219Y203317D01*
X299507Y203538D01*
X299836Y203808D01*
X300105Y204137D01*
X300327Y204425D01*
X300555Y204853D01*
X300695Y205189D01*
X300835Y205653D01*
X300883Y206014D01*
X300925Y206437D01*
X300883Y206860D01*
X300835Y207221D01*
X300695Y207685D01*
X300555Y208021D01*
X300327Y208449D01*
X300105Y208737D01*
X299836Y209066D01*
X299507Y209336D01*
X299219Y209557D01*
X298791Y209786D01*
X298455Y209925D01*
X297990Y210066D01*
X297630Y210113D01*
X297207Y210155D01*
D02*
G37*
G36*
Y200155D02*
X294707D01*
X294284Y200113D01*
X293923Y200066D01*
X293459Y199925D01*
X293123Y199786D01*
X292695Y199557D01*
X292407Y199336D01*
X292078Y199066D01*
X291808Y198737D01*
X291587Y198449D01*
X291358Y198021D01*
X291219Y197685D01*
X291078Y197221D01*
X291031Y196860D01*
X290989Y196437D01*
X291031Y196014D01*
X291078Y195653D01*
X291219Y195189D01*
X291358Y194853D01*
X291587Y194425D01*
X291808Y194137D01*
X292078Y193808D01*
X292407Y193538D01*
X292695Y193317D01*
X293123Y193088D01*
X293459Y192949D01*
X293923Y192808D01*
X294284Y192761D01*
X294707Y192719D01*
X297207D01*
X297630Y192761D01*
X297990Y192808D01*
X298455Y192949D01*
X298791Y193088D01*
X299219Y193317D01*
X299507Y193538D01*
X299836Y193808D01*
X300105Y194137D01*
X300327Y194425D01*
X300555Y194853D01*
X300695Y195189D01*
X300835Y195653D01*
X300883Y196014D01*
X300925Y196437D01*
X300883Y196860D01*
X300835Y197221D01*
X300695Y197685D01*
X300555Y198021D01*
X300327Y198449D01*
X300105Y198737D01*
X299836Y199066D01*
X299507Y199336D01*
X299219Y199557D01*
X298791Y199786D01*
X298455Y199925D01*
X297990Y200066D01*
X297630Y200113D01*
X297207Y200155D01*
D02*
G37*
G36*
X237345D02*
X234844D01*
X234421Y200113D01*
X234061Y200066D01*
X233596Y199925D01*
X233261Y199786D01*
X232833Y199557D01*
X232544Y199336D01*
X232215Y199066D01*
X231946Y198737D01*
X231724Y198449D01*
X231496Y198021D01*
X231357Y197685D01*
X231216Y197221D01*
X231168Y196860D01*
X231127Y196437D01*
X231168Y196014D01*
X231216Y195653D01*
X231357Y195189D01*
X231496Y194853D01*
X231724Y194425D01*
X231946Y194137D01*
X232215Y193808D01*
X232544Y193538D01*
X232833Y193317D01*
X233261Y193088D01*
X233596Y192949D01*
X234061Y192808D01*
X234421Y192761D01*
X234844Y192719D01*
X237345D01*
X237768Y192761D01*
X238128Y192808D01*
X238593Y192949D01*
X238928Y193088D01*
X239356Y193317D01*
X239645Y193538D01*
X239973Y193808D01*
X240243Y194137D01*
X240464Y194425D01*
X240693Y194853D01*
X240832Y195189D01*
X240973Y195653D01*
X241021Y196014D01*
X241062Y196437D01*
X241021Y196860D01*
X240973Y197221D01*
X240832Y197685D01*
X240693Y198021D01*
X240464Y198449D01*
X240243Y198737D01*
X239973Y199066D01*
X239645Y199336D01*
X239356Y199557D01*
X238928Y199786D01*
X238593Y199925D01*
X238128Y200066D01*
X237768Y200113D01*
X237345Y200155D01*
D02*
G37*
G36*
X108321Y197152D02*
X107671D01*
X106757Y197032D01*
X105906Y196679D01*
X105175Y196118D01*
X104614Y195387D01*
X104261Y194536D01*
X104220Y194222D01*
X108321D01*
Y197152D01*
D02*
G37*
G36*
Y193022D02*
X104220D01*
X104239Y192881D01*
X104372Y192441D01*
X104504Y192124D01*
X104720Y191719D01*
X104929Y191446D01*
X105184Y191135D01*
X105495Y190880D01*
X105768Y190671D01*
X106173Y190454D01*
X106491Y190323D01*
X106930Y190189D01*
X107271Y190145D01*
X107671Y190105D01*
X108321D01*
Y193022D01*
D02*
G37*
G36*
X297207Y240155D02*
X294707D01*
X294284Y240113D01*
X293923Y240066D01*
X293459Y239925D01*
X293123Y239786D01*
X292695Y239557D01*
X292407Y239336D01*
X292078Y239066D01*
X291808Y238737D01*
X291587Y238449D01*
X291358Y238021D01*
X291219Y237685D01*
X291078Y237221D01*
X291031Y236860D01*
X290989Y236437D01*
X291031Y236014D01*
X291078Y235653D01*
X291219Y235189D01*
X291358Y234853D01*
X291587Y234425D01*
X291808Y234137D01*
X292078Y233808D01*
X292407Y233538D01*
X292695Y233317D01*
X293123Y233088D01*
X293459Y232949D01*
X293923Y232808D01*
X294284Y232761D01*
X294707Y232719D01*
X297207D01*
X297630Y232761D01*
X297990Y232808D01*
X298455Y232949D01*
X298791Y233088D01*
X299219Y233317D01*
X299507Y233538D01*
X299836Y233808D01*
X300105Y234137D01*
X300327Y234425D01*
X300555Y234853D01*
X300695Y235189D01*
X300835Y235653D01*
X300883Y236014D01*
X300925Y236437D01*
X300883Y236860D01*
X300835Y237221D01*
X300695Y237685D01*
X300555Y238021D01*
X300327Y238449D01*
X300105Y238737D01*
X299836Y239066D01*
X299507Y239336D01*
X299219Y239557D01*
X298791Y239786D01*
X298455Y239925D01*
X297990Y240066D01*
X297630Y240113D01*
X297207Y240155D01*
D02*
G37*
G36*
X237345D02*
X234844D01*
X234421Y240113D01*
X234061Y240066D01*
X233596Y239925D01*
X233261Y239786D01*
X232833Y239557D01*
X232544Y239336D01*
X232215Y239066D01*
X231946Y238737D01*
X231724Y238449D01*
X231496Y238021D01*
X231357Y237685D01*
X231216Y237221D01*
X231168Y236860D01*
X231127Y236437D01*
X231168Y236014D01*
X231216Y235653D01*
X231357Y235189D01*
X231496Y234853D01*
X231724Y234425D01*
X231946Y234137D01*
X232215Y233808D01*
X232544Y233538D01*
X232833Y233317D01*
X233261Y233088D01*
X233596Y232949D01*
X234061Y232808D01*
X234421Y232761D01*
X234844Y232719D01*
X237345D01*
X237768Y232761D01*
X238128Y232808D01*
X238593Y232949D01*
X238928Y233088D01*
X239356Y233317D01*
X239645Y233538D01*
X239973Y233808D01*
X240243Y234137D01*
X240464Y234425D01*
X240693Y234853D01*
X240832Y235189D01*
X240973Y235653D01*
X241021Y236014D01*
X241062Y236437D01*
X241021Y236860D01*
X240973Y237221D01*
X240832Y237685D01*
X240693Y238021D01*
X240464Y238449D01*
X240243Y238737D01*
X239973Y239066D01*
X239645Y239336D01*
X239356Y239557D01*
X238928Y239786D01*
X238593Y239925D01*
X238128Y240066D01*
X237768Y240113D01*
X237345Y240155D01*
D02*
G37*
G36*
Y250155D02*
X234844D01*
X234421Y250113D01*
X234061Y250066D01*
X233596Y249925D01*
X233261Y249786D01*
X232833Y249557D01*
X232544Y249336D01*
X232215Y249066D01*
X231946Y248737D01*
X231724Y248449D01*
X231496Y248021D01*
X231357Y247685D01*
X231216Y247221D01*
X231168Y246860D01*
X231127Y246437D01*
X231168Y246014D01*
X231216Y245653D01*
X231357Y245189D01*
X231496Y244853D01*
X231724Y244425D01*
X231946Y244137D01*
X232215Y243808D01*
X232544Y243538D01*
X232833Y243317D01*
X233261Y243088D01*
X233596Y242949D01*
X234061Y242808D01*
X234421Y242761D01*
X234844Y242719D01*
X237345D01*
X237768Y242761D01*
X238128Y242808D01*
X238593Y242949D01*
X238928Y243088D01*
X239356Y243317D01*
X239645Y243538D01*
X239973Y243808D01*
X240243Y244137D01*
X240464Y244425D01*
X240693Y244853D01*
X240832Y245189D01*
X240973Y245653D01*
X241021Y246014D01*
X241062Y246437D01*
X241021Y246860D01*
X240973Y247221D01*
X240832Y247685D01*
X240693Y248021D01*
X240464Y248449D01*
X240243Y248737D01*
X239973Y249066D01*
X239645Y249336D01*
X239356Y249557D01*
X238928Y249786D01*
X238593Y249925D01*
X238128Y250066D01*
X237768Y250113D01*
X237345Y250155D01*
D02*
G37*
G36*
X110171Y257340D02*
X107671D01*
X107248Y257298D01*
X106887Y257251D01*
X106423Y257110D01*
X106087Y256971D01*
X105659Y256742D01*
X105371Y256521D01*
X105042Y256251D01*
X104772Y255922D01*
X104551Y255634D01*
X104322Y255206D01*
X104066Y254588D01*
X103939Y253622D01*
X104066Y252656D01*
X104322Y252038D01*
X104551Y251610D01*
X104772Y251322D01*
X105042Y250993D01*
X105371Y250723D01*
X105659Y250502D01*
X106087Y250273D01*
X106423Y250134D01*
X106887Y249993D01*
X107248Y249946D01*
X107671Y249904D01*
X110171D01*
X110594Y249946D01*
X110955Y249993D01*
X111419Y250134D01*
X111755Y250273D01*
X112183Y250502D01*
X112471Y250723D01*
X112800Y250993D01*
X113070Y251322D01*
X113403Y251756D01*
X113776Y252656D01*
X114175Y252699D01*
X114281Y252661D01*
X114614Y251857D01*
X114929Y251446D01*
X115184Y251135D01*
X115495Y250880D01*
X115768Y250671D01*
X116173Y250454D01*
X116491Y250323D01*
X116930Y250189D01*
X117271Y250145D01*
X117671Y250105D01*
X118321D01*
Y253622D01*
Y257139D01*
X117671D01*
X117271Y257100D01*
X116930Y257055D01*
X116491Y256921D01*
X116173Y256790D01*
X115768Y256574D01*
X115495Y256364D01*
X115184Y256109D01*
X114929Y255798D01*
X114614Y255387D01*
X114281Y254583D01*
X114175Y254545D01*
X113776Y254588D01*
X113403Y255488D01*
X113070Y255922D01*
X112800Y256251D01*
X112471Y256521D01*
X112183Y256742D01*
X111755Y256971D01*
X111419Y257110D01*
X110955Y257251D01*
X110594Y257298D01*
X110171Y257340D01*
D02*
G37*
G36*
X297207Y250155D02*
X294707D01*
X294284Y250113D01*
X293923Y250066D01*
X293459Y249925D01*
X293123Y249786D01*
X292695Y249557D01*
X292407Y249336D01*
X292078Y249066D01*
X291808Y248737D01*
X291587Y248449D01*
X291358Y248021D01*
X291219Y247685D01*
X291078Y247221D01*
X291031Y246860D01*
X290989Y246437D01*
X291031Y246014D01*
X291078Y245653D01*
X291219Y245189D01*
X291358Y244853D01*
X291587Y244425D01*
X291808Y244137D01*
X292078Y243808D01*
X292407Y243538D01*
X292695Y243317D01*
X293123Y243088D01*
X293459Y242949D01*
X293923Y242808D01*
X294284Y242761D01*
X294707Y242719D01*
X297207D01*
X297630Y242761D01*
X297990Y242808D01*
X298455Y242949D01*
X298791Y243088D01*
X299219Y243317D01*
X299507Y243538D01*
X299836Y243808D01*
X300105Y244137D01*
X300327Y244425D01*
X300555Y244853D01*
X300695Y245189D01*
X300835Y245653D01*
X300883Y246014D01*
X300925Y246437D01*
X300883Y246860D01*
X300835Y247221D01*
X300695Y247685D01*
X300555Y248021D01*
X300327Y248449D01*
X300105Y248737D01*
X299836Y249066D01*
X299507Y249336D01*
X299219Y249557D01*
X298791Y249786D01*
X298455Y249925D01*
X297990Y250066D01*
X297630Y250113D01*
X297207Y250155D01*
D02*
G37*
G36*
X108321Y227139D02*
X107671D01*
X107271Y227099D01*
X106930Y227055D01*
X106491Y226921D01*
X106173Y226790D01*
X105768Y226573D01*
X105495Y226364D01*
X105184Y226109D01*
X104929Y225798D01*
X104720Y225525D01*
X104504Y225120D01*
X104372Y224802D01*
X104239Y224363D01*
X104220Y224222D01*
X108321D01*
Y227139D01*
D02*
G37*
G36*
X297207Y220155D02*
X294707D01*
X294284Y220113D01*
X293923Y220066D01*
X293459Y219925D01*
X293123Y219786D01*
X292695Y219557D01*
X292407Y219336D01*
X292078Y219066D01*
X291808Y218737D01*
X291587Y218449D01*
X291358Y218021D01*
X291219Y217685D01*
X291078Y217221D01*
X291031Y216860D01*
X290989Y216437D01*
X291031Y216014D01*
X291078Y215653D01*
X291219Y215189D01*
X291358Y214853D01*
X291587Y214425D01*
X291808Y214137D01*
X292078Y213808D01*
X292407Y213538D01*
X292695Y213317D01*
X293123Y213088D01*
X293459Y212949D01*
X293923Y212808D01*
X294284Y212761D01*
X294707Y212719D01*
X297207D01*
X297630Y212761D01*
X297990Y212808D01*
X298455Y212949D01*
X298791Y213088D01*
X299219Y213317D01*
X299507Y213538D01*
X299836Y213808D01*
X300105Y214137D01*
X300327Y214425D01*
X300555Y214853D01*
X300695Y215189D01*
X300835Y215653D01*
X300883Y216014D01*
X300925Y216437D01*
X300883Y216860D01*
X300835Y217221D01*
X300695Y217685D01*
X300555Y218021D01*
X300327Y218449D01*
X300105Y218737D01*
X299836Y219066D01*
X299507Y219336D01*
X299219Y219557D01*
X298791Y219786D01*
X298455Y219925D01*
X297990Y220066D01*
X297630Y220113D01*
X297207Y220155D01*
D02*
G37*
G36*
X237345D02*
X234844D01*
X234421Y220113D01*
X234061Y220066D01*
X233596Y219925D01*
X233261Y219786D01*
X232833Y219557D01*
X232544Y219336D01*
X232215Y219066D01*
X231946Y218737D01*
X231724Y218449D01*
X231496Y218021D01*
X231357Y217685D01*
X231216Y217221D01*
X231168Y216860D01*
X231127Y216437D01*
X231168Y216014D01*
X231216Y215653D01*
X231357Y215189D01*
X231496Y214853D01*
X231724Y214425D01*
X231946Y214137D01*
X232215Y213808D01*
X232544Y213538D01*
X232833Y213317D01*
X233261Y213088D01*
X233596Y212949D01*
X234061Y212808D01*
X234421Y212761D01*
X234844Y212719D01*
X237345D01*
X237768Y212761D01*
X238128Y212808D01*
X238593Y212949D01*
X238928Y213088D01*
X239356Y213317D01*
X239645Y213538D01*
X239973Y213808D01*
X240243Y214137D01*
X240464Y214425D01*
X240693Y214853D01*
X240832Y215189D01*
X240973Y215653D01*
X241021Y216014D01*
X241062Y216437D01*
X241021Y216860D01*
X240973Y217221D01*
X240832Y217685D01*
X240693Y218021D01*
X240464Y218449D01*
X240243Y218737D01*
X239973Y219066D01*
X239645Y219336D01*
X239356Y219557D01*
X238928Y219786D01*
X238593Y219925D01*
X238128Y220066D01*
X237768Y220113D01*
X237345Y220155D01*
D02*
G37*
G36*
X108321Y223022D02*
X104220D01*
X104239Y222881D01*
X104372Y222442D01*
X104504Y222124D01*
X104720Y221719D01*
X104929Y221446D01*
X105184Y221135D01*
X105495Y220880D01*
X105768Y220671D01*
X106173Y220454D01*
X106491Y220323D01*
X106930Y220189D01*
X107271Y220145D01*
X107671Y220105D01*
X108321D01*
Y223022D01*
D02*
G37*
G36*
X297207Y230155D02*
X294707D01*
X294284Y230113D01*
X293923Y230066D01*
X293459Y229925D01*
X293123Y229786D01*
X292695Y229557D01*
X292407Y229336D01*
X292078Y229066D01*
X291808Y228737D01*
X291587Y228449D01*
X291358Y228021D01*
X291219Y227685D01*
X291078Y227221D01*
X291031Y226860D01*
X290989Y226437D01*
X291031Y226014D01*
X291078Y225653D01*
X291219Y225189D01*
X291358Y224853D01*
X291587Y224425D01*
X291808Y224137D01*
X292078Y223808D01*
X292407Y223538D01*
X292695Y223317D01*
X293123Y223088D01*
X293459Y222949D01*
X293923Y222808D01*
X294284Y222761D01*
X294707Y222719D01*
X297207D01*
X297630Y222761D01*
X297990Y222808D01*
X298455Y222949D01*
X298791Y223088D01*
X299219Y223317D01*
X299507Y223538D01*
X299836Y223808D01*
X300105Y224137D01*
X300327Y224425D01*
X300555Y224853D01*
X300695Y225189D01*
X300835Y225653D01*
X300883Y226014D01*
X300925Y226437D01*
X300883Y226860D01*
X300835Y227221D01*
X300695Y227685D01*
X300555Y228021D01*
X300327Y228449D01*
X300105Y228737D01*
X299836Y229066D01*
X299507Y229336D01*
X299219Y229557D01*
X298791Y229786D01*
X298455Y229925D01*
X297990Y230066D01*
X297630Y230113D01*
X297207Y230155D01*
D02*
G37*
G36*
X237345D02*
X234844D01*
X234421Y230113D01*
X234061Y230066D01*
X233596Y229925D01*
X233261Y229786D01*
X232833Y229557D01*
X232544Y229336D01*
X232215Y229066D01*
X231946Y228737D01*
X231724Y228449D01*
X231496Y228021D01*
X231357Y227685D01*
X231216Y227221D01*
X231168Y226860D01*
X231127Y226437D01*
X231168Y226014D01*
X231216Y225653D01*
X231357Y225189D01*
X231496Y224853D01*
X231724Y224425D01*
X231946Y224137D01*
X232215Y223808D01*
X232544Y223538D01*
X232833Y223317D01*
X233261Y223088D01*
X233596Y222949D01*
X234061Y222808D01*
X234421Y222761D01*
X234844Y222719D01*
X237345D01*
X237768Y222761D01*
X238128Y222808D01*
X238593Y222949D01*
X238928Y223088D01*
X239356Y223317D01*
X239645Y223538D01*
X239973Y223808D01*
X240243Y224137D01*
X240464Y224425D01*
X240693Y224853D01*
X240832Y225189D01*
X240973Y225653D01*
X241021Y226014D01*
X241062Y226437D01*
X241021Y226860D01*
X240973Y227221D01*
X240832Y227685D01*
X240693Y228021D01*
X240464Y228449D01*
X240243Y228737D01*
X239973Y229066D01*
X239645Y229336D01*
X239356Y229557D01*
X238928Y229786D01*
X238593Y229925D01*
X238128Y230066D01*
X237768Y230113D01*
X237345Y230155D01*
D02*
G37*
G36*
X206093Y136829D02*
X205846Y136797D01*
X205344Y136645D01*
X204981Y136494D01*
X204518Y136247D01*
X204206Y136008D01*
X203851Y135716D01*
X203559Y135361D01*
X203320Y135049D01*
X203073Y134586D01*
X202922Y134223D01*
X202770Y133721D01*
X202737Y133474D01*
X206093D01*
Y136829D01*
D02*
G37*
G36*
X240796Y135837D02*
X236695D01*
Y132920D01*
X237345D01*
X237744Y132959D01*
X238086Y133004D01*
X238525Y133138D01*
X238843Y133269D01*
X239247Y133485D01*
X239521Y133695D01*
X239831Y133950D01*
X240086Y134261D01*
X240296Y134534D01*
X240512Y134939D01*
X240644Y135257D01*
X240777Y135696D01*
X240796Y135837D01*
D02*
G37*
G36*
X235494D02*
X231393D01*
X231412Y135696D01*
X231545Y135257D01*
X231677Y134939D01*
X231893Y134534D01*
X232103Y134261D01*
X232358Y133950D01*
X232668Y133695D01*
X232942Y133485D01*
X233346Y133269D01*
X233664Y133138D01*
X234103Y133004D01*
X234445Y132959D01*
X234844Y132920D01*
X235494D01*
Y135837D01*
D02*
G37*
G36*
X237345Y139954D02*
X236695D01*
Y137037D01*
X240796D01*
X240777Y137178D01*
X240644Y137618D01*
X240512Y137935D01*
X240296Y138340D01*
X240086Y138613D01*
X239831Y138924D01*
X239521Y139179D01*
X239247Y139389D01*
X238843Y139605D01*
X238525Y139736D01*
X238086Y139870D01*
X237744Y139915D01*
X237345Y139954D01*
D02*
G37*
G36*
X235494D02*
X234844D01*
X234445Y139915D01*
X234103Y139870D01*
X233664Y139736D01*
X233346Y139605D01*
X232942Y139389D01*
X232668Y139179D01*
X232358Y138924D01*
X232103Y138613D01*
X231893Y138340D01*
X231677Y137935D01*
X231545Y137618D01*
X231412Y137178D01*
X231393Y137037D01*
X235494D01*
Y139954D01*
D02*
G37*
G36*
X207293Y136829D02*
Y133474D01*
X210648D01*
X210616Y133721D01*
X210464Y134223D01*
X210313Y134586D01*
X210066Y135049D01*
X209827Y135361D01*
X209535Y135716D01*
X209180Y136008D01*
X208868Y136247D01*
X208405Y136494D01*
X208042Y136645D01*
X207540Y136797D01*
X207293Y136829D01*
D02*
G37*
G36*
X149625Y127353D02*
X146269D01*
Y123997D01*
X146517Y124030D01*
X147019Y124182D01*
X147381Y124332D01*
X147844Y124580D01*
X148156Y124819D01*
X148511Y125111D01*
X148803Y125466D01*
X149042Y125778D01*
X149290Y126241D01*
X149440Y126603D01*
X149592Y127105D01*
X149625Y127353D01*
D02*
G37*
G36*
X237345Y130155D02*
X234844D01*
X234421Y130113D01*
X234061Y130066D01*
X233596Y129925D01*
X233261Y129786D01*
X232833Y129557D01*
X232544Y129336D01*
X232215Y129066D01*
X231946Y128737D01*
X231724Y128449D01*
X231496Y128021D01*
X231357Y127685D01*
X231216Y127221D01*
X231168Y126860D01*
X231127Y126437D01*
X231168Y126014D01*
X231216Y125653D01*
X231357Y125189D01*
X231496Y124853D01*
X231724Y124425D01*
X231946Y124137D01*
X232215Y123808D01*
X232544Y123538D01*
X232833Y123317D01*
X233261Y123088D01*
X233596Y122949D01*
X234061Y122808D01*
X234844Y122705D01*
X237345D01*
X238128Y122808D01*
X238593Y122949D01*
X238928Y123088D01*
X239356Y123317D01*
X239645Y123538D01*
X239973Y123808D01*
X240243Y124137D01*
X240464Y124425D01*
X240693Y124853D01*
X240832Y125189D01*
X240973Y125653D01*
X241021Y126014D01*
X241062Y126437D01*
X241021Y126860D01*
X240973Y127221D01*
X240832Y127685D01*
X240693Y128021D01*
X240464Y128449D01*
X240243Y128737D01*
X239973Y129066D01*
X239645Y129336D01*
X239356Y129557D01*
X238928Y129786D01*
X238593Y129925D01*
X238128Y130066D01*
X237768Y130113D01*
X237345Y130155D01*
D02*
G37*
G36*
X114614Y117615D02*
X113736Y117499D01*
X112917Y117160D01*
X112214Y116621D01*
X111674Y115918D01*
X111335Y115099D01*
X111220Y114220D01*
X111335Y113342D01*
X111674Y112523D01*
X112214Y111820D01*
X112917Y111281D01*
X113736Y110942D01*
X114614Y110826D01*
X115493Y110942D01*
X116311Y111281D01*
X117014Y111820D01*
X117554Y112523D01*
X117893Y113342D01*
X118009Y114220D01*
X117893Y115099D01*
X117554Y115918D01*
X117014Y116621D01*
X116311Y117160D01*
X115493Y117499D01*
X114614Y117615D01*
D02*
G37*
G36*
X210648Y132274D02*
X207293D01*
Y128919D01*
X207540Y128951D01*
X208042Y129103D01*
X208405Y129254D01*
X208868Y129501D01*
X209180Y129740D01*
X209535Y130032D01*
X209827Y130387D01*
X210066Y130699D01*
X210313Y131162D01*
X210464Y131525D01*
X210616Y132027D01*
X210648Y132274D01*
D02*
G37*
G36*
X206093D02*
X202737D01*
X202770Y132027D01*
X202922Y131525D01*
X203073Y131162D01*
X203320Y130699D01*
X203559Y130387D01*
X203851Y130032D01*
X204206Y129740D01*
X204518Y129501D01*
X204981Y129254D01*
X205344Y129103D01*
X205846Y128951D01*
X206093Y128919D01*
Y132274D01*
D02*
G37*
G36*
X146269Y131908D02*
Y128553D01*
X149625D01*
X149592Y128800D01*
X149440Y129302D01*
X149290Y129665D01*
X149042Y130128D01*
X148803Y130439D01*
X148511Y130795D01*
X148156Y131087D01*
X147844Y131326D01*
X147381Y131573D01*
X147019Y131723D01*
X146517Y131876D01*
X146269Y131908D01*
D02*
G37*
G36*
X237345Y170155D02*
X234844D01*
X234421Y170113D01*
X234061Y170066D01*
X233596Y169925D01*
X233261Y169786D01*
X232833Y169557D01*
X232544Y169336D01*
X232215Y169066D01*
X231946Y168737D01*
X231724Y168449D01*
X231496Y168021D01*
X231357Y167685D01*
X231216Y167221D01*
X231168Y166860D01*
X231127Y166437D01*
X231168Y166014D01*
X231216Y165653D01*
X231357Y165189D01*
X231496Y164853D01*
X231724Y164425D01*
X231946Y164137D01*
X232215Y163808D01*
X232544Y163538D01*
X232833Y163317D01*
X233261Y163088D01*
X233596Y162949D01*
X234061Y162808D01*
X234421Y162761D01*
X234844Y162719D01*
X237345D01*
X237768Y162761D01*
X238128Y162808D01*
X238593Y162949D01*
X238928Y163088D01*
X239356Y163317D01*
X239645Y163538D01*
X239973Y163808D01*
X240243Y164137D01*
X240464Y164425D01*
X240693Y164853D01*
X240832Y165189D01*
X240973Y165653D01*
X241021Y166014D01*
X241062Y166437D01*
X241021Y166860D01*
X240973Y167221D01*
X240832Y167685D01*
X240693Y168021D01*
X240464Y168449D01*
X240243Y168737D01*
X239973Y169066D01*
X239645Y169336D01*
X239356Y169557D01*
X238928Y169786D01*
X238593Y169925D01*
X238128Y170066D01*
X237768Y170113D01*
X237345Y170155D01*
D02*
G37*
G36*
X158080Y161436D02*
Y158080D01*
X161436D01*
X161403Y158327D01*
X161251Y158830D01*
X161101Y159193D01*
X160853Y159655D01*
X160614Y159967D01*
X160322Y160322D01*
X159967Y160614D01*
X159655Y160853D01*
X159193Y161101D01*
X158830Y161251D01*
X158327Y161403D01*
X158080Y161436D01*
D02*
G37*
G36*
X108321Y157152D02*
X107671D01*
X106757Y157032D01*
X105906Y156679D01*
X105175Y156118D01*
X104614Y155387D01*
X104261Y154536D01*
X104220Y154222D01*
X108321D01*
Y157152D01*
D02*
G37*
G36*
X237345Y190155D02*
X234844D01*
X234421Y190113D01*
X234061Y190066D01*
X233596Y189925D01*
X233261Y189786D01*
X232833Y189557D01*
X232544Y189336D01*
X232215Y189066D01*
X231946Y188737D01*
X231724Y188449D01*
X231496Y188021D01*
X231357Y187685D01*
X231216Y187221D01*
X231168Y186860D01*
X231127Y186437D01*
X231168Y186014D01*
X231216Y185653D01*
X231357Y185189D01*
X231496Y184853D01*
X231724Y184425D01*
X231946Y184137D01*
X232215Y183808D01*
X232544Y183538D01*
X232833Y183317D01*
X233261Y183088D01*
X233596Y182949D01*
X234061Y182808D01*
X234421Y182761D01*
X234844Y182719D01*
X237345D01*
X237768Y182761D01*
X238128Y182808D01*
X238593Y182949D01*
X238928Y183088D01*
X239356Y183317D01*
X239645Y183538D01*
X239973Y183808D01*
X240243Y184137D01*
X240464Y184425D01*
X240693Y184853D01*
X240832Y185189D01*
X240973Y185653D01*
X241021Y186014D01*
X241062Y186437D01*
X241021Y186860D01*
X240973Y187221D01*
X240832Y187685D01*
X240693Y188021D01*
X240464Y188449D01*
X240243Y188737D01*
X239973Y189066D01*
X239645Y189336D01*
X239356Y189557D01*
X238928Y189786D01*
X238593Y189925D01*
X238128Y190066D01*
X237768Y190113D01*
X237345Y190155D01*
D02*
G37*
G36*
Y180155D02*
X234844D01*
X234421Y180113D01*
X234061Y180066D01*
X233596Y179925D01*
X233261Y179786D01*
X232833Y179557D01*
X232544Y179336D01*
X232215Y179066D01*
X231946Y178737D01*
X231724Y178449D01*
X231496Y178021D01*
X231357Y177685D01*
X231216Y177221D01*
X231168Y176860D01*
X231127Y176437D01*
X231168Y176014D01*
X231216Y175653D01*
X231357Y175189D01*
X231496Y174853D01*
X231724Y174425D01*
X231946Y174137D01*
X232215Y173808D01*
X232544Y173538D01*
X232833Y173317D01*
X233261Y173088D01*
X233596Y172949D01*
X234061Y172808D01*
X234421Y172761D01*
X234844Y172719D01*
X237345D01*
X237768Y172761D01*
X238128Y172808D01*
X238593Y172949D01*
X238928Y173088D01*
X239356Y173317D01*
X239645Y173538D01*
X239973Y173808D01*
X240243Y174137D01*
X240464Y174425D01*
X240693Y174853D01*
X240832Y175189D01*
X240973Y175653D01*
X241021Y176014D01*
X241062Y176437D01*
X241021Y176860D01*
X240973Y177221D01*
X240832Y177685D01*
X240693Y178021D01*
X240464Y178449D01*
X240243Y178737D01*
X239973Y179066D01*
X239645Y179336D01*
X239356Y179557D01*
X238928Y179786D01*
X238593Y179925D01*
X238128Y180066D01*
X237768Y180113D01*
X237345Y180155D01*
D02*
G37*
G36*
X172244Y176610D02*
X171859Y176572D01*
X171531Y176529D01*
X171109Y176401D01*
X170803Y176274D01*
X170414Y176066D01*
X170152Y175865D01*
X169853Y175619D01*
X169607Y175320D01*
X169406Y175058D01*
X169198Y174669D01*
X169072Y174364D01*
X168944Y173941D01*
X168900Y173613D01*
X168862Y173228D01*
X168900Y172844D01*
X168944Y172516D01*
X169072Y172093D01*
X169198Y171788D01*
X169406Y171398D01*
X169607Y171136D01*
X169853Y170837D01*
X170152Y170592D01*
X170414Y170390D01*
X170803Y170182D01*
X171109Y170056D01*
X171531Y169928D01*
X171859Y169885D01*
X172244Y169847D01*
X172629Y169885D01*
X172957Y169928D01*
X173379Y170056D01*
X173685Y170182D01*
X174074Y170390D01*
X174336Y170592D01*
X174635Y170837D01*
X174881Y171136D01*
X175082Y171398D01*
X175290Y171788D01*
X175417Y172093D01*
X175545Y172516D01*
X175588Y172844D01*
X175626Y173228D01*
X175588Y173613D01*
X175545Y173941D01*
X175417Y174364D01*
X175290Y174669D01*
X175082Y175058D01*
X174881Y175320D01*
X174635Y175619D01*
X174336Y175865D01*
X174074Y176066D01*
X173685Y176274D01*
X173379Y176401D01*
X172957Y176529D01*
X172629Y176572D01*
X172244Y176610D01*
D02*
G37*
G36*
X108321Y153022D02*
X104220D01*
X104239Y152881D01*
X104372Y152442D01*
X104504Y152124D01*
X104720Y151719D01*
X104929Y151446D01*
X105184Y151135D01*
X105495Y150880D01*
X105768Y150671D01*
X106173Y150454D01*
X106491Y150323D01*
X106930Y150189D01*
X107271Y150145D01*
X107671Y150105D01*
X108321D01*
Y153022D01*
D02*
G37*
G36*
X297207Y150155D02*
X294707D01*
X294284Y150113D01*
X293923Y150066D01*
X293459Y149925D01*
X293123Y149786D01*
X292695Y149557D01*
X292407Y149336D01*
X292078Y149066D01*
X291808Y148737D01*
X291587Y148449D01*
X291358Y148021D01*
X291219Y147685D01*
X291078Y147221D01*
X291031Y146860D01*
X290989Y146437D01*
X291031Y146014D01*
X291078Y145653D01*
X291219Y145189D01*
X291358Y144853D01*
X291587Y144425D01*
X291808Y144137D01*
X292078Y143808D01*
X292407Y143538D01*
X292695Y143317D01*
X293123Y143088D01*
X293459Y142949D01*
X293923Y142808D01*
X294284Y142761D01*
X294707Y142719D01*
X297207D01*
X297630Y142761D01*
X297990Y142808D01*
X298455Y142949D01*
X298791Y143088D01*
X299219Y143317D01*
X299507Y143538D01*
X299836Y143808D01*
X300105Y144137D01*
X300327Y144425D01*
X300555Y144853D01*
X300695Y145189D01*
X300835Y145653D01*
X300883Y146014D01*
X300925Y146437D01*
X300883Y146860D01*
X300835Y147221D01*
X300695Y147685D01*
X300555Y148021D01*
X300327Y148449D01*
X300105Y148737D01*
X299836Y149066D01*
X299507Y149336D01*
X299219Y149557D01*
X298791Y149786D01*
X298455Y149925D01*
X297990Y150066D01*
X297630Y150113D01*
X297207Y150155D01*
D02*
G37*
G36*
X237345D02*
X234844D01*
X234421Y150113D01*
X234061Y150066D01*
X233596Y149925D01*
X233261Y149786D01*
X232833Y149557D01*
X232544Y149336D01*
X232215Y149066D01*
X231946Y148737D01*
X231724Y148449D01*
X231496Y148021D01*
X231357Y147685D01*
X231216Y147221D01*
X231168Y146860D01*
X231127Y146437D01*
X231168Y146014D01*
X231216Y145653D01*
X231357Y145189D01*
X231496Y144853D01*
X231724Y144425D01*
X231946Y144137D01*
X232215Y143808D01*
X232544Y143538D01*
X232833Y143317D01*
X233261Y143088D01*
X233596Y142949D01*
X234061Y142808D01*
X234421Y142761D01*
X234844Y142719D01*
X237345D01*
X237768Y142761D01*
X238128Y142808D01*
X238593Y142949D01*
X238928Y143088D01*
X239356Y143317D01*
X239645Y143538D01*
X239973Y143808D01*
X240243Y144137D01*
X240464Y144425D01*
X240693Y144853D01*
X240832Y145189D01*
X240973Y145653D01*
X241021Y146014D01*
X241062Y146437D01*
X241021Y146860D01*
X240973Y147221D01*
X240832Y147685D01*
X240693Y148021D01*
X240464Y148449D01*
X240243Y148737D01*
X239973Y149066D01*
X239645Y149336D01*
X239356Y149557D01*
X238928Y149786D01*
X238593Y149925D01*
X238128Y150066D01*
X237768Y150113D01*
X237345Y150155D01*
D02*
G37*
G36*
X161436Y156880D02*
X158080D01*
Y153525D01*
X158327Y153557D01*
X158830Y153710D01*
X159193Y153860D01*
X159655Y154107D01*
X159967Y154347D01*
X160322Y154638D01*
X160614Y154994D01*
X160853Y155305D01*
X161101Y155768D01*
X161251Y156131D01*
X161403Y156633D01*
X161436Y156880D01*
D02*
G37*
G36*
X297207Y160155D02*
X294707D01*
X294284Y160113D01*
X293923Y160066D01*
X293459Y159925D01*
X293123Y159786D01*
X292695Y159557D01*
X292407Y159336D01*
X292078Y159066D01*
X291808Y158737D01*
X291587Y158449D01*
X291358Y158021D01*
X291219Y157685D01*
X291078Y157221D01*
X291031Y156860D01*
X290989Y156437D01*
X291031Y156014D01*
X291078Y155653D01*
X291219Y155189D01*
X291358Y154853D01*
X291587Y154425D01*
X291808Y154137D01*
X292078Y153808D01*
X292407Y153538D01*
X292695Y153317D01*
X293123Y153088D01*
X293459Y152949D01*
X293923Y152808D01*
X294284Y152761D01*
X294707Y152719D01*
X297207D01*
X297630Y152761D01*
X297990Y152808D01*
X298455Y152949D01*
X298791Y153088D01*
X299219Y153317D01*
X299507Y153538D01*
X299836Y153808D01*
X300105Y154137D01*
X300327Y154425D01*
X300555Y154853D01*
X300695Y155189D01*
X300835Y155653D01*
X300883Y156014D01*
X300925Y156437D01*
X300883Y156860D01*
X300835Y157221D01*
X300695Y157685D01*
X300555Y158021D01*
X300327Y158449D01*
X300105Y158737D01*
X299836Y159066D01*
X299507Y159336D01*
X299219Y159557D01*
X298791Y159786D01*
X298455Y159925D01*
X297990Y160066D01*
X297630Y160113D01*
X297207Y160155D01*
D02*
G37*
G36*
X237345D02*
X234844D01*
X234421Y160113D01*
X234061Y160066D01*
X233596Y159925D01*
X233261Y159786D01*
X232833Y159557D01*
X232544Y159336D01*
X232215Y159066D01*
X231946Y158737D01*
X231724Y158449D01*
X231496Y158021D01*
X231357Y157685D01*
X231216Y157221D01*
X231168Y156860D01*
X231127Y156437D01*
X231168Y156014D01*
X231216Y155653D01*
X231357Y155189D01*
X231496Y154853D01*
X231724Y154425D01*
X231946Y154137D01*
X232215Y153808D01*
X232544Y153538D01*
X232833Y153317D01*
X233261Y153088D01*
X233596Y152949D01*
X234061Y152808D01*
X234421Y152761D01*
X234844Y152719D01*
X237345D01*
X237768Y152761D01*
X238128Y152808D01*
X238593Y152949D01*
X238928Y153088D01*
X239356Y153317D01*
X239645Y153538D01*
X239973Y153808D01*
X240243Y154137D01*
X240464Y154425D01*
X240693Y154853D01*
X240832Y155189D01*
X240973Y155653D01*
X241021Y156014D01*
X241062Y156437D01*
X241021Y156860D01*
X240973Y157221D01*
X240832Y157685D01*
X240693Y158021D01*
X240464Y158449D01*
X240243Y158737D01*
X239973Y159066D01*
X239645Y159336D01*
X239356Y159557D01*
X238928Y159786D01*
X238593Y159925D01*
X238128Y160066D01*
X237768Y160113D01*
X237345Y160155D01*
D02*
G37*
G36*
X123622Y323022D02*
X119521D01*
Y320105D01*
X120171D01*
X120571Y320145D01*
X120913Y320189D01*
X121352Y320323D01*
X121669Y320454D01*
X122074Y320671D01*
X122347Y320880D01*
X122658Y321135D01*
X122913Y321446D01*
X123123Y321719D01*
X123339Y322124D01*
X123471Y322442D01*
X123604Y322881D01*
X123622Y323022D01*
D02*
G37*
G36*
X110171Y327340D02*
X107671D01*
X107248Y327298D01*
X106887Y327251D01*
X106423Y327110D01*
X106087Y326971D01*
X105659Y326742D01*
X105371Y326521D01*
X105042Y326251D01*
X104772Y325922D01*
X104551Y325634D01*
X104322Y325206D01*
X104066Y324588D01*
X103939Y323622D01*
X104066Y322656D01*
X104322Y322038D01*
X104551Y321610D01*
X104772Y321322D01*
X105042Y320993D01*
X105371Y320723D01*
X105659Y320502D01*
X106087Y320273D01*
X106423Y320134D01*
X106887Y319993D01*
X107248Y319946D01*
X107671Y319904D01*
X110171D01*
X110594Y319946D01*
X110955Y319993D01*
X111419Y320134D01*
X111755Y320273D01*
X112183Y320502D01*
X112471Y320723D01*
X112800Y320993D01*
X113070Y321322D01*
X113403Y321756D01*
X113776Y322656D01*
X114175Y322699D01*
X114281Y322661D01*
X114614Y321857D01*
X114929Y321446D01*
X115184Y321135D01*
X115495Y320880D01*
X115768Y320671D01*
X116173Y320454D01*
X116491Y320323D01*
X116930Y320189D01*
X117271Y320145D01*
X117671Y320105D01*
X118321D01*
Y323622D01*
Y327139D01*
X117671D01*
X117271Y327099D01*
X116930Y327055D01*
X116491Y326921D01*
X116173Y326790D01*
X115768Y326573D01*
X115495Y326364D01*
X115184Y326109D01*
X114929Y325798D01*
X114614Y325387D01*
X114281Y324583D01*
X114175Y324545D01*
X113776Y324588D01*
X113403Y325488D01*
X113070Y325922D01*
X112800Y326251D01*
X112471Y326521D01*
X112183Y326742D01*
X111755Y326971D01*
X111419Y327110D01*
X110955Y327251D01*
X110594Y327298D01*
X110171Y327340D01*
D02*
G37*
G36*
X120171Y327139D02*
X119521D01*
Y324222D01*
X123622D01*
X123604Y324363D01*
X123471Y324802D01*
X123339Y325120D01*
X123123Y325525D01*
X122913Y325798D01*
X122658Y326109D01*
X122347Y326364D01*
X122074Y326573D01*
X121669Y326790D01*
X121352Y326921D01*
X120913Y327055D01*
X120571Y327099D01*
X120171Y327139D01*
D02*
G37*
G36*
X139000Y358968D02*
X138577Y358926D01*
X138216Y358879D01*
X137752Y358738D01*
X137416Y358599D01*
X136988Y358370D01*
X136700Y358149D01*
X136371Y357879D01*
X136101Y357550D01*
X135880Y357262D01*
X135651Y356834D01*
X135512Y356498D01*
X135371Y356034D01*
X135324Y355673D01*
X135282Y355250D01*
Y352750D01*
X135324Y352327D01*
X135371Y351966D01*
X135512Y351502D01*
X135651Y351166D01*
X135880Y350738D01*
X136101Y350450D01*
X136371Y350121D01*
X136652Y349891D01*
X136652Y349888D01*
X137134Y349518D01*
X137731Y349271D01*
Y348729D01*
X137134Y348482D01*
X136652Y348112D01*
X136652Y348109D01*
X136371Y347879D01*
X136101Y347550D01*
X135880Y347262D01*
X135651Y346834D01*
X135512Y346498D01*
X135371Y346034D01*
X135324Y345673D01*
X135282Y345250D01*
Y342750D01*
X135324Y342327D01*
X135371Y341966D01*
X135512Y341502D01*
X135651Y341166D01*
X135880Y340738D01*
X136101Y340450D01*
X136371Y340121D01*
X136700Y339851D01*
X136988Y339630D01*
X137416Y339401D01*
X137752Y339262D01*
X138216Y339121D01*
X138577Y339074D01*
X139000Y339032D01*
X139423Y339074D01*
X139784Y339121D01*
X140248Y339262D01*
X140584Y339401D01*
X141012Y339630D01*
X141300Y339851D01*
X141629Y340121D01*
X141899Y340450D01*
X142120Y340738D01*
X142349Y341166D01*
X142488Y341502D01*
X142629Y341966D01*
X142676Y342327D01*
X142718Y342750D01*
Y345250D01*
X142676Y345673D01*
X142629Y346034D01*
X142488Y346498D01*
X142349Y346834D01*
X142120Y347262D01*
X141899Y347550D01*
X141629Y347879D01*
X141349Y348109D01*
X141348Y348112D01*
X140866Y348482D01*
X140269Y348729D01*
Y349271D01*
X140866Y349518D01*
X141348Y349888D01*
X141349Y349891D01*
X141629Y350121D01*
X141899Y350450D01*
X142120Y350738D01*
X142349Y351166D01*
X142488Y351502D01*
X142629Y351966D01*
X142676Y352327D01*
X142718Y352750D01*
Y355250D01*
X142676Y355673D01*
X142629Y356034D01*
X142488Y356498D01*
X142349Y356834D01*
X142120Y357262D01*
X141899Y357550D01*
X141629Y357879D01*
X141300Y358149D01*
X141012Y358370D01*
X140584Y358599D01*
X140248Y358738D01*
X139784Y358879D01*
X139423Y358926D01*
X139000Y358968D01*
D02*
G37*
G36*
X129000D02*
X128577Y358926D01*
X128216Y358879D01*
X127752Y358738D01*
X127416Y358599D01*
X126988Y358370D01*
X126700Y358149D01*
X126371Y357879D01*
X126101Y357550D01*
X125880Y357262D01*
X125651Y356834D01*
X125512Y356498D01*
X125371Y356034D01*
X125324Y355673D01*
X125282Y355250D01*
Y352750D01*
X125324Y352327D01*
X125371Y351966D01*
X125512Y351502D01*
X125651Y351166D01*
X125880Y350738D01*
X126101Y350450D01*
X126371Y350121D01*
X126652Y349891D01*
X126652Y349888D01*
X127134Y349518D01*
X127731Y349271D01*
Y348729D01*
X127134Y348482D01*
X126652Y348112D01*
X126652Y348109D01*
X126371Y347879D01*
X126101Y347550D01*
X125880Y347262D01*
X125651Y346834D01*
X125512Y346498D01*
X125371Y346034D01*
X125324Y345673D01*
X125282Y345250D01*
Y342750D01*
X125324Y342327D01*
X125371Y341966D01*
X125512Y341502D01*
X125651Y341166D01*
X125880Y340738D01*
X126101Y340450D01*
X126371Y340121D01*
X126700Y339851D01*
X126988Y339630D01*
X127416Y339401D01*
X127752Y339262D01*
X128216Y339121D01*
X128577Y339074D01*
X129000Y339032D01*
X129423Y339074D01*
X129784Y339121D01*
X130248Y339262D01*
X130584Y339401D01*
X131012Y339630D01*
X131300Y339851D01*
X131629Y340121D01*
X131899Y340450D01*
X132120Y340738D01*
X132349Y341166D01*
X132488Y341502D01*
X132629Y341966D01*
X132676Y342327D01*
X132718Y342750D01*
Y345250D01*
X132676Y345673D01*
X132629Y346034D01*
X132488Y346498D01*
X132349Y346834D01*
X132120Y347262D01*
X131899Y347550D01*
X131629Y347879D01*
X131349Y348109D01*
X131348Y348112D01*
X130866Y348482D01*
X130269Y348729D01*
Y349271D01*
X130866Y349518D01*
X131348Y349888D01*
X131349Y349891D01*
X131629Y350121D01*
X131899Y350450D01*
X132120Y350738D01*
X132349Y351166D01*
X132488Y351502D01*
X132629Y351966D01*
X132676Y352327D01*
X132718Y352750D01*
Y355250D01*
X132676Y355673D01*
X132629Y356034D01*
X132488Y356498D01*
X132349Y356834D01*
X132120Y357262D01*
X131899Y357550D01*
X131629Y357879D01*
X131300Y358149D01*
X131012Y358370D01*
X130584Y358599D01*
X130248Y358738D01*
X129784Y358879D01*
X129423Y358926D01*
X129000Y358968D01*
D02*
G37*
G36*
X297207Y319954D02*
X296557D01*
Y317037D01*
X300658D01*
X300639Y317178D01*
X300506Y317618D01*
X300374Y317935D01*
X300158Y318340D01*
X299948Y318613D01*
X299693Y318924D01*
X299383Y319179D01*
X299110Y319389D01*
X298705Y319605D01*
X298387Y319736D01*
X297948Y319870D01*
X297607Y319915D01*
X297207Y319954D01*
D02*
G37*
G36*
X217135Y314979D02*
Y311624D01*
X220491D01*
X220458Y311871D01*
X220306Y312373D01*
X220156Y312736D01*
X219908Y313198D01*
X219669Y313510D01*
X219377Y313866D01*
X219022Y314157D01*
X218710Y314397D01*
X218248Y314644D01*
X217885Y314794D01*
X217383Y314947D01*
X217135Y314979D01*
D02*
G37*
G36*
X215935D02*
X215688Y314947D01*
X215186Y314794D01*
X214823Y314644D01*
X214360Y314397D01*
X214049Y314157D01*
X213693Y313866D01*
X213402Y313510D01*
X213162Y313198D01*
X212915Y312736D01*
X212765Y312373D01*
X212612Y311871D01*
X212580Y311624D01*
X215935D01*
Y314979D01*
D02*
G37*
G36*
X237345Y320155D02*
X234844D01*
X234421Y320113D01*
X234061Y320066D01*
X233596Y319925D01*
X233261Y319786D01*
X232833Y319557D01*
X232544Y319336D01*
X232215Y319066D01*
X231946Y318737D01*
X231724Y318449D01*
X231496Y318021D01*
X231357Y317685D01*
X231216Y317221D01*
X231168Y316860D01*
X231127Y316437D01*
X231168Y316014D01*
X231216Y315653D01*
X231357Y315189D01*
X231496Y314853D01*
X231724Y314425D01*
X231946Y314137D01*
X232215Y313808D01*
X232544Y313538D01*
X232833Y313317D01*
X233261Y313088D01*
X233596Y312949D01*
X234061Y312808D01*
X234421Y312761D01*
X234844Y312719D01*
X237345D01*
X237768Y312761D01*
X238128Y312808D01*
X238593Y312949D01*
X238928Y313088D01*
X239356Y313317D01*
X239645Y313538D01*
X239973Y313808D01*
X240243Y314137D01*
X240464Y314425D01*
X240693Y314853D01*
X240832Y315189D01*
X240973Y315653D01*
X241021Y316014D01*
X241062Y316437D01*
X241021Y316860D01*
X240973Y317221D01*
X240832Y317685D01*
X240693Y318021D01*
X240464Y318449D01*
X240243Y318737D01*
X239973Y319066D01*
X239645Y319336D01*
X239356Y319557D01*
X238928Y319786D01*
X238593Y319925D01*
X238128Y320066D01*
X237768Y320113D01*
X237345Y320155D01*
D02*
G37*
G36*
X295357Y319954D02*
X294707D01*
X294307Y319915D01*
X293965Y319870D01*
X293526Y319736D01*
X293208Y319605D01*
X292804Y319389D01*
X292530Y319179D01*
X292220Y318924D01*
X291965Y318613D01*
X291755Y318340D01*
X291539Y317935D01*
X291407Y317618D01*
X291274Y317178D01*
X291255Y317037D01*
X295357D01*
Y319954D01*
D02*
G37*
G36*
X120171Y317340D02*
X117671D01*
X117248Y317298D01*
X116887Y317251D01*
X116423Y317110D01*
X116087Y316971D01*
X115659Y316742D01*
X115371Y316521D01*
X115042Y316251D01*
X114812Y315970D01*
X114809Y315970D01*
X114439Y315488D01*
X114192Y314891D01*
X113651D01*
X113403Y315488D01*
X113033Y315970D01*
X113030Y315970D01*
X112800Y316251D01*
X112471Y316521D01*
X112183Y316742D01*
X111755Y316971D01*
X111419Y317110D01*
X110955Y317251D01*
X110594Y317298D01*
X110171Y317340D01*
X107671D01*
X107248Y317298D01*
X106887Y317251D01*
X106423Y317110D01*
X106087Y316971D01*
X105659Y316742D01*
X105371Y316521D01*
X105042Y316251D01*
X104772Y315922D01*
X104551Y315634D01*
X104322Y315206D01*
X104066Y314588D01*
X103939Y313622D01*
X104066Y312656D01*
X104322Y312038D01*
X104551Y311610D01*
X104772Y311322D01*
X105042Y310993D01*
X105371Y310723D01*
X105659Y310502D01*
X106087Y310273D01*
X106423Y310134D01*
X106887Y309993D01*
X107248Y309946D01*
X107671Y309904D01*
X110171D01*
X110594Y309946D01*
X110955Y309993D01*
X111419Y310134D01*
X111755Y310273D01*
X112183Y310502D01*
X112471Y310723D01*
X112800Y310993D01*
X113030Y311274D01*
X113033Y311274D01*
X113403Y311756D01*
X113651Y312353D01*
X114192D01*
X114439Y311756D01*
X114809Y311274D01*
X114812Y311274D01*
X115042Y310993D01*
X115371Y310723D01*
X115659Y310502D01*
X116087Y310273D01*
X116423Y310134D01*
X116887Y309993D01*
X117248Y309946D01*
X117671Y309904D01*
X120171D01*
X120594Y309946D01*
X120955Y309993D01*
X121419Y310134D01*
X121755Y310273D01*
X122183Y310502D01*
X122471Y310723D01*
X122800Y310993D01*
X123070Y311322D01*
X123291Y311610D01*
X123520Y312038D01*
X123659Y312374D01*
X123800Y312838D01*
X123847Y313199D01*
X123889Y313622D01*
X123847Y314045D01*
X123800Y314406D01*
X123659Y314870D01*
X123520Y315206D01*
X123291Y315634D01*
X123070Y315922D01*
X122800Y316251D01*
X122471Y316521D01*
X122183Y316742D01*
X121755Y316971D01*
X121419Y317110D01*
X120955Y317251D01*
X120594Y317298D01*
X120171Y317340D01*
D02*
G37*
G36*
X114614Y346232D02*
X114229Y346194D01*
X113901Y346151D01*
X113479Y346023D01*
X113174Y345896D01*
X112784Y345688D01*
X112522Y345487D01*
X112223Y345242D01*
X111978Y344942D01*
X111776Y344680D01*
X111568Y344291D01*
X111442Y343986D01*
X111314Y343563D01*
X111270Y343235D01*
X111232Y342850D01*
X111270Y342465D01*
X111314Y342138D01*
X111442Y341715D01*
X111568Y341410D01*
X111776Y341021D01*
X111978Y340758D01*
X112223Y340459D01*
X112522Y340214D01*
X112784Y340013D01*
X113174Y339805D01*
X113479Y339678D01*
X113901Y339550D01*
X114229Y339507D01*
X114614Y339469D01*
X114999Y339507D01*
X115327Y339550D01*
X115749Y339678D01*
X116055Y339805D01*
X116444Y340013D01*
X116706Y340214D01*
X117005Y340459D01*
X117251Y340758D01*
X117452Y341021D01*
X117660Y341410D01*
X117787Y341715D01*
X117915Y342138D01*
X117958Y342465D01*
X117996Y342850D01*
X117958Y343235D01*
X117915Y343563D01*
X117787Y343986D01*
X117660Y344291D01*
X117452Y344680D01*
X117251Y344942D01*
X117005Y345242D01*
X116706Y345487D01*
X116444Y345688D01*
X116055Y345896D01*
X115749Y346023D01*
X115327Y346151D01*
X114999Y346194D01*
X114614Y346232D01*
D02*
G37*
G36*
X219000Y358968D02*
X218577Y358926D01*
X218216Y358879D01*
X217752Y358738D01*
X217416Y358599D01*
X216988Y358370D01*
X216700Y358149D01*
X216371Y357879D01*
X216101Y357550D01*
X215880Y357262D01*
X215651Y356834D01*
X215512Y356498D01*
X215371Y356034D01*
X215324Y355673D01*
X215282Y355250D01*
Y352750D01*
X215324Y352327D01*
X215371Y351966D01*
X215512Y351502D01*
X215651Y351166D01*
X215880Y350738D01*
X216101Y350450D01*
X216371Y350121D01*
X216652Y349891D01*
X216652Y349888D01*
X217134Y349518D01*
X217731Y349271D01*
Y348729D01*
X217134Y348482D01*
X216652Y348112D01*
X216652Y348109D01*
X216371Y347879D01*
X216101Y347550D01*
X215880Y347262D01*
X215651Y346834D01*
X215512Y346498D01*
X215371Y346034D01*
X215324Y345673D01*
X215282Y345250D01*
Y342750D01*
X215324Y342327D01*
X215371Y341966D01*
X215512Y341502D01*
X215651Y341166D01*
X215880Y340738D01*
X216101Y340450D01*
X216371Y340121D01*
X216700Y339851D01*
X216988Y339630D01*
X217416Y339401D01*
X217752Y339262D01*
X218216Y339121D01*
X218577Y339074D01*
X219000Y339032D01*
X219423Y339074D01*
X219784Y339121D01*
X220248Y339262D01*
X220584Y339401D01*
X221012Y339630D01*
X221300Y339851D01*
X221629Y340121D01*
X221899Y340450D01*
X222120Y340738D01*
X222349Y341166D01*
X222488Y341502D01*
X222629Y341966D01*
X222676Y342327D01*
X222718Y342750D01*
Y345250D01*
X222676Y345673D01*
X222629Y346034D01*
X222488Y346498D01*
X222349Y346834D01*
X222120Y347262D01*
X221899Y347550D01*
X221629Y347879D01*
X221349Y348109D01*
X221348Y348112D01*
X220866Y348482D01*
X220269Y348729D01*
Y349271D01*
X220866Y349518D01*
X221348Y349888D01*
X221349Y349891D01*
X221629Y350121D01*
X221899Y350450D01*
X222120Y350738D01*
X222349Y351166D01*
X222488Y351502D01*
X222629Y351966D01*
X222676Y352327D01*
X222718Y352750D01*
Y355250D01*
X222676Y355673D01*
X222629Y356034D01*
X222488Y356498D01*
X222349Y356834D01*
X222120Y357262D01*
X221899Y357550D01*
X221629Y357879D01*
X221300Y358149D01*
X221012Y358370D01*
X220584Y358599D01*
X220248Y358738D01*
X219784Y358879D01*
X219423Y358926D01*
X219000Y358968D01*
D02*
G37*
G36*
X307189Y346232D02*
X306804Y346194D01*
X306476Y346151D01*
X306054Y346023D01*
X305749Y345896D01*
X305359Y345688D01*
X305097Y345487D01*
X304798Y345242D01*
X304552Y344942D01*
X304351Y344680D01*
X304143Y344291D01*
X304017Y343986D01*
X303888Y343563D01*
X303845Y343235D01*
X303807Y342850D01*
X303845Y342465D01*
X303888Y342138D01*
X304017Y341715D01*
X304143Y341410D01*
X304351Y341021D01*
X304552Y340758D01*
X304798Y340459D01*
X305097Y340214D01*
X305359Y340013D01*
X305749Y339804D01*
X306054Y339678D01*
X306476Y339550D01*
X306804Y339507D01*
X307189Y339469D01*
X307574Y339507D01*
X307902Y339550D01*
X308324Y339678D01*
X308629Y339804D01*
X309019Y340013D01*
X309281Y340214D01*
X309580Y340459D01*
X309826Y340758D01*
X310027Y341021D01*
X310235Y341410D01*
X310361Y341715D01*
X310490Y342138D01*
X310533Y342465D01*
X310571Y342850D01*
X310533Y343235D01*
X310490Y343563D01*
X310361Y343986D01*
X310235Y344291D01*
X310027Y344680D01*
X309826Y344942D01*
X309580Y345242D01*
X309281Y345487D01*
X309019Y345688D01*
X308629Y345896D01*
X308324Y346023D01*
X307902Y346151D01*
X307574Y346194D01*
X307189Y346232D01*
D02*
G37*
G36*
X189600Y358701D02*
Y354600D01*
X192517D01*
Y355250D01*
X192478Y355650D01*
X192433Y355991D01*
X192299Y356431D01*
X192168Y356748D01*
X191952Y357153D01*
X191742Y357426D01*
X191487Y357737D01*
X191176Y357992D01*
X190903Y358202D01*
X190498Y358418D01*
X190181Y358549D01*
X189741Y358683D01*
X189600Y358701D01*
D02*
G37*
G36*
X188400D02*
X188259Y358683D01*
X187820Y358549D01*
X187502Y358418D01*
X187097Y358202D01*
X186824Y357992D01*
X186513Y357737D01*
X186258Y357426D01*
X186048Y357153D01*
X185832Y356748D01*
X185701Y356431D01*
X185567Y355991D01*
X185522Y355650D01*
X185483Y355250D01*
Y354600D01*
X188400D01*
Y358701D01*
D02*
G37*
G36*
X209000Y358968D02*
X208577Y358926D01*
X208216Y358879D01*
X207752Y358738D01*
X207416Y358599D01*
X206988Y358370D01*
X206700Y358149D01*
X206371Y357879D01*
X206101Y357550D01*
X205880Y357262D01*
X205651Y356834D01*
X205512Y356498D01*
X205371Y356034D01*
X205324Y355673D01*
X205282Y355250D01*
Y352750D01*
X205324Y352327D01*
X205371Y351966D01*
X205512Y351502D01*
X205651Y351166D01*
X205880Y350738D01*
X206101Y350450D01*
X206371Y350121D01*
X206651Y349891D01*
X206652Y349888D01*
X207134Y349518D01*
X207731Y349271D01*
Y348729D01*
X207134Y348482D01*
X206652Y348112D01*
X206651Y348109D01*
X206371Y347879D01*
X206101Y347550D01*
X205880Y347262D01*
X205651Y346834D01*
X205512Y346498D01*
X205371Y346034D01*
X205324Y345673D01*
X205282Y345250D01*
Y342750D01*
X205324Y342327D01*
X205371Y341966D01*
X205512Y341502D01*
X205651Y341166D01*
X205880Y340738D01*
X206101Y340450D01*
X206371Y340121D01*
X206700Y339851D01*
X206988Y339630D01*
X207416Y339401D01*
X207752Y339262D01*
X208216Y339121D01*
X208577Y339074D01*
X209000Y339032D01*
X209423Y339074D01*
X209784Y339121D01*
X210248Y339262D01*
X210584Y339401D01*
X211012Y339630D01*
X211300Y339851D01*
X211629Y340121D01*
X211899Y340450D01*
X212120Y340738D01*
X212349Y341166D01*
X212488Y341502D01*
X212629Y341966D01*
X212676Y342327D01*
X212718Y342750D01*
Y345250D01*
X212676Y345673D01*
X212629Y346034D01*
X212488Y346498D01*
X212349Y346834D01*
X212120Y347262D01*
X211899Y347550D01*
X211629Y347879D01*
X211349Y348109D01*
X211348Y348112D01*
X210866Y348482D01*
X210269Y348729D01*
Y349271D01*
X210866Y349518D01*
X211348Y349888D01*
X211349Y349891D01*
X211629Y350121D01*
X211899Y350450D01*
X212120Y350738D01*
X212349Y351166D01*
X212488Y351502D01*
X212629Y351966D01*
X212676Y352327D01*
X212718Y352750D01*
Y355250D01*
X212676Y355673D01*
X212629Y356034D01*
X212488Y356498D01*
X212349Y356834D01*
X212120Y357262D01*
X211899Y357550D01*
X211629Y357879D01*
X211300Y358149D01*
X211012Y358370D01*
X210584Y358599D01*
X210248Y358738D01*
X209784Y358879D01*
X209423Y358926D01*
X209000Y358968D01*
D02*
G37*
G36*
X169000D02*
X168577Y358926D01*
X168216Y358879D01*
X167752Y358738D01*
X167416Y358599D01*
X166988Y358370D01*
X166700Y358149D01*
X166371Y357879D01*
X166101Y357550D01*
X165880Y357262D01*
X165651Y356834D01*
X165512Y356498D01*
X165371Y356034D01*
X165324Y355673D01*
X165282Y355250D01*
Y352750D01*
X165324Y352327D01*
X165371Y351966D01*
X165512Y351502D01*
X165651Y351166D01*
X165880Y350738D01*
X166101Y350450D01*
X166371Y350121D01*
X166651Y349891D01*
X166652Y349888D01*
X167134Y349518D01*
X167731Y349271D01*
Y348729D01*
X167134Y348482D01*
X166652Y348112D01*
X166651Y348109D01*
X166371Y347879D01*
X166101Y347550D01*
X165880Y347262D01*
X165651Y346834D01*
X165512Y346498D01*
X165371Y346034D01*
X165324Y345673D01*
X165282Y345250D01*
Y342750D01*
X165324Y342327D01*
X165395Y341784D01*
X165768Y340884D01*
X166361Y340111D01*
X167134Y339518D01*
X168034Y339145D01*
X168153Y339129D01*
X168166Y339137D01*
X168216Y339121D01*
X168577Y339074D01*
X169000Y339032D01*
X169423Y339074D01*
X169784Y339121D01*
X170248Y339262D01*
X170584Y339401D01*
X171012Y339630D01*
X171300Y339851D01*
X171629Y340121D01*
X171899Y340450D01*
X172120Y340738D01*
X172349Y341166D01*
X172488Y341502D01*
X172629Y341966D01*
X172676Y342327D01*
X172718Y342750D01*
Y345250D01*
X172676Y345673D01*
X172629Y346034D01*
X172488Y346498D01*
X172349Y346834D01*
X172120Y347262D01*
X171899Y347550D01*
X171629Y347879D01*
X171349Y348109D01*
X171348Y348112D01*
X170866Y348482D01*
X170269Y348729D01*
Y349271D01*
X170866Y349518D01*
X171348Y349888D01*
X171349Y349891D01*
X171629Y350121D01*
X171899Y350450D01*
X172120Y350738D01*
X172349Y351166D01*
X172488Y351502D01*
X172629Y351966D01*
X172676Y352327D01*
X172718Y352750D01*
Y355250D01*
X172676Y355673D01*
X172629Y356034D01*
X172488Y356498D01*
X172349Y356834D01*
X172120Y357262D01*
X171899Y357550D01*
X171629Y357879D01*
X171300Y358149D01*
X171012Y358370D01*
X170584Y358599D01*
X170248Y358738D01*
X169784Y358879D01*
X169423Y358926D01*
X169000Y358968D01*
D02*
G37*
G36*
X149000D02*
X148577Y358926D01*
X148216Y358879D01*
X147752Y358738D01*
X147416Y358599D01*
X146988Y358370D01*
X146700Y358149D01*
X146371Y357879D01*
X146101Y357550D01*
X145880Y357262D01*
X145651Y356834D01*
X145512Y356498D01*
X145371Y356034D01*
X145324Y355673D01*
X145282Y355250D01*
Y352750D01*
X145324Y352327D01*
X145371Y351966D01*
X145512Y351502D01*
X145651Y351166D01*
X145880Y350738D01*
X146101Y350450D01*
X146371Y350121D01*
X146651Y349891D01*
X146652Y349888D01*
X147134Y349518D01*
X147731Y349271D01*
Y348729D01*
X147134Y348482D01*
X146652Y348112D01*
X146651Y348109D01*
X146371Y347879D01*
X146101Y347550D01*
X145880Y347262D01*
X145651Y346834D01*
X145512Y346498D01*
X145371Y346034D01*
X145324Y345673D01*
X145282Y345250D01*
Y342750D01*
X145324Y342327D01*
X145371Y341966D01*
X145512Y341502D01*
X145651Y341166D01*
X145880Y340738D01*
X146101Y340450D01*
X146371Y340121D01*
X146700Y339851D01*
X146988Y339630D01*
X147416Y339401D01*
X147752Y339262D01*
X148216Y339121D01*
X148577Y339074D01*
X149000Y339032D01*
X149423Y339074D01*
X149784Y339121D01*
X150248Y339262D01*
X150584Y339401D01*
X151012Y339630D01*
X151300Y339851D01*
X151629Y340121D01*
X151899Y340450D01*
X152120Y340738D01*
X152349Y341166D01*
X152488Y341502D01*
X152629Y341966D01*
X152676Y342327D01*
X152718Y342750D01*
Y345250D01*
X152676Y345673D01*
X152629Y346034D01*
X152488Y346498D01*
X152349Y346834D01*
X152120Y347262D01*
X151899Y347550D01*
X151629Y347879D01*
X151348Y348109D01*
X151348Y348112D01*
X150866Y348482D01*
X150269Y348729D01*
Y349271D01*
X150866Y349518D01*
X151348Y349888D01*
X151348Y349891D01*
X151629Y350121D01*
X151899Y350450D01*
X152120Y350738D01*
X152349Y351166D01*
X152488Y351502D01*
X152629Y351966D01*
X152676Y352327D01*
X152718Y352750D01*
Y355250D01*
X152676Y355673D01*
X152629Y356034D01*
X152488Y356498D01*
X152349Y356834D01*
X152120Y357262D01*
X151899Y357550D01*
X151629Y357879D01*
X151300Y358149D01*
X151012Y358370D01*
X150584Y358599D01*
X150248Y358738D01*
X149784Y358879D01*
X149423Y358926D01*
X149000Y358968D01*
D02*
G37*
G36*
X179000D02*
X178577Y358926D01*
X178216Y358879D01*
X177752Y358738D01*
X177416Y358599D01*
X176988Y358370D01*
X176700Y358149D01*
X176371Y357879D01*
X176101Y357550D01*
X175880Y357262D01*
X175651Y356834D01*
X175512Y356498D01*
X175371Y356034D01*
X175324Y355673D01*
X175282Y355250D01*
Y352750D01*
X175324Y352327D01*
X175371Y351966D01*
X175512Y351502D01*
X175651Y351166D01*
X175880Y350738D01*
X176101Y350450D01*
X176371Y350121D01*
X176652Y349891D01*
X176652Y349888D01*
X177134Y349518D01*
X177731Y349271D01*
Y348729D01*
X177134Y348482D01*
X176652Y348112D01*
X176652Y348109D01*
X176371Y347879D01*
X176101Y347550D01*
X175880Y347262D01*
X175651Y346834D01*
X175512Y346498D01*
X175371Y346034D01*
X175324Y345673D01*
X175282Y345250D01*
Y342750D01*
X175324Y342327D01*
X175371Y341966D01*
X175512Y341502D01*
X175651Y341166D01*
X175880Y340738D01*
X176101Y340450D01*
X176371Y340121D01*
X176700Y339851D01*
X176988Y339630D01*
X177416Y339401D01*
X177752Y339262D01*
X178216Y339121D01*
X178577Y339074D01*
X179000Y339032D01*
X179423Y339074D01*
X179784Y339121D01*
X180248Y339262D01*
X180584Y339401D01*
X181012Y339630D01*
X181300Y339851D01*
X181629Y340121D01*
X181899Y340450D01*
X182120Y340738D01*
X182349Y341166D01*
X182488Y341502D01*
X182629Y341966D01*
X182676Y342327D01*
X182718Y342750D01*
Y345250D01*
X182676Y345673D01*
X182629Y346034D01*
X182488Y346498D01*
X182349Y346834D01*
X182120Y347262D01*
X181899Y347550D01*
X181629Y347879D01*
X181349Y348109D01*
X181348Y348112D01*
X180866Y348482D01*
X180269Y348729D01*
Y349271D01*
X180866Y349518D01*
X181348Y349888D01*
X181349Y349891D01*
X181629Y350121D01*
X181899Y350450D01*
X182120Y350738D01*
X182349Y351166D01*
X182488Y351502D01*
X182629Y351966D01*
X182676Y352327D01*
X182718Y352750D01*
Y355250D01*
X182676Y355673D01*
X182629Y356034D01*
X182488Y356498D01*
X182349Y356834D01*
X182120Y357262D01*
X181899Y357550D01*
X181629Y357879D01*
X181300Y358149D01*
X181012Y358370D01*
X180584Y358599D01*
X180248Y358738D01*
X179784Y358879D01*
X179423Y358926D01*
X179000Y358968D01*
D02*
G37*
G36*
X199000D02*
X198577Y358926D01*
X198216Y358879D01*
X197752Y358738D01*
X197416Y358599D01*
X196988Y358370D01*
X196700Y358149D01*
X196371Y357879D01*
X196101Y357550D01*
X195880Y357262D01*
X195651Y356834D01*
X195512Y356498D01*
X195371Y356034D01*
X195324Y355673D01*
X195282Y355250D01*
Y352750D01*
X195324Y352327D01*
X195371Y351966D01*
X195512Y351502D01*
X195651Y351166D01*
X195880Y350738D01*
X196101Y350450D01*
X196371Y350121D01*
X196651Y349891D01*
X196652Y349888D01*
X197134Y349518D01*
X197731Y349271D01*
Y348729D01*
X197134Y348482D01*
X196652Y348112D01*
X196651Y348109D01*
X196371Y347879D01*
X196101Y347550D01*
X195880Y347262D01*
X195651Y346834D01*
X195512Y346498D01*
X195371Y346034D01*
X195324Y345673D01*
X195282Y345250D01*
Y342750D01*
X195324Y342327D01*
X195371Y341966D01*
X195512Y341502D01*
X195651Y341166D01*
X195880Y340738D01*
X196101Y340450D01*
X196371Y340121D01*
X196700Y339851D01*
X196988Y339630D01*
X197416Y339401D01*
X197752Y339262D01*
X198216Y339121D01*
X198577Y339074D01*
X199000Y339032D01*
X199423Y339074D01*
X199784Y339121D01*
X200248Y339262D01*
X200584Y339401D01*
X201012Y339630D01*
X201300Y339851D01*
X201629Y340121D01*
X201899Y340450D01*
X202120Y340738D01*
X202349Y341166D01*
X202488Y341502D01*
X202629Y341966D01*
X202676Y342327D01*
X202718Y342750D01*
Y345250D01*
X202676Y345673D01*
X202629Y346034D01*
X202488Y346498D01*
X202349Y346834D01*
X202120Y347262D01*
X201899Y347550D01*
X201629Y347879D01*
X201348Y348109D01*
X201348Y348112D01*
X200866Y348482D01*
X200269Y348729D01*
Y349271D01*
X200866Y349518D01*
X201348Y349888D01*
X201348Y349891D01*
X201629Y350121D01*
X201899Y350450D01*
X202120Y350738D01*
X202349Y351166D01*
X202488Y351502D01*
X202629Y351966D01*
X202676Y352327D01*
X202718Y352750D01*
Y355250D01*
X202676Y355673D01*
X202629Y356034D01*
X202488Y356498D01*
X202349Y356834D01*
X202120Y357262D01*
X201899Y357550D01*
X201629Y357879D01*
X201300Y358149D01*
X201012Y358370D01*
X200584Y358599D01*
X200248Y358738D01*
X199784Y358879D01*
X199423Y358926D01*
X199000Y358968D01*
D02*
G37*
G36*
X192517Y353400D02*
X185483D01*
Y352750D01*
X185522Y352350D01*
X185567Y352009D01*
X185701Y351570D01*
X185832Y351252D01*
X186048Y350847D01*
X186258Y350574D01*
X186513Y350263D01*
X186824Y350008D01*
X187235Y349693D01*
X188039Y349360D01*
X188077Y349254D01*
X188034Y348855D01*
X187134Y348482D01*
X186700Y348149D01*
X186371Y347879D01*
X186101Y347550D01*
X185880Y347262D01*
X185651Y346834D01*
X185512Y346498D01*
X185371Y346034D01*
X185324Y345673D01*
X185282Y345250D01*
Y342750D01*
X185324Y342327D01*
X185371Y341966D01*
X185512Y341502D01*
X185651Y341166D01*
X185880Y340738D01*
X186101Y340450D01*
X186371Y340121D01*
X186700Y339851D01*
X186988Y339630D01*
X187416Y339401D01*
X187752Y339262D01*
X188216Y339121D01*
X188577Y339074D01*
X189000Y339032D01*
X189423Y339074D01*
X189784Y339121D01*
X190248Y339262D01*
X190584Y339401D01*
X191012Y339630D01*
X191300Y339851D01*
X191629Y340121D01*
X191899Y340450D01*
X192120Y340738D01*
X192349Y341166D01*
X192488Y341502D01*
X192629Y341966D01*
X192676Y342327D01*
X192718Y342750D01*
Y345250D01*
X192676Y345673D01*
X192629Y346034D01*
X192488Y346498D01*
X192349Y346834D01*
X192120Y347262D01*
X191899Y347550D01*
X191629Y347879D01*
X191300Y348149D01*
X190866Y348482D01*
X189966Y348855D01*
X189923Y349254D01*
X189961Y349360D01*
X190765Y349693D01*
X191176Y350008D01*
X191487Y350263D01*
X191742Y350574D01*
X191952Y350847D01*
X192168Y351252D01*
X192299Y351570D01*
X192433Y352009D01*
X192478Y352350D01*
X192517Y352750D01*
Y353400D01*
D02*
G37*
G36*
X220491Y310424D02*
X217135D01*
Y307068D01*
X217383Y307101D01*
X217885Y307253D01*
X218248Y307403D01*
X218710Y307651D01*
X219022Y307890D01*
X219377Y308182D01*
X219669Y308537D01*
X219908Y308849D01*
X220156Y309311D01*
X220306Y309674D01*
X220458Y310176D01*
X220491Y310424D01*
D02*
G37*
G36*
X146672Y279912D02*
X143316D01*
Y276556D01*
X143564Y276589D01*
X144066Y276741D01*
X144429Y276891D01*
X144891Y277139D01*
X145203Y277378D01*
X145559Y277670D01*
X145850Y278025D01*
X146090Y278337D01*
X146337Y278800D01*
X146487Y279163D01*
X146640Y279665D01*
X146672Y279912D01*
D02*
G37*
G36*
X142116D02*
X138761D01*
X138794Y279665D01*
X138946Y279163D01*
X139096Y278800D01*
X139344Y278337D01*
X139583Y278025D01*
X139874Y277670D01*
X140230Y277378D01*
X140542Y277139D01*
X141004Y276891D01*
X141367Y276741D01*
X141869Y276589D01*
X142116Y276556D01*
Y279912D01*
D02*
G37*
G36*
X282038Y281174D02*
X281388D01*
X280988Y281135D01*
X280646Y281090D01*
X280207Y280957D01*
X279889Y280825D01*
X279485Y280609D01*
X279211Y280399D01*
X278901Y280144D01*
X278646Y279834D01*
X278331Y279422D01*
X277978Y278571D01*
X277891Y277911D01*
X277890Y277903D01*
X277846D01*
X277846D01*
X277840D01*
X277836D01*
X277831D01*
X277826D01*
X277825D01*
X277450D01*
X277450D01*
X277444D01*
X277440D01*
X277435D01*
X277430D01*
X277429D01*
X277386D01*
X277385Y277911D01*
X277298Y278571D01*
X276945Y279422D01*
X276630Y279834D01*
X276375Y280144D01*
X276064Y280399D01*
X275791Y280609D01*
X275386Y280825D01*
X275068Y280957D01*
X274629Y281090D01*
X274288Y281135D01*
X273888Y281174D01*
X273238D01*
Y277657D01*
Y274141D01*
X273888D01*
X274288Y274180D01*
X274629Y274225D01*
X275068Y274358D01*
X275386Y274490D01*
X275791Y274706D01*
X276064Y274916D01*
X276375Y275171D01*
X276630Y275481D01*
X276945Y275892D01*
X277298Y276744D01*
X277385Y277404D01*
X277386Y277412D01*
X277429D01*
X277430D01*
X277435D01*
X277440D01*
X277444D01*
X277450D01*
X277450D01*
X277825D01*
X277826D01*
X277831D01*
X277836D01*
X277840D01*
X277846D01*
X277846D01*
X277890D01*
X277891Y277404D01*
X277978Y276744D01*
X278331Y275892D01*
X278646Y275481D01*
X278901Y275171D01*
X279211Y274916D01*
X279485Y274706D01*
X279889Y274490D01*
X280207Y274358D01*
X280646Y274225D01*
X280988Y274180D01*
X281388Y274141D01*
X282038D01*
Y277657D01*
Y281174D01*
D02*
G37*
G36*
X283888D02*
X283238D01*
Y278257D01*
X287339D01*
X287320Y278399D01*
X287187Y278838D01*
X287055Y279156D01*
X286839Y279560D01*
X286630Y279834D01*
X286375Y280144D01*
X286064Y280399D01*
X285791Y280609D01*
X285386Y280825D01*
X285068Y280957D01*
X284629Y281090D01*
X284288Y281135D01*
X283888Y281174D01*
D02*
G37*
G36*
X272038D02*
X271388D01*
X270988Y281135D01*
X270646Y281090D01*
X270207Y280957D01*
X269889Y280825D01*
X269485Y280609D01*
X269212Y280399D01*
X268901Y280144D01*
X268646Y279834D01*
X268436Y279560D01*
X268220Y279156D01*
X268088Y278838D01*
X267955Y278399D01*
X267937Y278257D01*
X272038D01*
Y281174D01*
D02*
G37*
G36*
X287339Y277057D02*
X283238D01*
Y274141D01*
X283888D01*
X284288Y274180D01*
X284802Y274248D01*
X285653Y274600D01*
X286064Y274916D01*
X286131Y274971D01*
D01*
X286375Y275171D01*
X286630Y275481D01*
X286839Y275754D01*
X287055Y276159D01*
X287187Y276477D01*
X287320Y276916D01*
X287339Y277057D01*
D02*
G37*
G36*
X195716Y259827D02*
X192361D01*
Y256472D01*
X192608Y256504D01*
X193110Y256657D01*
X193473Y256807D01*
X193936Y257054D01*
X194247Y257293D01*
X194603Y257585D01*
X194894Y257941D01*
X195134Y258252D01*
X195381Y258715D01*
X195531Y259078D01*
X195684Y259580D01*
X195716Y259827D01*
D02*
G37*
G36*
X191161D02*
X187805D01*
X187838Y259580D01*
X187990Y259078D01*
X188140Y258715D01*
X188388Y258252D01*
X188627Y257941D01*
X188918Y257585D01*
X189274Y257293D01*
X189586Y257054D01*
X190048Y256807D01*
X190411Y256657D01*
X190913Y256504D01*
X191161Y256472D01*
Y259827D01*
D02*
G37*
G36*
Y264383D02*
X190913Y264350D01*
X190411Y264198D01*
X190048Y264048D01*
X189586Y263800D01*
X189274Y263561D01*
X188918Y263269D01*
X188627Y262914D01*
X188388Y262602D01*
X188140Y262139D01*
X187990Y261776D01*
X187838Y261274D01*
X187805Y261027D01*
X191161D01*
Y264383D01*
D02*
G37*
G36*
X272038Y277057D02*
X267937D01*
X267955Y276916D01*
X268088Y276477D01*
X268220Y276159D01*
X268436Y275754D01*
X268646Y275481D01*
X268901Y275171D01*
X269212Y274916D01*
X269485Y274706D01*
X269889Y274490D01*
X270207Y274358D01*
X270646Y274225D01*
X270988Y274180D01*
X271388Y274141D01*
X272038D01*
Y277057D01*
D02*
G37*
G36*
X192361Y264383D02*
Y261027D01*
X195716D01*
X195684Y261274D01*
X195531Y261776D01*
X195381Y262139D01*
X195134Y262602D01*
X194894Y262914D01*
X194603Y263269D01*
X194247Y263561D01*
X193936Y263800D01*
X193473Y264048D01*
X193110Y264198D01*
X192608Y264350D01*
X192361Y264383D01*
D02*
G37*
G36*
X108321Y293022D02*
X104220D01*
X104239Y292881D01*
X104372Y292442D01*
X104504Y292124D01*
X104720Y291719D01*
X104929Y291446D01*
X105184Y291135D01*
X105495Y290880D01*
X105768Y290670D01*
X106173Y290454D01*
X106491Y290323D01*
X106930Y290189D01*
X107271Y290144D01*
X107671Y290105D01*
X108321D01*
Y293022D01*
D02*
G37*
G36*
X156963Y293192D02*
Y289837D01*
X160318D01*
X160260Y290281D01*
X159936Y291061D01*
X159921Y291066D01*
X159736Y291411D01*
X159496Y291723D01*
X159205Y292079D01*
X158849Y292370D01*
X158537Y292610D01*
X158075Y292857D01*
X157712Y293007D01*
X157210Y293160D01*
X156963Y293192D01*
D02*
G37*
G36*
X108321Y297139D02*
X107671D01*
X107271Y297099D01*
X106930Y297055D01*
X106491Y296921D01*
X106173Y296790D01*
X105768Y296573D01*
X105495Y296364D01*
X105184Y296109D01*
X104929Y295798D01*
X104720Y295525D01*
X104504Y295120D01*
X104372Y294802D01*
X104239Y294363D01*
X104220Y294222D01*
X108321D01*
Y297139D01*
D02*
G37*
G36*
X215935Y310424D02*
X212580D01*
X212612Y310176D01*
X212765Y309674D01*
X212915Y309311D01*
X213162Y308849D01*
X213402Y308537D01*
X213693Y308182D01*
X214049Y307890D01*
X214360Y307651D01*
X214823Y307403D01*
X215186Y307253D01*
X215688Y307101D01*
X215935Y307068D01*
Y310424D01*
D02*
G37*
G36*
X237345Y310155D02*
X234844D01*
X234421Y310113D01*
X234061Y310066D01*
X233596Y309925D01*
X233261Y309786D01*
X232833Y309557D01*
X232544Y309336D01*
X232215Y309066D01*
X231946Y308737D01*
X231724Y308449D01*
X231496Y308021D01*
X231357Y307685D01*
X231216Y307221D01*
X231168Y306860D01*
X231127Y306437D01*
X231168Y306014D01*
X231216Y305653D01*
X231357Y305189D01*
X231496Y304853D01*
X231724Y304425D01*
X231946Y304137D01*
X232215Y303808D01*
X232544Y303538D01*
X232833Y303317D01*
X233261Y303088D01*
X233596Y302949D01*
X234061Y302808D01*
X234421Y302761D01*
X234844Y302719D01*
X237345D01*
X237768Y302761D01*
X238128Y302808D01*
X238593Y302949D01*
X238928Y303088D01*
X239356Y303317D01*
X239645Y303538D01*
X239973Y303808D01*
X240243Y304137D01*
X240464Y304425D01*
X240693Y304853D01*
X240832Y305189D01*
X240973Y305653D01*
X241021Y306014D01*
X241062Y306437D01*
X241021Y306860D01*
X240973Y307221D01*
X240832Y307685D01*
X240693Y308021D01*
X240464Y308449D01*
X240243Y308737D01*
X239973Y309066D01*
X239645Y309336D01*
X239356Y309557D01*
X238928Y309786D01*
X238593Y309925D01*
X238128Y310066D01*
X237768Y310113D01*
X237345Y310155D01*
D02*
G37*
G36*
X155763Y293192D02*
X155515Y293160D01*
X155013Y293007D01*
X154650Y292857D01*
X154188Y292610D01*
X153876Y292370D01*
X153521Y292079D01*
X153229Y291723D01*
X152989Y291411D01*
X152742Y290949D01*
X152592Y290586D01*
X152440Y290084D01*
X152407Y289837D01*
X155763D01*
Y293192D01*
D02*
G37*
G36*
X143316Y284467D02*
Y281112D01*
X146672D01*
X146640Y281359D01*
X146487Y281861D01*
X146337Y282224D01*
X146090Y282687D01*
X145850Y282998D01*
X145559Y283354D01*
X145203Y283646D01*
X144891Y283885D01*
X144429Y284132D01*
X144066Y284282D01*
X143564Y284435D01*
X143316Y284467D01*
D02*
G37*
G36*
X142116D02*
X141869Y284435D01*
X141367Y284282D01*
X141004Y284132D01*
X140542Y283885D01*
X140230Y283646D01*
X139874Y283354D01*
X139583Y282998D01*
X139344Y282687D01*
X139096Y282224D01*
X138946Y281861D01*
X138794Y281359D01*
X138761Y281112D01*
X142116D01*
Y284467D01*
D02*
G37*
G36*
X159000Y358968D02*
X158577Y358926D01*
X158216Y358879D01*
X157752Y358738D01*
X157416Y358599D01*
X156988Y358370D01*
X156700Y358149D01*
X156371Y357879D01*
X156101Y357550D01*
X155880Y357262D01*
X155651Y356834D01*
X155512Y356498D01*
X155371Y356034D01*
X155324Y355673D01*
X155282Y355250D01*
Y352750D01*
X155324Y352327D01*
X155371Y351966D01*
X155512Y351502D01*
X155651Y351166D01*
X155880Y350738D01*
X156101Y350450D01*
X156371Y350121D01*
X156651Y349891D01*
X156652Y349888D01*
X157134Y349518D01*
X157731Y349271D01*
Y348729D01*
X157134Y348482D01*
X156652Y348112D01*
X156651Y348109D01*
X156371Y347879D01*
X156101Y347550D01*
X155880Y347262D01*
X155651Y346834D01*
X155512Y346498D01*
X155371Y346034D01*
X155324Y345673D01*
X155282Y345250D01*
Y342750D01*
X155324Y342327D01*
X155371Y341966D01*
X155512Y341502D01*
X155651Y341166D01*
X155880Y340738D01*
X156101Y340450D01*
X156371Y340121D01*
X156700Y339851D01*
X156988Y339630D01*
X157416Y339401D01*
X157752Y339262D01*
X158216Y339121D01*
X158577Y339074D01*
X159000Y339032D01*
X159423Y339074D01*
X159784Y339121D01*
X160248Y339262D01*
X160584Y339401D01*
X160968Y339607D01*
X163640Y336935D01*
Y293206D01*
X163621Y293198D01*
D01*
X163442Y293124D01*
X162972Y292836D01*
X162710Y292635D01*
X162375Y292349D01*
X162089Y292014D01*
X161888Y291752D01*
X161600Y291283D01*
X161262Y290466D01*
X161118Y289370D01*
X161262Y288274D01*
X161600Y287457D01*
X161888Y286988D01*
X162089Y286726D01*
X162375Y286391D01*
X162710Y286105D01*
X162972Y285904D01*
X163442Y285616D01*
X164052Y285363D01*
X164588Y285235D01*
X164915Y285192D01*
X165354Y285157D01*
X165793Y285192D01*
X166121Y285235D01*
X166656Y285363D01*
X167267Y285616D01*
X167736Y285904D01*
X167999Y286105D01*
X168333Y286391D01*
X168619Y286726D01*
X168820Y286988D01*
X169108Y287457D01*
X169361Y288068D01*
X169490Y288604D01*
X169533Y288931D01*
X169567Y289370D01*
X169533Y289809D01*
X169490Y290137D01*
X169361Y290672D01*
X169108Y291283D01*
X168820Y291752D01*
X168619Y292014D01*
X168333Y292349D01*
X167999Y292635D01*
X167736Y292836D01*
X167267Y293124D01*
X167088Y293198D01*
D01*
X167069Y293206D01*
Y337646D01*
X167040Y337868D01*
X167033Y337923D01*
X166956Y338309D01*
X166580Y338871D01*
X163973Y341478D01*
X163954Y341471D01*
X162714Y342711D01*
X162718Y342750D01*
Y345250D01*
X162676Y345673D01*
X162629Y346034D01*
X162488Y346498D01*
X162349Y346834D01*
X162120Y347262D01*
X161899Y347550D01*
X161629Y347879D01*
X161348Y348109D01*
X161348Y348112D01*
X160866Y348482D01*
X160269Y348729D01*
Y349271D01*
X160866Y349518D01*
X161348Y349888D01*
X161348Y349891D01*
X161629Y350121D01*
X161899Y350450D01*
X162120Y350738D01*
X162349Y351166D01*
X162488Y351502D01*
X162629Y351966D01*
X162676Y352327D01*
X162718Y352750D01*
Y355250D01*
X162676Y355673D01*
X162629Y356034D01*
X162488Y356498D01*
X162349Y356834D01*
X162120Y357262D01*
X161899Y357550D01*
X161629Y357879D01*
X161300Y358149D01*
X161012Y358370D01*
X160584Y358599D01*
X160248Y358738D01*
X159784Y358879D01*
X159423Y358926D01*
X159000Y358968D01*
D02*
G37*
G36*
X160318Y288637D02*
X156963D01*
Y285281D01*
X157210Y285314D01*
X157712Y285466D01*
X158075Y285616D01*
X158537Y285863D01*
X158849Y286103D01*
X159205Y286395D01*
X159496Y286750D01*
X159736Y287062D01*
X159964Y287489D01*
X159969Y287490D01*
X160260Y288192D01*
X160318Y288637D01*
D02*
G37*
G36*
X155763D02*
X152407D01*
X152440Y288389D01*
X152592Y287887D01*
X152742Y287524D01*
X152989Y287062D01*
X153229Y286750D01*
X153521Y286395D01*
X153876Y286103D01*
X154188Y285863D01*
X154650Y285616D01*
X155013Y285466D01*
X155515Y285314D01*
X155763Y285281D01*
Y288637D01*
D02*
G37*
%LPD*%
D15*
X216535Y311024D02*
D03*
X146653Y223425D02*
D03*
X188976Y207677D02*
D03*
X169291D02*
D03*
X191761Y260427D02*
D03*
X146653Y231299D02*
D03*
X145669Y127953D02*
D03*
X146653Y149606D02*
D03*
X157480Y157480D02*
D03*
X146653D02*
D03*
X142717Y280512D02*
D03*
X156363Y289237D02*
D03*
X165354Y289370D02*
D03*
X206693Y132874D02*
D03*
D31*
X114173Y176181D02*
X115112D01*
X117671Y173622D01*
X118921D01*
X282638Y267657D02*
X286634Y271654D01*
X300197D01*
X272638Y267657D02*
X278484Y261811D01*
X141200Y123836D02*
Y200310D01*
X130597Y210913D02*
X141200Y200310D01*
X130597Y210913D02*
Y291946D01*
X118921Y303622D02*
X130597Y291946D01*
X128600Y118617D02*
Y172187D01*
X130400Y119363D02*
Y189679D01*
X121260Y198819D02*
X130400Y189679D01*
X119002Y203622D02*
X132200Y190424D01*
Y120108D02*
Y190424D01*
X122189Y209055D02*
X134000Y197244D01*
X135800Y121599D02*
Y198058D01*
X137600Y122345D02*
Y198819D01*
X139400Y123091D02*
Y199565D01*
X143000Y162118D02*
Y219772D01*
X144800Y167208D02*
X151575Y160433D01*
X144800Y167208D02*
Y213698D01*
X134000Y120854D02*
Y197244D01*
X123650Y168504D02*
X126800Y165354D01*
Y117872D02*
Y165354D01*
X122638Y158661D02*
X125000Y156299D01*
Y117126D02*
Y156299D01*
X141200Y123836D02*
X145463Y119573D01*
X139400Y123091D02*
X144717Y117773D01*
X137600Y122345D02*
X143972Y115973D01*
X135800Y121599D02*
X143226Y114173D01*
X134000Y120854D02*
X142507Y112346D01*
X132200Y120108D02*
X141762Y110547D01*
X130400Y119363D02*
X141016Y108747D01*
X128600Y118617D02*
X140271Y106947D01*
X126800Y117872D02*
X139525Y105147D01*
X125000Y117126D02*
X138779Y103347D01*
X121653Y179134D02*
X128600Y172187D01*
X125197Y208661D02*
X135800Y198058D01*
X138346Y200619D02*
X139400Y199565D01*
X138330Y200619D02*
X138346D01*
X128797Y210153D02*
X138330Y200619D01*
X128797Y210153D02*
Y283746D01*
X118921Y293622D02*
X128797Y283746D01*
X126997Y209407D02*
X137585Y198819D01*
X126997Y209407D02*
Y275546D01*
X118921Y283622D02*
X126997Y275546D01*
X125197Y208661D02*
Y267346D01*
X118921Y273622D02*
X125197Y267346D01*
X118921Y203622D02*
X119002D01*
X113724Y198819D02*
X121260D01*
X108921Y203622D02*
X113724Y198819D01*
X113409Y179134D02*
X121653D01*
X108921Y183622D02*
X113409Y179134D01*
X113488Y209055D02*
X122189D01*
X108921Y213622D02*
X113488Y209055D01*
X145463Y119573D02*
X297459D01*
X143972Y115973D02*
X298950D01*
X144717Y117773D02*
X298204D01*
X143000Y219772D02*
X146653Y223425D01*
X151575Y220472D02*
Y227362D01*
X108921Y173622D02*
X114039Y168504D01*
X123650D01*
X108921Y163622D02*
X113882Y158661D01*
X122638D01*
X318894Y109249D02*
Y109290D01*
X318898Y109293D01*
X240177Y286437D02*
X253977Y300237D01*
X236094Y286437D02*
X240177D01*
X241432Y290237D02*
X253232Y302037D01*
X232166Y290237D02*
X241432D01*
X229331Y268701D02*
X231594Y266437D01*
X236094D01*
X231421Y292037D02*
X239872D01*
X227531Y288147D02*
X231421Y292037D01*
X229331Y268701D02*
Y287402D01*
X232166Y290237D01*
X227531Y259674D02*
Y288147D01*
Y259674D02*
X230768Y256437D01*
X236094D01*
X239872Y292037D02*
X251969Y304134D01*
X285433D01*
X292323Y311024D01*
X312992Y103347D02*
X318894Y109249D01*
X298950Y115973D02*
X306271Y123294D01*
X299695Y114173D02*
X308071Y122549D01*
X298204Y117773D02*
X304471Y124040D01*
X312206Y105147D02*
X317098Y110038D01*
X311460Y106947D02*
X315298Y110784D01*
X310715Y108747D02*
X313498Y111530D01*
X309969Y110547D02*
X311698Y112275D01*
X300414Y112346D02*
X309898Y121830D01*
X297459Y119573D02*
X302671Y124785D01*
Y134337D01*
X300571Y136437D02*
X302671Y134337D01*
X295957Y136437D02*
X300571D01*
X295957Y166437D02*
X300098D01*
X304471Y162065D01*
Y124040D02*
Y162065D01*
X295957Y176437D02*
X299941D01*
X306271Y170107D01*
Y123294D02*
Y170107D01*
X295957Y186437D02*
X300768D01*
X308071Y179134D01*
Y122549D02*
Y179134D01*
X278484Y261811D02*
X300197D01*
X309898Y252110D01*
Y121830D02*
Y252110D01*
X300197Y271654D02*
X311698Y260153D01*
Y112275D02*
Y260153D01*
X295957Y286437D02*
X300177D01*
X313498Y273116D01*
Y111530D02*
Y273116D01*
X253977Y300237D02*
X300157D01*
X315298Y285096D01*
Y110784D02*
Y285096D01*
X253232Y302037D02*
X300902D01*
X317098Y285842D01*
Y110038D02*
Y285842D01*
X292323Y311024D02*
X300197D01*
X318898Y292323D01*
Y109293D02*
Y292323D01*
X143000Y162118D02*
X146653Y157480D01*
X138779Y103347D02*
X312992D01*
X139525Y105147D02*
X312206D01*
X140271Y106947D02*
X311460D01*
X141016Y108747D02*
X310715D01*
X141762Y110547D02*
X309969D01*
X142507Y112346D02*
X300414D01*
X143226Y114173D02*
X299695D01*
X146653Y149606D02*
X151575Y154528D01*
Y160433D01*
X144800Y213698D02*
X151575Y220472D01*
X147638Y231299D02*
X151575Y227362D01*
X169291Y207677D02*
X188976D01*
X165354Y289370D02*
Y337646D01*
X159000Y344000D02*
X165354Y337646D01*
D34*
X118819Y193622D02*
X118921D01*
D35*
X333070Y307480D02*
D03*
Y150492D02*
D03*
X88917Y307480D02*
D03*
Y150492D02*
D03*
D36*
X307189Y114220D02*
D03*
X114614D02*
D03*
Y342850D02*
D03*
X307189D02*
D03*
X172244Y173228D02*
D03*
Y200000D02*
D03*
D37*
X236094Y126437D02*
D03*
Y136437D02*
D03*
Y146437D02*
D03*
Y156437D02*
D03*
Y166437D02*
D03*
Y176437D02*
D03*
Y186437D02*
D03*
Y196437D02*
D03*
Y206437D02*
D03*
Y216437D02*
D03*
Y226437D02*
D03*
Y236437D02*
D03*
Y246437D02*
D03*
Y256437D02*
D03*
Y266437D02*
D03*
Y276437D02*
D03*
Y286437D02*
D03*
Y296437D02*
D03*
Y306437D02*
D03*
Y316437D02*
D03*
X295957Y126437D02*
D03*
Y136437D02*
D03*
Y146437D02*
D03*
Y156437D02*
D03*
Y166437D02*
D03*
Y176437D02*
D03*
Y186437D02*
D03*
Y196437D02*
D03*
Y206437D02*
D03*
Y216437D02*
D03*
Y226437D02*
D03*
Y236437D02*
D03*
Y246437D02*
D03*
Y256437D02*
D03*
Y266437D02*
D03*
Y276437D02*
D03*
Y286437D02*
D03*
Y296437D02*
D03*
Y306437D02*
D03*
Y316437D02*
D03*
X108921Y323622D02*
D03*
Y313622D02*
D03*
Y303622D02*
D03*
Y293622D02*
D03*
Y283622D02*
D03*
Y273622D02*
D03*
Y263622D02*
D03*
Y253622D02*
D03*
Y243622D02*
D03*
Y233622D02*
D03*
Y223622D02*
D03*
Y213622D02*
D03*
Y203622D02*
D03*
Y193622D02*
D03*
Y183622D02*
D03*
Y173622D02*
D03*
Y163622D02*
D03*
Y153622D02*
D03*
Y143622D02*
D03*
Y133622D02*
D03*
X118921D02*
D03*
Y143622D02*
D03*
Y153622D02*
D03*
Y163622D02*
D03*
Y173622D02*
D03*
Y183622D02*
D03*
Y193622D02*
D03*
Y203622D02*
D03*
Y213622D02*
D03*
Y223622D02*
D03*
Y233622D02*
D03*
Y243622D02*
D03*
Y253622D02*
D03*
Y263622D02*
D03*
Y273622D02*
D03*
Y283622D02*
D03*
Y293622D02*
D03*
Y303622D02*
D03*
Y313622D02*
D03*
Y323622D02*
D03*
X272638Y257657D02*
D03*
X282638D02*
D03*
X272638Y267657D02*
D03*
X282638D02*
D03*
X272638Y277657D02*
D03*
X282638D02*
D03*
D38*
X129000Y354000D02*
D03*
X139000D02*
D03*
X149000D02*
D03*
X159000D02*
D03*
X169000D02*
D03*
X179000D02*
D03*
X189000D02*
D03*
X199000D02*
D03*
X209000D02*
D03*
X219000D02*
D03*
Y344000D02*
D03*
X209000D02*
D03*
X199000D02*
D03*
X189000D02*
D03*
X179000D02*
D03*
X169000D02*
D03*
X159000D02*
D03*
X149000D02*
D03*
X139000D02*
D03*
X129000D02*
D03*
M02*
