G04 Layer_Physical_Order=1*
G04 Layer_Color=25308*
%FSLAX25Y25*%
%MOIN*%
G70*
G01*
G75*
%ADD10R,0.11024X0.05315*%
%ADD11R,0.02362X0.03150*%
%ADD12R,0.03150X0.02362*%
%ADD13R,0.10630X0.04724*%
%ADD14R,0.02953X0.03347*%
%ADD15C,0.06000*%
%ADD16C,0.07874*%
%ADD17R,0.03347X0.02756*%
%ADD18R,0.02756X0.03347*%
%ADD19R,0.03543X0.03150*%
%ADD20R,0.03937X0.04331*%
%ADD21R,0.03347X0.03543*%
%ADD22R,0.04331X0.03937*%
%ADD23R,0.05118X0.02362*%
%ADD24R,0.03543X0.03150*%
%ADD25R,0.03150X0.03543*%
%ADD26R,0.05512X0.04724*%
%ADD27R,0.02362X0.05118*%
%ADD28R,0.05709X0.01181*%
%ADD29R,0.04331X0.02559*%
%ADD30C,0.01575*%
%ADD31C,0.01000*%
%ADD32C,0.01969*%
%ADD33C,0.01600*%
%ADD34C,0.01598*%
%ADD35C,0.10630*%
%ADD36C,0.04331*%
%ADD37O,0.07500X0.05000*%
%ADD38O,0.05000X0.07500*%
G36*
X239732Y371076D02*
X240907Y370589D01*
X241843Y369871D01*
X241894Y369794D01*
X241963Y369748D01*
X242632Y368876D01*
X243085Y367784D01*
X243228Y366694D01*
X243212Y366613D01*
Y366400D01*
Y357200D01*
X243363Y356439D01*
X243794Y355794D01*
X244439Y355363D01*
X245200Y355212D01*
X311870D01*
X311874D01*
X312365Y355212D01*
X312845Y355184D01*
X312853Y355184D01*
X313646Y355105D01*
X314878Y354732D01*
X316013Y354125D01*
X316956Y353351D01*
X316994Y353294D01*
X317065Y353247D01*
X317956Y352161D01*
X318658Y350847D01*
X319091Y349422D01*
X319228Y348024D01*
X319212Y347940D01*
Y109991D01*
Y109985D01*
X319212Y109494D01*
D01*
X319182Y109014D01*
X319182Y109007D01*
X319110Y108280D01*
X318756Y107112D01*
X318181Y106036D01*
X317446Y105140D01*
X317394Y105106D01*
X317344Y105031D01*
X316210Y104100D01*
X314837Y103366D01*
X313348Y102914D01*
X311888Y102770D01*
X311799Y102788D01*
X152475D01*
Y106927D01*
X148339D01*
X147854Y107411D01*
X148046Y107873D01*
X152475D01*
Y112635D01*
X152473D01*
Y116783D01*
Y119018D01*
X153785Y120330D01*
X154160Y120892D01*
X154292Y121555D01*
Y130188D01*
X190202Y166097D01*
X190578Y166659D01*
X190710Y167323D01*
Y203849D01*
X191095Y204009D01*
X191972Y204682D01*
X192645Y205559D01*
X193068Y206581D01*
X193213Y207677D01*
X193068Y208774D01*
X192645Y209795D01*
X191972Y210673D01*
X191095Y211346D01*
X190073Y211769D01*
X188976Y211913D01*
X187880Y211769D01*
X186858Y211346D01*
X185981Y210673D01*
X185308Y209795D01*
X184885Y208774D01*
X184740Y207677D01*
X184885Y206581D01*
X185308Y205559D01*
X185981Y204682D01*
X186858Y204009D01*
X187243Y203849D01*
Y168041D01*
X167607Y148405D01*
X167145Y148596D01*
Y149232D01*
X182480Y164567D01*
X182480Y164567D01*
X182963Y165289D01*
X183133Y166142D01*
X183133Y166142D01*
Y173210D01*
X184861D01*
Y180334D01*
X182087D01*
Y190624D01*
X174533D01*
X174213Y190945D01*
Y197269D01*
X174644Y197600D01*
X175184Y198303D01*
X175523Y199121D01*
X175638Y200000D01*
X175523Y200879D01*
X175184Y201697D01*
X174644Y202400D01*
X174213Y202731D01*
Y203740D01*
X171881D01*
X171711Y204240D01*
X172287Y204682D01*
X172960Y205559D01*
X173383Y206581D01*
X173528Y207677D01*
X173383Y208774D01*
X172960Y209795D01*
X172287Y210673D01*
X171409Y211346D01*
X170388Y211769D01*
X169291Y211913D01*
X168195Y211769D01*
X167173Y211346D01*
X166296Y210673D01*
X165623Y209795D01*
X165463Y209411D01*
X160827D01*
X160163Y209278D01*
X159601Y208903D01*
X155048Y204350D01*
X151753D01*
Y203416D01*
X149606D01*
X148826Y203261D01*
X148165Y202819D01*
X147134Y201789D01*
X146672Y201980D01*
Y204743D01*
X145739D01*
Y207094D01*
X186160Y247515D01*
X188728D01*
Y248054D01*
X193237D01*
X194017Y248209D01*
X194678Y248651D01*
X201076Y255049D01*
X201518Y255710D01*
X201673Y256490D01*
Y277160D01*
X201518Y277940D01*
X201076Y278601D01*
X198222Y281455D01*
X197735Y281780D01*
Y283858D01*
X184312D01*
Y282052D01*
X182528D01*
Y283478D01*
X169498D01*
Y278017D01*
X167546Y276066D01*
X167075Y275997D01*
X167075Y275997D01*
X167075Y275997D01*
X161976D01*
X161785Y276459D01*
X166580Y281255D01*
X166956Y281817D01*
X167088Y282480D01*
X167088Y282480D01*
Y285542D01*
X167473Y285701D01*
X168350Y286375D01*
X169023Y287252D01*
X169446Y288274D01*
X169591Y289370D01*
X169446Y290466D01*
X169023Y291488D01*
X168350Y292366D01*
X167473Y293039D01*
X166451Y293462D01*
X165354Y293606D01*
X164258Y293462D01*
X163236Y293039D01*
X162359Y292366D01*
X161686Y291488D01*
X161262Y290466D01*
X161118Y289370D01*
X161262Y288274D01*
X161686Y287252D01*
X162359Y286375D01*
X163236Y285701D01*
X163621Y285542D01*
Y283198D01*
X160253Y279831D01*
X159791Y280022D01*
Y284068D01*
X158947D01*
Y285925D01*
X159358Y286241D01*
X160031Y287119D01*
X160454Y288140D01*
X160599Y289237D01*
X160454Y290333D01*
X160031Y291355D01*
X159358Y292232D01*
X158481Y292905D01*
X157459Y293328D01*
X156363Y293473D01*
X155266Y293328D01*
X154244Y292905D01*
X153367Y292232D01*
X152694Y291355D01*
X152271Y290333D01*
X152126Y289237D01*
X152271Y288140D01*
X152694Y287119D01*
X153367Y286241D01*
X154244Y285568D01*
X155266Y285145D01*
X155480Y285117D01*
Y284068D01*
X154045D01*
Y283868D01*
X152400D01*
Y281097D01*
Y278325D01*
X153779D01*
Y272495D01*
X153910Y271832D01*
X154286Y271269D01*
X158402Y267154D01*
X158964Y266778D01*
X158966Y266777D01*
Y266511D01*
X159166D01*
Y266511D01*
X163020D01*
Y265733D01*
X159166D01*
Y264742D01*
X159166Y264742D01*
X158890Y264356D01*
X158500Y264279D01*
X157839Y263837D01*
X152918Y258916D01*
X152476Y258255D01*
X152321Y257474D01*
Y257297D01*
X151387D01*
Y251747D01*
X157331D01*
Y257297D01*
X157331Y257297D01*
X157331D01*
X157501Y257734D01*
X158799Y259032D01*
X159261Y258841D01*
Y255487D01*
X164961D01*
X165168Y254987D01*
X163738Y253556D01*
X159261D01*
Y248007D01*
X165205D01*
Y250121D01*
X167225Y252141D01*
X174024D01*
X174065Y251658D01*
Y248361D01*
X176090D01*
Y246077D01*
X155739Y225726D01*
X155277Y225917D01*
Y233845D01*
X155145Y234508D01*
X154769Y235070D01*
X146250Y243589D01*
Y257972D01*
X151648Y263370D01*
X152023Y263932D01*
X152155Y264595D01*
Y269285D01*
X152155Y269285D01*
X152023Y269949D01*
X151648Y270511D01*
X150663Y271495D01*
X150101Y271871D01*
X149752Y271940D01*
Y272060D01*
Y274029D01*
X149552D01*
Y274029D01*
X145698D01*
Y274207D01*
X145098D01*
Y275797D01*
X142914D01*
X142881Y276297D01*
X143813Y276420D01*
X144835Y276843D01*
X145712Y277516D01*
X146385Y278394D01*
X146808Y279415D01*
X146953Y280512D01*
X146808Y281608D01*
X146385Y282630D01*
X145712Y283507D01*
X144835Y284180D01*
X143813Y284604D01*
X142717Y284748D01*
X141620Y284604D01*
X140598Y284180D01*
X139721Y283507D01*
X139048Y282630D01*
X138625Y281608D01*
X138480Y280512D01*
X138625Y279415D01*
X139015Y278474D01*
Y272638D01*
X139147Y271974D01*
X139522Y271412D01*
X139922Y271013D01*
X140484Y270637D01*
X141147Y270505D01*
X141148Y270505D01*
X141184Y270005D01*
X140670Y269903D01*
X140107Y269527D01*
X139522Y268942D01*
X139147Y268380D01*
X139015Y267717D01*
Y237205D01*
X139147Y236541D01*
X139522Y235979D01*
X142721Y232781D01*
X142562Y232396D01*
X142417Y231299D01*
X142562Y230203D01*
X142985Y229181D01*
X143658Y228304D01*
X144535Y227630D01*
X144580Y227612D01*
Y227112D01*
X144535Y227094D01*
X143658Y226421D01*
X142985Y225543D01*
X142562Y224522D01*
X142417Y223425D01*
X142562Y222329D01*
X142985Y221307D01*
X143658Y220430D01*
X144535Y219757D01*
X145557Y219333D01*
X146031Y219271D01*
X146211Y218743D01*
X123477Y196009D01*
X122978Y196042D01*
X122810Y196261D01*
X122037Y196854D01*
X121137Y197227D01*
X120171Y197354D01*
X117671D01*
X116705Y197227D01*
X115805Y196854D01*
X115032Y196261D01*
X114439Y195488D01*
X114192Y194891D01*
X113651D01*
X113403Y195488D01*
X112810Y196261D01*
X112037Y196854D01*
X111137Y197227D01*
X110171Y197354D01*
X107671D01*
X106705Y197227D01*
X105805Y196854D01*
X105032Y196261D01*
X104439Y195488D01*
X104066Y194588D01*
X103939Y193622D01*
X104066Y192656D01*
X104439Y191756D01*
X105032Y190983D01*
X105805Y190390D01*
X106705Y190017D01*
X107671Y189890D01*
X110171D01*
X111137Y190017D01*
X112037Y190390D01*
X112810Y190983D01*
X113403Y191756D01*
X113651Y192353D01*
X114192D01*
X114439Y191756D01*
X115032Y190983D01*
X115805Y190390D01*
X116705Y190017D01*
X117671Y189890D01*
X120171D01*
X121137Y190017D01*
X122037Y190390D01*
X122810Y190983D01*
X123403Y191756D01*
X123458Y191889D01*
X123541D01*
X124204Y192021D01*
X124766Y192396D01*
X139406Y207036D01*
X139868Y206845D01*
Y206296D01*
X120838Y187266D01*
X120171Y187354D01*
X117671D01*
X116705Y187227D01*
X115805Y186854D01*
X115032Y186261D01*
X114439Y185488D01*
X114192Y184891D01*
X113651D01*
X113403Y185488D01*
X112810Y186261D01*
X112037Y186854D01*
X111137Y187227D01*
X110171Y187354D01*
X107671D01*
X106705Y187227D01*
X105805Y186854D01*
X105032Y186261D01*
X104439Y185488D01*
X104066Y184588D01*
X103939Y183622D01*
X104066Y182656D01*
X104439Y181756D01*
X105032Y180983D01*
X105805Y180390D01*
X106705Y180017D01*
X107671Y179890D01*
X110171D01*
X111137Y180017D01*
X112037Y180390D01*
X112810Y180983D01*
X113403Y181756D01*
X113651Y182353D01*
X114192D01*
X114439Y181756D01*
X115032Y180983D01*
X115805Y180390D01*
X116705Y180017D01*
X117671Y179890D01*
X120171D01*
X121137Y180017D01*
X122037Y180390D01*
X122810Y180983D01*
X123403Y181756D01*
X123776Y182656D01*
X123903Y183622D01*
X123776Y184588D01*
X123567Y185092D01*
X140267Y201792D01*
X140729Y201601D01*
Y199194D01*
X143886D01*
X144077Y198732D01*
X142259Y196914D01*
X141818Y196253D01*
X141705Y195688D01*
X140729D01*
Y190139D01*
X146672D01*
Y195561D01*
X147512Y196402D01*
X148012Y196194D01*
Y190532D01*
X148365D01*
Y189487D01*
X147520D01*
Y183741D01*
X147520Y183741D01*
X147520D01*
X147520Y183741D01*
X147315Y183326D01*
X147225D01*
Y176267D01*
X147225Y175808D01*
X146742Y175767D01*
X146742D01*
X143446D01*
Y172078D01*
X136723Y165355D01*
X123458D01*
X123403Y165488D01*
X122810Y166261D01*
X122037Y166854D01*
X121137Y167227D01*
X120171Y167354D01*
X117671D01*
X116705Y167227D01*
X115805Y166854D01*
X115032Y166261D01*
X114439Y165488D01*
X114192Y164891D01*
X113651D01*
X113403Y165488D01*
X112810Y166261D01*
X112037Y166854D01*
X111137Y167227D01*
X110171Y167354D01*
X107671D01*
X106705Y167227D01*
X105805Y166854D01*
X105032Y166261D01*
X104439Y165488D01*
X104066Y164588D01*
X103939Y163622D01*
X104066Y162656D01*
X104439Y161756D01*
X105032Y160983D01*
X105805Y160390D01*
X106705Y160017D01*
X107671Y159890D01*
X110171D01*
X111137Y160017D01*
X112037Y160390D01*
X112810Y160983D01*
X113403Y161756D01*
X113651Y162353D01*
X114192D01*
X114439Y161756D01*
X115032Y160983D01*
X115805Y160390D01*
X116705Y160017D01*
X117671Y159890D01*
X120171D01*
X121137Y160017D01*
X122037Y160390D01*
X122810Y160983D01*
X123403Y161756D01*
X123458Y161889D01*
X137441D01*
X138104Y162021D01*
X138666Y162396D01*
X144519Y168249D01*
X148208D01*
Y175308D01*
X148208Y175767D01*
X148691Y175808D01*
X150522D01*
X151005Y175767D01*
Y168249D01*
X154261D01*
X155441Y167069D01*
Y161182D01*
X155362Y161149D01*
X154485Y160476D01*
X153812Y159598D01*
X153388Y158577D01*
X153244Y157480D01*
X153388Y156384D01*
X153812Y155362D01*
X154485Y154485D01*
X155060Y154043D01*
Y152775D01*
X153721D01*
Y146438D01*
X157399D01*
X157590Y145976D01*
X152621Y141007D01*
X123393D01*
X123172Y141455D01*
X123403Y141756D01*
X123776Y142656D01*
X123903Y143622D01*
X123776Y144588D01*
X123403Y145488D01*
X123332Y145581D01*
X125624Y147873D01*
X142825D01*
X142985Y147488D01*
X143658Y146611D01*
X144535Y145938D01*
X145557Y145514D01*
X146653Y145370D01*
X147750Y145514D01*
X148772Y145938D01*
X149649Y146611D01*
X150322Y147488D01*
X150745Y148510D01*
X150890Y149606D01*
X150745Y150703D01*
X150322Y151724D01*
X149649Y152602D01*
X148772Y153275D01*
X148727Y153293D01*
Y153793D01*
X148772Y153812D01*
X149649Y154485D01*
X150322Y155362D01*
X150745Y156384D01*
X150890Y157480D01*
X150745Y158577D01*
X150322Y159598D01*
X149649Y160476D01*
X148772Y161149D01*
X147750Y161572D01*
X146653Y161717D01*
X145557Y161572D01*
X144535Y161149D01*
X143658Y160476D01*
X142985Y159598D01*
X142562Y158577D01*
X142417Y157480D01*
X142562Y156384D01*
X142721Y155999D01*
X142077Y155355D01*
X123458D01*
X123403Y155488D01*
X122810Y156261D01*
X122037Y156854D01*
X121137Y157227D01*
X120171Y157354D01*
X117671D01*
X116705Y157227D01*
X115805Y156854D01*
X115032Y156261D01*
X114439Y155488D01*
X114192Y154891D01*
X113651D01*
X113403Y155488D01*
X112810Y156261D01*
X112037Y156854D01*
X111137Y157227D01*
X110171Y157354D01*
X107671D01*
X106705Y157227D01*
X105805Y156854D01*
X105032Y156261D01*
X104439Y155488D01*
X104066Y154588D01*
X103939Y153622D01*
X104066Y152656D01*
X104439Y151756D01*
X105032Y150983D01*
X105805Y150390D01*
X106705Y150017D01*
X107671Y149890D01*
X110171D01*
X111137Y150017D01*
X112037Y150390D01*
X112810Y150983D01*
X113403Y151756D01*
X113651Y152353D01*
X114192D01*
X114439Y151756D01*
X115032Y150983D01*
X115805Y150390D01*
X116705Y150017D01*
X117671Y149890D01*
X120171D01*
X121137Y150017D01*
X122037Y150390D01*
X122810Y150983D01*
X123403Y151756D01*
X123458Y151889D01*
X142011D01*
X142317Y151389D01*
X142292Y151340D01*
X124906D01*
X124242Y151208D01*
X123680Y150832D01*
X120198Y147350D01*
X120171Y147354D01*
X117671D01*
X116705Y147227D01*
X115805Y146854D01*
X115032Y146261D01*
X114439Y145488D01*
X114192Y144891D01*
X113651D01*
X113403Y145488D01*
X112810Y146261D01*
X112037Y146854D01*
X111137Y147227D01*
X110171Y147354D01*
X107671D01*
X106705Y147227D01*
X105805Y146854D01*
X105032Y146261D01*
X104439Y145488D01*
X104066Y144588D01*
X103939Y143622D01*
X104066Y142656D01*
X104439Y141756D01*
X105032Y140983D01*
X105805Y140390D01*
X106705Y140017D01*
X107671Y139890D01*
X109504D01*
X110522Y138872D01*
Y138372D01*
X109504Y137354D01*
X107671D01*
X106705Y137227D01*
X105805Y136854D01*
X105032Y136261D01*
X104439Y135488D01*
X104066Y134588D01*
X103939Y133622D01*
X104066Y132656D01*
X104439Y131756D01*
X105032Y130983D01*
X105805Y130390D01*
X106705Y130017D01*
X107671Y129890D01*
X110171D01*
X111137Y130017D01*
X112037Y130390D01*
X112810Y130983D01*
X113403Y131756D01*
X113776Y132656D01*
X114175Y132699D01*
X114281Y132661D01*
X114614Y131857D01*
X115175Y131126D01*
X115906Y130565D01*
X116758Y130212D01*
X117671Y130092D01*
X118321D01*
Y133622D01*
X118921D01*
Y134222D01*
X123622D01*
X123581Y134536D01*
X123228Y135387D01*
X122718Y136053D01*
X122839Y136553D01*
X153543D01*
X153543Y136553D01*
X154396Y136722D01*
X155118Y137205D01*
X164351Y146438D01*
X164987D01*
X165178Y145976D01*
X151333Y132131D01*
X150958Y131569D01*
X150826Y130905D01*
Y122273D01*
X150491Y121939D01*
X147026D01*
Y123969D01*
X147787Y124284D01*
X148665Y124957D01*
X149338Y125835D01*
X149761Y126856D01*
X149906Y127953D01*
X149761Y129049D01*
X149338Y130071D01*
X148665Y130948D01*
X147787Y131622D01*
X146766Y132045D01*
X145669Y132189D01*
X144573Y132045D01*
X143551Y131622D01*
X142674Y130948D01*
X142001Y130071D01*
X141577Y129049D01*
X141433Y127953D01*
X141577Y126856D01*
X142001Y125835D01*
X142674Y124957D01*
X142974Y124727D01*
Y107400D01*
X143128Y106624D01*
X143567Y105967D01*
X146246Y103288D01*
X146039Y102788D01*
X110503D01*
X110503D01*
X110512D01*
X110503Y102788D01*
X110064Y102788D01*
X110018D01*
X110018D01*
D01*
X109534Y102813D01*
X109529Y102813D01*
X108603Y102904D01*
X107243Y103317D01*
X105989Y103988D01*
X104950Y104840D01*
X104906Y104906D01*
X104840Y104950D01*
X103988Y105989D01*
X103317Y107243D01*
X102904Y108603D01*
X102813Y109529D01*
X102788Y110018D01*
X102788D01*
Y110018D01*
Y363840D01*
X102772Y363924D01*
X102909Y365322D01*
X103342Y366747D01*
X104044Y368060D01*
X104935Y369147D01*
X105006Y369194D01*
X105047Y369255D01*
X106038Y370069D01*
X107232Y370707D01*
X108529Y371100D01*
X109388Y371185D01*
X109877Y371212D01*
D01*
X110367Y371212D01*
X146483D01*
X146675Y370750D01*
X132787Y356862D01*
X132297Y356960D01*
X132232Y357116D01*
X131639Y357889D01*
X130866Y358482D01*
X129966Y358855D01*
X129000Y358982D01*
X128034Y358855D01*
X127134Y358482D01*
X126361Y357889D01*
X125768Y357116D01*
X125395Y356216D01*
X125268Y355250D01*
Y352750D01*
X125395Y351784D01*
X125768Y350884D01*
X126361Y350111D01*
X127134Y349518D01*
X127731Y349271D01*
Y348729D01*
X127134Y348482D01*
X126361Y347889D01*
X125768Y347116D01*
X125395Y346216D01*
X125268Y345250D01*
Y342750D01*
X125395Y341784D01*
X125768Y340884D01*
X126361Y340111D01*
X127134Y339518D01*
X127289Y339454D01*
X127399Y338904D01*
X127774Y338341D01*
X128680Y337436D01*
Y325708D01*
X127835D01*
Y319961D01*
X132802D01*
X132993Y319499D01*
X131820Y318326D01*
X129902D01*
Y317163D01*
X129849Y317153D01*
X129286Y316777D01*
X129286Y316777D01*
X123774Y311265D01*
X123399Y310703D01*
X123267Y310039D01*
Y306416D01*
X123109Y306363D01*
X122767Y306294D01*
X122037Y306854D01*
X121137Y307227D01*
X120171Y307354D01*
X117671D01*
X116705Y307227D01*
X115805Y306854D01*
X115032Y306261D01*
X114439Y305488D01*
X114192Y304891D01*
X113651D01*
X113403Y305488D01*
X112810Y306261D01*
X112037Y306854D01*
X111137Y307227D01*
X110171Y307354D01*
X107671D01*
X106705Y307227D01*
X105805Y306854D01*
X105032Y306261D01*
X104439Y305488D01*
X104066Y304588D01*
X103939Y303622D01*
X104066Y302656D01*
X104439Y301756D01*
X105032Y300983D01*
X105805Y300390D01*
X106705Y300017D01*
X107671Y299890D01*
X110171D01*
X111137Y300017D01*
X112037Y300390D01*
X112810Y300983D01*
X113403Y301756D01*
X113651Y302353D01*
X114192D01*
X114439Y301756D01*
X115032Y300983D01*
X115805Y300390D01*
X116705Y300017D01*
X117671Y299890D01*
X120171D01*
X121137Y300017D01*
X122037Y300390D01*
X122669Y300875D01*
X123165Y300716D01*
X123209Y300361D01*
X120198Y297350D01*
X120171Y297354D01*
X117671D01*
X116705Y297227D01*
X115805Y296854D01*
X115032Y296261D01*
X114439Y295488D01*
X114192Y294891D01*
X113651D01*
X113403Y295488D01*
X112810Y296261D01*
X112037Y296854D01*
X111137Y297227D01*
X110171Y297354D01*
X107671D01*
X106705Y297227D01*
X105805Y296854D01*
X105032Y296261D01*
X104439Y295488D01*
X104066Y294588D01*
X103939Y293622D01*
X104066Y292656D01*
X104439Y291756D01*
X105032Y290983D01*
X105805Y290390D01*
X106705Y290017D01*
X107671Y289890D01*
X110171D01*
X111137Y290017D01*
X112037Y290390D01*
X112810Y290983D01*
X113403Y291756D01*
X113651Y292353D01*
X114192D01*
X114439Y291756D01*
X115032Y290983D01*
X115805Y290390D01*
X116705Y290017D01*
X117671Y289890D01*
X120171D01*
X121137Y290017D01*
X122037Y290390D01*
X122810Y290983D01*
X123403Y291756D01*
X123776Y292656D01*
X123903Y293622D01*
X123776Y294588D01*
X123403Y295488D01*
X123332Y295581D01*
X124605Y296854D01*
X125067Y296663D01*
Y292219D01*
X120198Y287350D01*
X120171Y287354D01*
X117671D01*
X116705Y287227D01*
X115805Y286854D01*
X115032Y286261D01*
X114439Y285488D01*
X114192Y284891D01*
X113651D01*
X113403Y285488D01*
X112810Y286261D01*
X112037Y286854D01*
X111137Y287227D01*
X110171Y287354D01*
X107671D01*
X106705Y287227D01*
X105805Y286854D01*
X105032Y286261D01*
X104439Y285488D01*
X104066Y284588D01*
X103939Y283622D01*
X104066Y282656D01*
X104439Y281756D01*
X105032Y280983D01*
X105805Y280390D01*
X106705Y280017D01*
X107671Y279890D01*
X110171D01*
X111137Y280017D01*
X112037Y280390D01*
X112810Y280983D01*
X113403Y281756D01*
X113651Y282353D01*
X114192D01*
X114439Y281756D01*
X115032Y280983D01*
X115805Y280390D01*
X116705Y280017D01*
X117671Y279890D01*
X120171D01*
X121137Y280017D01*
X122037Y280390D01*
X122810Y280983D01*
X123403Y281756D01*
X123776Y282656D01*
X123903Y283622D01*
X123776Y284588D01*
X123403Y285488D01*
X123332Y285581D01*
X126405Y288654D01*
X126867Y288463D01*
Y284019D01*
X120198Y277350D01*
X120171Y277354D01*
X117671D01*
X116705Y277227D01*
X115805Y276854D01*
X115032Y276261D01*
X114439Y275488D01*
X114192Y274891D01*
X113651D01*
X113403Y275488D01*
X112810Y276261D01*
X112037Y276854D01*
X111137Y277227D01*
X110171Y277354D01*
X107671D01*
X106705Y277227D01*
X105805Y276854D01*
X105032Y276261D01*
X104439Y275488D01*
X104066Y274588D01*
X103939Y273622D01*
X104066Y272656D01*
X104439Y271756D01*
X105032Y270983D01*
X105805Y270390D01*
X106705Y270017D01*
X107671Y269890D01*
X110171D01*
X111137Y270017D01*
X112037Y270390D01*
X112810Y270983D01*
X113403Y271756D01*
X113651Y272353D01*
X114192D01*
X114439Y271756D01*
X115032Y270983D01*
X115805Y270390D01*
X116705Y270017D01*
X117671Y269890D01*
X120171D01*
X121137Y270017D01*
X122037Y270390D01*
X122810Y270983D01*
X123403Y271756D01*
X123776Y272656D01*
X123903Y273622D01*
X123776Y274588D01*
X123403Y275488D01*
X123332Y275581D01*
X129826Y282075D01*
X130201Y282638D01*
X130333Y283301D01*
Y303921D01*
X132274D01*
Y306496D01*
X132874D01*
Y307096D01*
X135646D01*
Y308475D01*
X140929D01*
Y307096D01*
X146472D01*
Y308475D01*
X149184D01*
X149847Y308607D01*
X150410Y308982D01*
X154204Y312776D01*
X157499D01*
Y318326D01*
X157499Y318326D01*
X157499D01*
X157768Y318703D01*
X158214Y319148D01*
X158590Y319711D01*
X158640Y319961D01*
X159566D01*
Y325708D01*
X153800D01*
Y337106D01*
X153668Y337770D01*
X153293Y338332D01*
X151631Y339993D01*
X151639Y340111D01*
X152232Y340884D01*
X152605Y341784D01*
X152732Y342750D01*
Y345250D01*
X152605Y346216D01*
X152232Y347116D01*
X151639Y347889D01*
X150866Y348482D01*
X150269Y348729D01*
Y349271D01*
X150866Y349518D01*
X151639Y350111D01*
X152232Y350884D01*
X152605Y351784D01*
X152732Y352750D01*
Y355250D01*
X152728Y355277D01*
X163268Y365817D01*
X163893D01*
X164085Y365355D01*
X157774Y359045D01*
X157500Y358633D01*
X157134Y358482D01*
X156361Y357889D01*
X155768Y357116D01*
X155395Y356216D01*
X155268Y355250D01*
Y352750D01*
X155395Y351784D01*
X155768Y350884D01*
X156361Y350111D01*
X157134Y349518D01*
X157731Y349271D01*
Y348729D01*
X157134Y348482D01*
X156361Y347889D01*
X155768Y347116D01*
X155395Y346216D01*
X155268Y345250D01*
Y342750D01*
X155395Y341784D01*
X155768Y340884D01*
X156361Y340111D01*
X157134Y339518D01*
X158034Y339145D01*
X159000Y339018D01*
X159966Y339145D01*
X160866Y339518D01*
X161639Y340111D01*
X162232Y340884D01*
X162605Y341784D01*
X162732Y342750D01*
Y345250D01*
X162605Y346216D01*
X162232Y347116D01*
X161639Y347889D01*
X160866Y348482D01*
X160269Y348729D01*
Y349271D01*
X160866Y349518D01*
X161639Y350111D01*
X162232Y350884D01*
X162605Y351784D01*
X162732Y352750D01*
Y355250D01*
X162605Y356216D01*
X162232Y357116D01*
X161639Y357889D01*
X161632Y357999D01*
X167649Y364017D01*
X171936D01*
X172127Y363555D01*
X167774Y359202D01*
X167399Y358640D01*
X167388Y358587D01*
X167134Y358482D01*
X166361Y357889D01*
X165768Y357116D01*
X165395Y356216D01*
X165268Y355250D01*
Y352750D01*
X165395Y351784D01*
X165768Y350884D01*
X166361Y350111D01*
X167134Y349518D01*
X167731Y349271D01*
Y348729D01*
X167134Y348482D01*
X166361Y347889D01*
X165768Y347116D01*
X165395Y346216D01*
X165268Y345250D01*
Y342750D01*
X165395Y341784D01*
X165768Y340884D01*
X166361Y340111D01*
X167134Y339518D01*
X167267Y339463D01*
Y337563D01*
X167399Y336900D01*
X167774Y336338D01*
X211876Y292236D01*
Y212359D01*
X207604Y208087D01*
X207229Y207525D01*
X207097Y206861D01*
Y171484D01*
X197113Y161500D01*
X193719D01*
Y156541D01*
X200450D01*
Y157287D01*
X203168D01*
Y156801D01*
X203051Y156722D01*
X200330Y154001D01*
X200209Y153820D01*
X197685D01*
Y151540D01*
Y149261D01*
X199732D01*
Y148622D01*
X199888Y147842D01*
X200330Y147180D01*
X200807Y146703D01*
X200616Y146241D01*
X199850D01*
Y143469D01*
Y140698D01*
X201495D01*
Y140498D01*
X204654D01*
Y136575D01*
X204575Y136543D01*
X203697Y135870D01*
X203024Y134992D01*
X202601Y133970D01*
X202457Y132874D01*
X202601Y131778D01*
X203024Y130756D01*
X203697Y129878D01*
X204575Y129205D01*
X205596Y128782D01*
X206693Y128638D01*
X207789Y128782D01*
X208811Y129205D01*
X209688Y129878D01*
X210362Y130756D01*
X210785Y131778D01*
X210929Y132874D01*
X210785Y133970D01*
X210362Y134992D01*
X209688Y135870D01*
X208811Y136543D01*
X208732Y136575D01*
Y141365D01*
X208577Y142145D01*
X208135Y142807D01*
X207242Y143700D01*
Y146441D01*
X206561D01*
X206548Y146510D01*
X206106Y147172D01*
X204679Y148599D01*
X204870Y149061D01*
X209899D01*
Y150201D01*
X210452D01*
Y148569D01*
X211948D01*
Y148050D01*
X210808D01*
Y142894D01*
Y137973D01*
X216554D01*
Y139308D01*
X216580Y139325D01*
X231437Y154183D01*
X231936Y154150D01*
X232206Y153798D01*
X232979Y153205D01*
X233879Y152832D01*
X234844Y152705D01*
X237345D01*
X238310Y152832D01*
X239211Y153205D01*
X239983Y153798D01*
X240576Y154571D01*
X240949Y155471D01*
X241076Y156437D01*
X240949Y157403D01*
X240576Y158303D01*
X239983Y159076D01*
X239211Y159669D01*
X238310Y160042D01*
X237345Y160169D01*
X234844D01*
X233879Y160042D01*
X232979Y159669D01*
X232206Y159076D01*
X231612Y158303D01*
X231558Y158170D01*
X231240D01*
X230577Y158038D01*
X230014Y157663D01*
X217016Y144664D01*
X216554Y144856D01*
Y148050D01*
X215414D01*
Y148569D01*
X216789D01*
Y155262D01*
Y161992D01*
X210452D01*
Y158630D01*
X210399Y158595D01*
X209899Y158862D01*
Y161500D01*
X203168D01*
Y160754D01*
X201923D01*
X201731Y161216D01*
X210055Y169540D01*
X210431Y170102D01*
X210563Y170766D01*
Y184954D01*
X211025Y185146D01*
X230959Y165211D01*
X231496Y164853D01*
X231612Y164571D01*
X232206Y163798D01*
X232979Y163205D01*
X233879Y162832D01*
X234844Y162705D01*
X237345D01*
X238310Y162832D01*
X239211Y163205D01*
X239983Y163798D01*
X240576Y164571D01*
X240949Y165471D01*
X241076Y166437D01*
X240949Y167403D01*
X240576Y168303D01*
X239983Y169076D01*
X239211Y169669D01*
X238310Y170042D01*
X237345Y170169D01*
X234844D01*
X233879Y170042D01*
X232979Y169669D01*
X232206Y169076D01*
X232010Y169063D01*
X226645Y174428D01*
X226935Y174836D01*
X227598Y174704D01*
X231558D01*
X231612Y174571D01*
X232206Y173798D01*
X232979Y173205D01*
X233879Y172832D01*
X234844Y172705D01*
X237345D01*
X238310Y172832D01*
X239211Y173205D01*
X239983Y173798D01*
X240576Y174571D01*
X240949Y175471D01*
X241076Y176437D01*
X240949Y177403D01*
X240576Y178303D01*
X239983Y179076D01*
X239211Y179669D01*
X238310Y180042D01*
X237345Y180169D01*
X234844D01*
X233879Y180042D01*
X232979Y179669D01*
X232206Y179076D01*
X231612Y178303D01*
X231558Y178170D01*
X228316D01*
X219409Y187078D01*
Y190078D01*
X219209D01*
Y191821D01*
X216535D01*
Y192421D01*
X215935D01*
Y194799D01*
X214163D01*
Y195949D01*
X215935D01*
Y198327D01*
X216535D01*
Y198927D01*
X219209D01*
Y200165D01*
X219709Y200372D01*
X231684Y188396D01*
X231612Y188303D01*
X231240Y187403D01*
X231113Y186437D01*
X231240Y185471D01*
X231612Y184571D01*
X232206Y183798D01*
X232979Y183205D01*
X233879Y182832D01*
X234844Y182705D01*
X237345D01*
X238310Y182832D01*
X239211Y183205D01*
X239983Y183798D01*
X240576Y184571D01*
X240949Y185471D01*
X241076Y186437D01*
X240949Y187403D01*
X240576Y188303D01*
X239983Y189076D01*
X239211Y189669D01*
X238310Y190042D01*
X237345Y190169D01*
X234844D01*
X234817Y190165D01*
X220743Y204240D01*
Y208684D01*
X221205Y208876D01*
X231684Y198396D01*
X231612Y198303D01*
X231240Y197403D01*
X231113Y196437D01*
X231240Y195471D01*
X231612Y194571D01*
X232206Y193798D01*
X232979Y193205D01*
X233879Y192832D01*
X234844Y192705D01*
X237345D01*
X238310Y192832D01*
X239211Y193205D01*
X239983Y193798D01*
X240576Y194571D01*
X240949Y195471D01*
X241076Y196437D01*
X240949Y197403D01*
X240576Y198303D01*
X239983Y199076D01*
X239211Y199669D01*
X238310Y200042D01*
X237345Y200169D01*
X234844D01*
X234817Y200165D01*
X222543Y212440D01*
Y216282D01*
X223005Y216473D01*
X231484Y207994D01*
X231240Y207403D01*
X231113Y206437D01*
X231240Y205471D01*
X231612Y204571D01*
X232206Y203798D01*
X232979Y203205D01*
X233879Y202832D01*
X234844Y202705D01*
X237345D01*
X238310Y202832D01*
X239211Y203205D01*
X239983Y203798D01*
X240576Y204571D01*
X240949Y205471D01*
X241076Y206437D01*
X240949Y207403D01*
X240576Y208303D01*
X239983Y209076D01*
X239211Y209669D01*
X238310Y210042D01*
X237345Y210169D01*
X234844D01*
X234285Y210095D01*
X224343Y220038D01*
Y225084D01*
X224805Y225276D01*
X231684Y218396D01*
X231612Y218303D01*
X231240Y217403D01*
X231113Y216437D01*
X231240Y215471D01*
X231612Y214571D01*
X232206Y213798D01*
X232979Y213205D01*
X233879Y212832D01*
X234844Y212705D01*
X237345D01*
X238310Y212832D01*
X239211Y213205D01*
X239983Y213798D01*
X240576Y214571D01*
X240949Y215471D01*
X241076Y216437D01*
X240949Y217403D01*
X240576Y218303D01*
X239983Y219076D01*
X239211Y219669D01*
X238310Y220042D01*
X237345Y220169D01*
X234844D01*
X234817Y220165D01*
X226143Y228840D01*
Y233284D01*
X226605Y233476D01*
X231684Y228396D01*
X231612Y228303D01*
X231240Y227403D01*
X231113Y226437D01*
X231240Y225471D01*
X231612Y224571D01*
X232206Y223798D01*
X232979Y223205D01*
X233879Y222832D01*
X234844Y222705D01*
X237345D01*
X238310Y222832D01*
X239211Y223205D01*
X239983Y223798D01*
X240576Y224571D01*
X240949Y225471D01*
X241076Y226437D01*
X240949Y227403D01*
X240576Y228303D01*
X239983Y229076D01*
X239211Y229669D01*
X238310Y230042D01*
X237345Y230169D01*
X234844D01*
X234817Y230165D01*
X228280Y236703D01*
Y281147D01*
X228742Y281339D01*
X231684Y278396D01*
X231612Y278303D01*
X231240Y277403D01*
X231113Y276437D01*
X231240Y275471D01*
X231612Y274571D01*
X232206Y273798D01*
X232979Y273205D01*
X233879Y272832D01*
X234844Y272705D01*
X237345D01*
X238310Y272832D01*
X239211Y273205D01*
X239983Y273798D01*
X240576Y274571D01*
X240949Y275471D01*
X241076Y276437D01*
X240949Y277403D01*
X240576Y278303D01*
X239983Y279076D01*
X239211Y279669D01*
X238310Y280042D01*
X237345Y280169D01*
X234844D01*
X234817Y280165D01*
X230080Y284903D01*
Y319347D01*
X230542Y319538D01*
X231684Y318396D01*
X231612Y318303D01*
X231240Y317403D01*
X231113Y316437D01*
X231240Y315471D01*
X231612Y314571D01*
X232206Y313798D01*
X232979Y313205D01*
X233879Y312832D01*
X234844Y312705D01*
X237345D01*
X238310Y312832D01*
X238911Y313081D01*
X239411Y312753D01*
Y310121D01*
X238911Y309793D01*
X238310Y310042D01*
X237345Y310169D01*
X234844D01*
X233879Y310042D01*
X232979Y309669D01*
X232206Y309076D01*
X231612Y308303D01*
X231240Y307403D01*
X231113Y306437D01*
X231240Y305471D01*
X231612Y304571D01*
X232206Y303798D01*
X232979Y303205D01*
X233879Y302832D01*
X234844Y302705D01*
X237345D01*
X238310Y302832D01*
X239211Y303205D01*
X239983Y303798D01*
X240576Y304571D01*
X240877Y305296D01*
X241377Y305197D01*
Y300915D01*
X239731Y299269D01*
X239211Y299669D01*
X238310Y300042D01*
X237345Y300169D01*
X234844D01*
X233879Y300042D01*
X232979Y299669D01*
X232206Y299076D01*
X231612Y298303D01*
X231240Y297403D01*
X231113Y296437D01*
X231240Y295471D01*
X231612Y294571D01*
X232206Y293798D01*
X232979Y293205D01*
X233879Y292832D01*
X234844Y292705D01*
X237345D01*
X238310Y292832D01*
X239211Y293205D01*
X239983Y293798D01*
X240576Y294571D01*
X240949Y295471D01*
X240967Y295602D01*
X244336Y298971D01*
X244712Y299534D01*
X244844Y300197D01*
Y319965D01*
X245305Y320157D01*
X283573Y281889D01*
X283366Y281389D01*
X281388D01*
X280422Y281262D01*
X279522Y280889D01*
X278749Y280296D01*
X278156Y279523D01*
X277908Y278926D01*
X277367D01*
X277120Y279523D01*
X276527Y280296D01*
X275754Y280889D01*
X274854Y281262D01*
X273888Y281389D01*
X271388D01*
X270422Y281262D01*
X269522Y280889D01*
X268749Y280296D01*
X268156Y279523D01*
X267783Y278623D01*
X267656Y277657D01*
X267783Y276692D01*
X268156Y275792D01*
X268749Y275019D01*
X269522Y274426D01*
X270422Y274053D01*
X271388Y273925D01*
X273888D01*
X274854Y274053D01*
X275754Y274426D01*
X276527Y275019D01*
X277120Y275792D01*
X277367Y276389D01*
X277908D01*
X278156Y275792D01*
X278749Y275019D01*
X279522Y274426D01*
X280422Y274053D01*
X281388Y273925D01*
X283888D01*
X284854Y274053D01*
X285754Y274426D01*
X286527Y275019D01*
X287120Y275792D01*
X287493Y276692D01*
X287559Y277196D01*
X288087Y277375D01*
X290251Y275211D01*
X290813Y274836D01*
X291415Y274716D01*
X291475Y274571D01*
X292068Y273798D01*
X292841Y273205D01*
X293741Y272832D01*
X294707Y272705D01*
X297207D01*
X298173Y272832D01*
X299073Y273205D01*
X299846Y273798D01*
X299959Y273945D01*
X300432Y273785D01*
Y269133D01*
X299932Y268963D01*
X299846Y269076D01*
X299073Y269669D01*
X298173Y270042D01*
X297207Y270169D01*
X294707D01*
X293741Y270042D01*
X292841Y269669D01*
X292068Y269076D01*
X291475Y268303D01*
X291102Y267403D01*
X290975Y266437D01*
X291102Y265471D01*
X291475Y264571D01*
X292068Y263798D01*
X292841Y263205D01*
X293741Y262832D01*
X294707Y262705D01*
X297207D01*
X298173Y262832D01*
X299073Y263205D01*
X299846Y263798D01*
X300439Y264571D01*
X300494Y264704D01*
X300886D01*
X301549Y264836D01*
X301732Y264958D01*
X302232Y264691D01*
Y230864D01*
X300373Y229006D01*
X299874Y229038D01*
X299846Y229076D01*
X299073Y229669D01*
X298173Y230042D01*
X297207Y230169D01*
X294707D01*
X293741Y230042D01*
X292841Y229669D01*
X292068Y229076D01*
X291475Y228303D01*
X291102Y227403D01*
X290975Y226437D01*
X291102Y225471D01*
X291475Y224571D01*
X292068Y223798D01*
X292841Y223205D01*
X293741Y222832D01*
X294707Y222705D01*
X297207D01*
X298173Y222832D01*
X299073Y223205D01*
X299846Y223798D01*
X300439Y224571D01*
X300515Y224755D01*
X300919Y224836D01*
X301482Y225211D01*
X305191Y228921D01*
X305567Y229483D01*
X305699Y230147D01*
Y287570D01*
X305567Y288233D01*
X305191Y288796D01*
X301423Y292564D01*
X300860Y292940D01*
X300197Y293072D01*
X299392D01*
X299222Y293572D01*
X299703Y293941D01*
X300264Y294672D01*
X300617Y295523D01*
X300658Y295837D01*
X291255D01*
X291297Y295523D01*
X291649Y294672D01*
X292211Y293941D01*
X292691Y293572D01*
X292522Y293072D01*
X282384D01*
X240880Y334576D01*
Y360263D01*
X240748Y360926D01*
X240372Y361489D01*
X231111Y370750D01*
X231302Y371212D01*
X238472D01*
X238562Y371230D01*
X239732Y371076D01*
D02*
G37*
%LPC*%
G36*
X184661Y195857D02*
X181506D01*
Y193095D01*
X184661D01*
Y195857D01*
D02*
G37*
G36*
X180306D02*
X177150D01*
Y193095D01*
X180306D01*
Y195857D01*
D02*
G37*
G36*
Y199819D02*
X177150D01*
Y197057D01*
X180306D01*
Y199819D01*
D02*
G37*
G36*
X219209Y197727D02*
X217135D01*
Y195949D01*
X219209D01*
Y197727D01*
D02*
G37*
G36*
Y194799D02*
X217135D01*
Y193021D01*
X219209D01*
Y194799D01*
D02*
G37*
G36*
X120171Y177354D02*
X117671D01*
X116705Y177227D01*
X115805Y176854D01*
X115032Y176261D01*
X114439Y175488D01*
X114192Y174891D01*
X113651D01*
X113403Y175488D01*
X112810Y176261D01*
X112037Y176854D01*
X111137Y177227D01*
X110171Y177354D01*
X107671D01*
X106705Y177227D01*
X105805Y176854D01*
X105032Y176261D01*
X104439Y175488D01*
X104066Y174588D01*
X103939Y173622D01*
X104066Y172656D01*
X104439Y171756D01*
X105032Y170983D01*
X105805Y170390D01*
X106705Y170017D01*
X107671Y169890D01*
X110171D01*
X111137Y170017D01*
X112037Y170390D01*
X112810Y170983D01*
X113403Y171756D01*
X113651Y172353D01*
X114192D01*
X114439Y171756D01*
X115032Y170983D01*
X115805Y170390D01*
X116705Y170017D01*
X117671Y169890D01*
X120171D01*
X121137Y170017D01*
X122037Y170390D01*
X122810Y170983D01*
X123403Y171756D01*
X123776Y172656D01*
X123903Y173622D01*
X123776Y174588D01*
X123403Y175488D01*
X122810Y176261D01*
X122037Y176854D01*
X121137Y177227D01*
X120171Y177354D01*
D02*
G37*
G36*
X297207Y180169D02*
X294707D01*
X293741Y180042D01*
X292841Y179669D01*
X292068Y179076D01*
X291475Y178303D01*
X291102Y177403D01*
X290975Y176437D01*
X291102Y175471D01*
X291475Y174571D01*
X292068Y173798D01*
X292841Y173205D01*
X293741Y172832D01*
X294707Y172705D01*
X297207D01*
X298173Y172832D01*
X299073Y173205D01*
X299846Y173798D01*
X300439Y174571D01*
X300812Y175471D01*
X300939Y176437D01*
X300812Y177403D01*
X300439Y178303D01*
X299846Y179076D01*
X299073Y179669D01*
X298173Y180042D01*
X297207Y180169D01*
D02*
G37*
G36*
Y200169D02*
X294707D01*
X293741Y200042D01*
X292841Y199669D01*
X292068Y199076D01*
X291475Y198303D01*
X291102Y197403D01*
X290975Y196437D01*
X291102Y195471D01*
X291475Y194571D01*
X292068Y193798D01*
X292841Y193205D01*
X293741Y192832D01*
X294707Y192705D01*
X297207D01*
X298173Y192832D01*
X299073Y193205D01*
X299846Y193798D01*
X300439Y194571D01*
X300812Y195471D01*
X300939Y196437D01*
X300812Y197403D01*
X300439Y198303D01*
X299846Y199076D01*
X299073Y199669D01*
X298173Y200042D01*
X297207Y200169D01*
D02*
G37*
G36*
Y190169D02*
X294707D01*
X293741Y190042D01*
X292841Y189669D01*
X292068Y189076D01*
X291475Y188303D01*
X291102Y187403D01*
X290975Y186437D01*
X291102Y185471D01*
X291475Y184571D01*
X292068Y183798D01*
X292841Y183205D01*
X293741Y182832D01*
X294707Y182705D01*
X297207D01*
X298173Y182832D01*
X299073Y183205D01*
X299846Y183798D01*
X300439Y184571D01*
X300812Y185471D01*
X300939Y186437D01*
X300812Y187403D01*
X300439Y188303D01*
X299846Y189076D01*
X299073Y189669D01*
X298173Y190042D01*
X297207Y190169D01*
D02*
G37*
G36*
X120171Y217152D02*
X119521D01*
Y214222D01*
X123622D01*
X123581Y214536D01*
X123228Y215387D01*
X122667Y216118D01*
X121936Y216679D01*
X121085Y217032D01*
X120171Y217152D01*
D02*
G37*
G36*
X297207Y220169D02*
X294707D01*
X293741Y220042D01*
X292841Y219669D01*
X292068Y219076D01*
X291475Y218303D01*
X291102Y217403D01*
X290975Y216437D01*
X291102Y215471D01*
X291475Y214571D01*
X292068Y213798D01*
X292841Y213205D01*
X293741Y212832D01*
X294707Y212705D01*
X297207D01*
X298173Y212832D01*
X299073Y213205D01*
X299846Y213798D01*
X300439Y214571D01*
X300812Y215471D01*
X300939Y216437D01*
X300812Y217403D01*
X300439Y218303D01*
X299846Y219076D01*
X299073Y219669D01*
X298173Y220042D01*
X297207Y220169D01*
D02*
G37*
G36*
X137811Y223416D02*
X135442D01*
Y220850D01*
X137811D01*
Y223416D01*
D02*
G37*
G36*
X134242D02*
X131874D01*
Y220850D01*
X134242D01*
Y223416D01*
D02*
G37*
G36*
X123622Y213022D02*
X119521D01*
Y210092D01*
X120171D01*
X121085Y210212D01*
X121936Y210565D01*
X122667Y211126D01*
X123228Y211857D01*
X123581Y212708D01*
X123622Y213022D01*
D02*
G37*
G36*
X297207Y210169D02*
X294707D01*
X293741Y210042D01*
X292841Y209669D01*
X292068Y209076D01*
X291475Y208303D01*
X291102Y207403D01*
X290975Y206437D01*
X291102Y205471D01*
X291475Y204571D01*
X292068Y203798D01*
X292841Y203205D01*
X293741Y202832D01*
X294707Y202705D01*
X297207D01*
X298173Y202832D01*
X299073Y203205D01*
X299846Y203798D01*
X300439Y204571D01*
X300812Y205471D01*
X300939Y206437D01*
X300812Y207403D01*
X300439Y208303D01*
X299846Y209076D01*
X299073Y209669D01*
X298173Y210042D01*
X297207Y210169D01*
D02*
G37*
G36*
X184661Y199819D02*
X181506D01*
Y197057D01*
X184661D01*
Y199819D01*
D02*
G37*
G36*
X110171Y217354D02*
X107671D01*
X106705Y217227D01*
X105805Y216854D01*
X105032Y216261D01*
X104439Y215488D01*
X104066Y214588D01*
X103939Y213622D01*
X104066Y212656D01*
X104439Y211756D01*
X105032Y210983D01*
X105805Y210390D01*
X106705Y210017D01*
X107671Y209890D01*
X110171D01*
X111137Y210017D01*
X112037Y210390D01*
X112810Y210983D01*
X113403Y211756D01*
X113776Y212656D01*
X114175Y212699D01*
X114281Y212661D01*
X114614Y211857D01*
X115175Y211126D01*
X115906Y210565D01*
X116758Y210212D01*
X117671Y210092D01*
X118321D01*
Y213622D01*
Y217152D01*
X117671D01*
X116758Y217032D01*
X115906Y216679D01*
X115175Y216118D01*
X114614Y215387D01*
X114281Y214583D01*
X114175Y214545D01*
X113776Y214588D01*
X113403Y215488D01*
X112810Y216261D01*
X112037Y216854D01*
X111137Y217227D01*
X110171Y217354D01*
D02*
G37*
G36*
X120171Y207354D02*
X117671D01*
X116705Y207227D01*
X115805Y206854D01*
X115032Y206261D01*
X114439Y205488D01*
X114192Y204891D01*
X113651D01*
X113403Y205488D01*
X112810Y206261D01*
X112037Y206854D01*
X111137Y207227D01*
X110171Y207354D01*
X107671D01*
X106705Y207227D01*
X105805Y206854D01*
X105032Y206261D01*
X104439Y205488D01*
X104066Y204588D01*
X103939Y203622D01*
X104066Y202656D01*
X104439Y201756D01*
X105032Y200983D01*
X105805Y200390D01*
X106705Y200017D01*
X107671Y199890D01*
X110171D01*
X111137Y200017D01*
X112037Y200390D01*
X112810Y200983D01*
X113403Y201756D01*
X113651Y202353D01*
X114192D01*
X114439Y201756D01*
X115032Y200983D01*
X115805Y200390D01*
X116705Y200017D01*
X117671Y199890D01*
X120171D01*
X121137Y200017D01*
X122037Y200390D01*
X122810Y200983D01*
X123403Y201756D01*
X123776Y202656D01*
X123903Y203622D01*
X123776Y204588D01*
X123403Y205488D01*
X122810Y206261D01*
X122037Y206854D01*
X121137Y207227D01*
X120171Y207354D01*
D02*
G37*
G36*
X297207Y170169D02*
X294707D01*
X293741Y170042D01*
X292841Y169669D01*
X292068Y169076D01*
X291475Y168303D01*
X291102Y167403D01*
X290975Y166437D01*
X291102Y165471D01*
X291475Y164571D01*
X292068Y163798D01*
X292841Y163205D01*
X293741Y162832D01*
X294707Y162705D01*
X297207D01*
X298173Y162832D01*
X299073Y163205D01*
X299846Y163798D01*
X300439Y164571D01*
X300812Y165471D01*
X300939Y166437D01*
X300812Y167403D01*
X300439Y168303D01*
X299846Y169076D01*
X299073Y169669D01*
X298173Y170042D01*
X297207Y170169D01*
D02*
G37*
G36*
X123622Y133022D02*
X119521D01*
Y130092D01*
X120171D01*
X121085Y130212D01*
X121936Y130565D01*
X122667Y131126D01*
X123228Y131857D01*
X123581Y132708D01*
X123622Y133022D01*
D02*
G37*
G36*
X237345Y129967D02*
X236695D01*
Y127037D01*
X240796D01*
X240754Y127351D01*
X240402Y128202D01*
X239841Y128933D01*
X239110Y129494D01*
X238258Y129847D01*
X237345Y129967D01*
D02*
G37*
G36*
Y140169D02*
X234844D01*
X233879Y140042D01*
X232979Y139669D01*
X232206Y139076D01*
X231612Y138303D01*
X231240Y137403D01*
X231113Y136437D01*
X231240Y135471D01*
X231612Y134571D01*
X232206Y133798D01*
X232979Y133205D01*
X233879Y132832D01*
X234844Y132705D01*
X237345D01*
X238310Y132832D01*
X239211Y133205D01*
X239983Y133798D01*
X240576Y134571D01*
X240949Y135471D01*
X241076Y136437D01*
X240949Y137403D01*
X240576Y138303D01*
X239983Y139076D01*
X239211Y139669D01*
X238310Y140042D01*
X237345Y140169D01*
D02*
G37*
G36*
X275590Y142977D02*
X274250Y142800D01*
X273000Y142282D01*
X271927Y141459D01*
X271103Y140386D01*
X270586Y139136D01*
X270409Y137795D01*
X270586Y136454D01*
X271103Y135205D01*
X271927Y134132D01*
X273000Y133308D01*
X274250Y132791D01*
X275590Y132614D01*
X276932Y132791D01*
X278181Y133308D01*
X279254Y134132D01*
X280078Y135205D01*
X280595Y136454D01*
X280772Y137795D01*
X280595Y139136D01*
X280078Y140386D01*
X279254Y141459D01*
X278181Y142282D01*
X276932Y142800D01*
X275590Y142977D01*
D02*
G37*
G36*
X235494Y129967D02*
X234844D01*
X233931Y129847D01*
X233079Y129494D01*
X232348Y128933D01*
X231787Y128202D01*
X231435Y127351D01*
X231393Y127037D01*
X235494D01*
Y129967D01*
D02*
G37*
G36*
X297207Y130169D02*
X294707D01*
X293741Y130042D01*
X292841Y129669D01*
X292068Y129076D01*
X291475Y128303D01*
X291102Y127403D01*
X290975Y126437D01*
X291102Y125471D01*
X291475Y124571D01*
X292068Y123798D01*
X292841Y123205D01*
X293741Y122832D01*
X294707Y122705D01*
X297207D01*
X298173Y122832D01*
X299073Y123205D01*
X299846Y123798D01*
X300439Y124571D01*
X300812Y125471D01*
X300939Y126437D01*
X300812Y127403D01*
X300439Y128303D01*
X299846Y129076D01*
X299073Y129669D01*
X298173Y130042D01*
X297207Y130169D01*
D02*
G37*
G36*
X307189Y117615D02*
X306310Y117499D01*
X305492Y117160D01*
X304789Y116621D01*
X304249Y115918D01*
X303910Y115099D01*
X303795Y114220D01*
X303910Y113342D01*
X304249Y112523D01*
X304789Y111820D01*
X305492Y111281D01*
X306310Y110942D01*
X307189Y110826D01*
X308067Y110942D01*
X308886Y111281D01*
X309589Y111820D01*
X310129Y112523D01*
X310468Y113342D01*
X310583Y114220D01*
X310468Y115099D01*
X310129Y115918D01*
X309589Y116621D01*
X308886Y117160D01*
X308067Y117499D01*
X307189Y117615D01*
D02*
G37*
G36*
X240796Y125837D02*
X236695D01*
Y122907D01*
X237345D01*
X238258Y123027D01*
X239110Y123380D01*
X239841Y123941D01*
X240402Y124672D01*
X240754Y125523D01*
X240796Y125837D01*
D02*
G37*
G36*
X235494D02*
X231393D01*
X231435Y125523D01*
X231787Y124672D01*
X232348Y123941D01*
X233079Y123380D01*
X233931Y123027D01*
X234844Y122907D01*
X235494D01*
Y125837D01*
D02*
G37*
G36*
X196485Y153820D02*
X193920D01*
Y152140D01*
X196485D01*
Y153820D01*
D02*
G37*
G36*
Y150940D02*
X193920D01*
Y149261D01*
X196485D01*
Y150940D01*
D02*
G37*
G36*
X114614Y117615D02*
X113736Y117499D01*
X112917Y117160D01*
X112214Y116621D01*
X111674Y115918D01*
X111335Y115099D01*
X111220Y114220D01*
X111335Y113342D01*
X111674Y112523D01*
X112214Y111820D01*
X112917Y111281D01*
X113736Y110942D01*
X114614Y110826D01*
X115493Y110942D01*
X116311Y111281D01*
X117014Y111820D01*
X117554Y112523D01*
X117893Y113342D01*
X118009Y114220D01*
X117893Y115099D01*
X117554Y115918D01*
X117014Y116621D01*
X116311Y117160D01*
X115493Y117499D01*
X114614Y117615D01*
D02*
G37*
G36*
X297207Y160169D02*
X294707D01*
X293741Y160042D01*
X292841Y159669D01*
X292068Y159076D01*
X291475Y158303D01*
X291102Y157403D01*
X290975Y156437D01*
X291102Y155471D01*
X291475Y154571D01*
X292068Y153798D01*
X292841Y153205D01*
X293741Y152832D01*
X294707Y152705D01*
X297207D01*
X298173Y152832D01*
X299073Y153205D01*
X299846Y153798D01*
X300439Y154571D01*
X300812Y155471D01*
X300939Y156437D01*
X300812Y157403D01*
X300439Y158303D01*
X299846Y159076D01*
X299073Y159669D01*
X298173Y160042D01*
X297207Y160169D01*
D02*
G37*
G36*
X198650Y146241D02*
X196577D01*
Y144069D01*
X198650D01*
Y146241D01*
D02*
G37*
G36*
Y142869D02*
X196577D01*
Y140698D01*
X198650D01*
Y142869D01*
D02*
G37*
G36*
X297207Y140169D02*
X294707D01*
X293741Y140042D01*
X292841Y139669D01*
X292068Y139076D01*
X291475Y138303D01*
X291102Y137403D01*
X290975Y136437D01*
X291102Y135471D01*
X291475Y134571D01*
X292068Y133798D01*
X292841Y133205D01*
X293741Y132832D01*
X294707Y132705D01*
X297207D01*
X298173Y132832D01*
X299073Y133205D01*
X299846Y133798D01*
X300439Y134571D01*
X300812Y135471D01*
X300939Y136437D01*
X300812Y137403D01*
X300439Y138303D01*
X299846Y139076D01*
X299073Y139669D01*
X298173Y140042D01*
X297207Y140169D01*
D02*
G37*
G36*
Y150169D02*
X294707D01*
X293741Y150042D01*
X292841Y149669D01*
X292068Y149076D01*
X291475Y148303D01*
X291102Y147403D01*
X290975Y146437D01*
X291102Y145471D01*
X291475Y144571D01*
X292068Y143798D01*
X292841Y143205D01*
X293741Y142832D01*
X294707Y142705D01*
X297207D01*
X298173Y142832D01*
X299073Y143205D01*
X299846Y143798D01*
X300439Y144571D01*
X300812Y145471D01*
X300939Y146437D01*
X300812Y147403D01*
X300439Y148303D01*
X299846Y149076D01*
X299073Y149669D01*
X298173Y150042D01*
X297207Y150169D01*
D02*
G37*
G36*
X237345D02*
X234844D01*
X233879Y150042D01*
X232979Y149669D01*
X232206Y149076D01*
X231612Y148303D01*
X231240Y147403D01*
X231113Y146437D01*
X231240Y145471D01*
X231612Y144571D01*
X232206Y143798D01*
X232979Y143205D01*
X233879Y142832D01*
X234844Y142705D01*
X237345D01*
X238310Y142832D01*
X239211Y143205D01*
X239983Y143798D01*
X240576Y144571D01*
X240949Y145471D01*
X241076Y146437D01*
X240949Y147403D01*
X240576Y148303D01*
X239983Y149076D01*
X239211Y149669D01*
X238310Y150042D01*
X237345Y150169D01*
D02*
G37*
G36*
X143101Y305896D02*
X140929D01*
Y303921D01*
X143101D01*
Y305896D01*
D02*
G37*
G36*
X135646D02*
X133474D01*
Y303921D01*
X135646D01*
Y305896D01*
D02*
G37*
G36*
X153928D02*
X151756D01*
Y303921D01*
X153928D01*
Y305896D01*
D02*
G37*
G36*
X146472D02*
X144301D01*
Y303921D01*
X146472D01*
Y305896D01*
D02*
G37*
G36*
X297207Y320169D02*
X294707D01*
X293741Y320042D01*
X292841Y319669D01*
X292068Y319076D01*
X291475Y318303D01*
X291102Y317403D01*
X290975Y316437D01*
X291102Y315471D01*
X291475Y314571D01*
X292068Y313798D01*
X292841Y313205D01*
X293741Y312832D01*
X294223Y312769D01*
Y310105D01*
X293741Y310042D01*
X292841Y309669D01*
X292068Y309076D01*
X291475Y308303D01*
X291102Y307403D01*
X290975Y306437D01*
X291102Y305471D01*
X291475Y304571D01*
X292068Y303798D01*
X292841Y303205D01*
X293741Y302832D01*
X294707Y302705D01*
X297207D01*
X298173Y302832D01*
X299073Y303205D01*
X299846Y303798D01*
X300439Y304571D01*
X300812Y305471D01*
X300939Y306437D01*
X300812Y307403D01*
X300439Y308303D01*
X299846Y309076D01*
X299073Y309669D01*
X298173Y310042D01*
X297690Y310105D01*
Y312769D01*
X298173Y312832D01*
X299073Y313205D01*
X299846Y313798D01*
X300439Y314571D01*
X300812Y315471D01*
X300939Y316437D01*
X300812Y317403D01*
X300439Y318303D01*
X299846Y319076D01*
X299073Y319669D01*
X298173Y320042D01*
X297207Y320169D01*
D02*
G37*
G36*
X237345Y290169D02*
X234844D01*
X233879Y290042D01*
X232979Y289669D01*
X232206Y289076D01*
X231612Y288303D01*
X231240Y287403D01*
X231113Y286437D01*
X231240Y285471D01*
X231612Y284571D01*
X232206Y283798D01*
X232979Y283205D01*
X233879Y282832D01*
X234844Y282705D01*
X237345D01*
X238310Y282832D01*
X239211Y283205D01*
X239983Y283798D01*
X240576Y284571D01*
X240949Y285471D01*
X241076Y286437D01*
X240949Y287403D01*
X240576Y288303D01*
X239983Y289076D01*
X239211Y289669D01*
X238310Y290042D01*
X237345Y290169D01*
D02*
G37*
G36*
X151200Y283868D02*
X149127D01*
Y281697D01*
X151200D01*
Y283868D01*
D02*
G37*
G36*
X297207Y299967D02*
X296557D01*
Y297037D01*
X300658D01*
X300617Y297351D01*
X300264Y298202D01*
X299703Y298933D01*
X298972Y299494D01*
X298120Y299847D01*
X297207Y299967D01*
D02*
G37*
G36*
X295357D02*
X294707D01*
X293793Y299847D01*
X292942Y299494D01*
X292211Y298933D01*
X291649Y298202D01*
X291297Y297351D01*
X291255Y297037D01*
X295357D01*
Y299967D01*
D02*
G37*
G36*
X120171Y327354D02*
X117671D01*
X116705Y327227D01*
X115805Y326854D01*
X115032Y326261D01*
X114439Y325488D01*
X114192Y324891D01*
X113651D01*
X113403Y325488D01*
X112810Y326261D01*
X112037Y326854D01*
X111137Y327227D01*
X110171Y327354D01*
X107671D01*
X106705Y327227D01*
X105805Y326854D01*
X105032Y326261D01*
X104439Y325488D01*
X104066Y324588D01*
X103939Y323622D01*
X104066Y322656D01*
X104439Y321756D01*
X105032Y320983D01*
X105805Y320390D01*
X106705Y320017D01*
X107671Y319890D01*
X110171D01*
X111137Y320017D01*
X112037Y320390D01*
X112810Y320983D01*
X113403Y321756D01*
X113651Y322353D01*
X114192D01*
X114439Y321756D01*
X115032Y320983D01*
X115805Y320390D01*
X116705Y320017D01*
X117671Y319890D01*
X120171D01*
X121137Y320017D01*
X122037Y320390D01*
X122810Y320983D01*
X123403Y321756D01*
X123776Y322656D01*
X123903Y323622D01*
X123776Y324588D01*
X123403Y325488D01*
X122810Y326261D01*
X122037Y326854D01*
X121137Y327227D01*
X120171Y327354D01*
D02*
G37*
G36*
Y317354D02*
X117671D01*
X116705Y317227D01*
X115805Y316854D01*
X115032Y316261D01*
X114439Y315488D01*
X114192Y314891D01*
X113651D01*
X113403Y315488D01*
X112810Y316261D01*
X112037Y316854D01*
X111137Y317227D01*
X110171Y317354D01*
X107671D01*
X106705Y317227D01*
X105805Y316854D01*
X105032Y316261D01*
X104439Y315488D01*
X104066Y314588D01*
X103939Y313622D01*
X104066Y312656D01*
X104439Y311756D01*
X105032Y310983D01*
X105805Y310390D01*
X106705Y310017D01*
X107671Y309890D01*
X110171D01*
X111137Y310017D01*
X112037Y310390D01*
X112810Y310983D01*
X113403Y311756D01*
X113651Y312353D01*
X114192D01*
X114439Y311756D01*
X115032Y310983D01*
X115805Y310390D01*
X116705Y310017D01*
X117671Y309890D01*
X120171D01*
X121137Y310017D01*
X122037Y310390D01*
X122810Y310983D01*
X123403Y311756D01*
X123776Y312656D01*
X123903Y313622D01*
X123776Y314588D01*
X123403Y315488D01*
X122810Y316261D01*
X122037Y316854D01*
X121137Y317227D01*
X120171Y317354D01*
D02*
G37*
G36*
X307189Y346245D02*
X306310Y346129D01*
X305492Y345790D01*
X304789Y345251D01*
X304249Y344548D01*
X303910Y343729D01*
X303795Y342850D01*
X303910Y341972D01*
X304249Y341153D01*
X304789Y340450D01*
X305492Y339911D01*
X306310Y339572D01*
X307189Y339456D01*
X308067Y339572D01*
X308886Y339911D01*
X309589Y340450D01*
X310129Y341153D01*
X310468Y341972D01*
X310583Y342850D01*
X310468Y343729D01*
X310129Y344548D01*
X309589Y345251D01*
X308886Y345790D01*
X308067Y346129D01*
X307189Y346245D01*
D02*
G37*
G36*
X114614D02*
X113736Y346129D01*
X112917Y345790D01*
X112214Y345251D01*
X111674Y344548D01*
X111335Y343729D01*
X111220Y342850D01*
X111335Y341972D01*
X111674Y341153D01*
X112214Y340450D01*
X112917Y339911D01*
X113736Y339572D01*
X114614Y339456D01*
X115493Y339572D01*
X116311Y339911D01*
X117014Y340450D01*
X117554Y341153D01*
X117893Y341972D01*
X118009Y342850D01*
X117893Y343729D01*
X117554Y344548D01*
X117014Y345251D01*
X116311Y345790D01*
X115493Y346129D01*
X114614Y346245D01*
D02*
G37*
G36*
X275590Y320142D02*
X274250Y319965D01*
X273000Y319448D01*
X271927Y318624D01*
X271103Y317551D01*
X270586Y316302D01*
X270409Y314961D01*
X270586Y313620D01*
X271103Y312370D01*
X271927Y311297D01*
X273000Y310473D01*
X274250Y309956D01*
X275590Y309779D01*
X276932Y309956D01*
X278181Y310473D01*
X279254Y311297D01*
X280078Y312370D01*
X280595Y313620D01*
X280772Y314961D01*
X280595Y316302D01*
X280078Y317551D01*
X279254Y318624D01*
X278181Y319448D01*
X276932Y319965D01*
X275590Y320142D01*
D02*
G37*
G36*
X153928Y309071D02*
X151756D01*
Y307096D01*
X153928D01*
Y309071D01*
D02*
G37*
G36*
X157299Y305896D02*
X155128D01*
Y303921D01*
X157299D01*
Y305896D01*
D02*
G37*
G36*
X177165Y320142D02*
X175824Y319965D01*
X174575Y319448D01*
X173502Y318624D01*
X172678Y317551D01*
X172161Y316302D01*
X171984Y314961D01*
X172161Y313620D01*
X172678Y312370D01*
X173502Y311297D01*
X174575Y310473D01*
X175824Y309956D01*
X177165Y309779D01*
X178506Y309956D01*
X179756Y310473D01*
X180829Y311297D01*
X181652Y312370D01*
X182170Y313620D01*
X182347Y314961D01*
X182170Y316302D01*
X181652Y317551D01*
X180829Y318624D01*
X179756Y319448D01*
X178506Y319965D01*
X177165Y320142D01*
D02*
G37*
G36*
X157299Y309071D02*
X155128D01*
Y307096D01*
X157299D01*
Y309071D01*
D02*
G37*
G36*
X151200Y280497D02*
X149127D01*
Y278325D01*
X151200D01*
Y280497D01*
D02*
G37*
G36*
X237345Y260169D02*
X234844D01*
X233879Y260042D01*
X232979Y259669D01*
X232206Y259076D01*
X231612Y258303D01*
X231240Y257403D01*
X231113Y256437D01*
X231240Y255471D01*
X231612Y254571D01*
X232206Y253798D01*
X232979Y253205D01*
X233879Y252832D01*
X234844Y252705D01*
X237345D01*
X238310Y252832D01*
X239211Y253205D01*
X239983Y253798D01*
X240576Y254571D01*
X240949Y255471D01*
X241076Y256437D01*
X240949Y257403D01*
X240576Y258303D01*
X239983Y259076D01*
X239211Y259669D01*
X238310Y260042D01*
X237345Y260169D01*
D02*
G37*
G36*
X120171Y247354D02*
X117671D01*
X116705Y247227D01*
X115805Y246854D01*
X115032Y246261D01*
X114439Y245488D01*
X114192Y244891D01*
X113651D01*
X113403Y245488D01*
X112810Y246261D01*
X112037Y246854D01*
X111137Y247227D01*
X110171Y247354D01*
X107671D01*
X106705Y247227D01*
X105805Y246854D01*
X105032Y246261D01*
X104439Y245488D01*
X104066Y244588D01*
X103939Y243622D01*
X104066Y242656D01*
X104439Y241756D01*
X105032Y240983D01*
X105805Y240390D01*
X106705Y240017D01*
X107671Y239890D01*
X110171D01*
X111137Y240017D01*
X112037Y240390D01*
X112810Y240983D01*
X113403Y241756D01*
X113651Y242353D01*
X114192D01*
X114439Y241756D01*
X115032Y240983D01*
X115805Y240390D01*
X116705Y240017D01*
X117671Y239890D01*
X120171D01*
X121137Y240017D01*
X122037Y240390D01*
X122810Y240983D01*
X123403Y241756D01*
X123776Y242656D01*
X123903Y243622D01*
X123776Y244588D01*
X123403Y245488D01*
X122810Y246261D01*
X122037Y246854D01*
X121137Y247227D01*
X120171Y247354D01*
D02*
G37*
G36*
X272038Y257057D02*
X267937D01*
X267978Y256744D01*
X268331Y255892D01*
X268892Y255161D01*
X269623Y254600D01*
X270474Y254247D01*
X271388Y254127D01*
X272038D01*
Y257057D01*
D02*
G37*
G36*
X297207Y260169D02*
X294707D01*
X293741Y260042D01*
X292841Y259669D01*
X292068Y259076D01*
X291475Y258303D01*
X291102Y257403D01*
X290975Y256437D01*
X291102Y255471D01*
X291475Y254571D01*
X292068Y253798D01*
X292841Y253205D01*
X293741Y252832D01*
X294707Y252705D01*
X297207D01*
X298173Y252832D01*
X299073Y253205D01*
X299846Y253798D01*
X300439Y254571D01*
X300812Y255471D01*
X300939Y256437D01*
X300812Y257403D01*
X300439Y258303D01*
X299846Y259076D01*
X299073Y259669D01*
X298173Y260042D01*
X297207Y260169D01*
D02*
G37*
G36*
Y250169D02*
X294707D01*
X293741Y250042D01*
X292841Y249669D01*
X292068Y249076D01*
X291475Y248303D01*
X291102Y247403D01*
X290975Y246437D01*
X291102Y245471D01*
X291475Y244571D01*
X292068Y243798D01*
X292841Y243205D01*
X293741Y242832D01*
X294707Y242705D01*
X297207D01*
X298173Y242832D01*
X299073Y243205D01*
X299846Y243798D01*
X300439Y244571D01*
X300812Y245471D01*
X300939Y246437D01*
X300812Y247403D01*
X300439Y248303D01*
X299846Y249076D01*
X299073Y249669D01*
X298173Y250042D01*
X297207Y250169D01*
D02*
G37*
G36*
Y240169D02*
X294707D01*
X293741Y240042D01*
X292841Y239669D01*
X292068Y239076D01*
X291475Y238303D01*
X291102Y237403D01*
X290975Y236437D01*
X291102Y235471D01*
X291475Y234571D01*
X292068Y233798D01*
X292841Y233205D01*
X293741Y232832D01*
X294707Y232705D01*
X297207D01*
X298173Y232832D01*
X299073Y233205D01*
X299846Y233798D01*
X300439Y234571D01*
X300812Y235471D01*
X300939Y236437D01*
X300812Y237403D01*
X300439Y238303D01*
X299846Y239076D01*
X299073Y239669D01*
X298173Y240042D01*
X297207Y240169D01*
D02*
G37*
G36*
X237345D02*
X234844D01*
X233879Y240042D01*
X232979Y239669D01*
X232206Y239076D01*
X231612Y238303D01*
X231240Y237403D01*
X231113Y236437D01*
X231240Y235471D01*
X231612Y234571D01*
X232206Y233798D01*
X232979Y233205D01*
X233879Y232832D01*
X234844Y232705D01*
X237345D01*
X238310Y232832D01*
X239211Y233205D01*
X239983Y233798D01*
X240576Y234571D01*
X240949Y235471D01*
X241076Y236437D01*
X240949Y237403D01*
X240576Y238303D01*
X239983Y239076D01*
X239211Y239669D01*
X238310Y240042D01*
X237345Y240169D01*
D02*
G37*
G36*
Y250169D02*
X234844D01*
X233879Y250042D01*
X232979Y249669D01*
X232206Y249076D01*
X231612Y248303D01*
X231240Y247403D01*
X231113Y246437D01*
X231240Y245471D01*
X231612Y244571D01*
X232206Y243798D01*
X232979Y243205D01*
X233879Y242832D01*
X234844Y242705D01*
X237345D01*
X238310Y242832D01*
X239211Y243205D01*
X239983Y243798D01*
X240576Y244571D01*
X240949Y245471D01*
X241076Y246437D01*
X240949Y247403D01*
X240576Y248303D01*
X239983Y249076D01*
X239211Y249669D01*
X238310Y250042D01*
X237345Y250169D01*
D02*
G37*
G36*
X120171Y237354D02*
X117671D01*
X116705Y237227D01*
X115805Y236854D01*
X115032Y236261D01*
X114439Y235488D01*
X114192Y234891D01*
X113651D01*
X113403Y235488D01*
X112810Y236261D01*
X112037Y236854D01*
X111137Y237227D01*
X110171Y237354D01*
X107671D01*
X106705Y237227D01*
X105805Y236854D01*
X105032Y236261D01*
X104439Y235488D01*
X104066Y234588D01*
X103939Y233622D01*
X104066Y232656D01*
X104439Y231756D01*
X105032Y230983D01*
X105805Y230390D01*
X106705Y230017D01*
X107671Y229890D01*
X110171D01*
X111137Y230017D01*
X112037Y230390D01*
X112810Y230983D01*
X113403Y231756D01*
X113651Y232353D01*
X114192D01*
X114439Y231756D01*
X115032Y230983D01*
X115176Y230873D01*
X115006Y230373D01*
X113646D01*
X113646Y230373D01*
X112870Y230219D01*
X112213Y229779D01*
X109787Y227354D01*
X107671D01*
X106705Y227227D01*
X105805Y226854D01*
X105032Y226261D01*
X104439Y225488D01*
X104066Y224588D01*
X103939Y223622D01*
X104066Y222656D01*
X104439Y221756D01*
X105032Y220983D01*
X105805Y220390D01*
X106705Y220017D01*
X107671Y219890D01*
X110171D01*
X111137Y220017D01*
X112037Y220390D01*
X112810Y220983D01*
X113403Y221756D01*
X113651Y222353D01*
X114192D01*
X114439Y221756D01*
X115032Y220983D01*
X115805Y220390D01*
X116705Y220017D01*
X117671Y219890D01*
X120171D01*
X121137Y220017D01*
X122037Y220390D01*
X122810Y220983D01*
X123403Y221756D01*
X123776Y222656D01*
X123903Y223622D01*
X123776Y224588D01*
X123403Y225488D01*
X123148Y225820D01*
X123395Y226320D01*
X124016D01*
X124791Y226474D01*
X125449Y226914D01*
X127217Y228682D01*
X131320D01*
X131674Y228329D01*
Y227598D01*
X131674Y227420D01*
Y227343D01*
X131874Y226926D01*
Y226843D01*
Y224616D01*
X137811D01*
Y226843D01*
Y226926D01*
X138011Y227343D01*
Y227420D01*
X138011Y227598D01*
Y234074D01*
X131674D01*
Y232735D01*
X126378D01*
X125603Y232581D01*
X124945Y232142D01*
X123308Y230504D01*
X123056Y230541D01*
X122949Y230733D01*
X122879Y231073D01*
X123403Y231756D01*
X123776Y232656D01*
X123903Y233622D01*
X123776Y234588D01*
X123403Y235488D01*
X122810Y236261D01*
X122037Y236854D01*
X121137Y237227D01*
X120171Y237354D01*
D02*
G37*
G36*
Y267354D02*
X117671D01*
X116705Y267227D01*
X115805Y266854D01*
X115032Y266261D01*
X114439Y265488D01*
X114192Y264891D01*
X113651D01*
X113403Y265488D01*
X112810Y266261D01*
X112037Y266854D01*
X111137Y267227D01*
X110171Y267354D01*
X107671D01*
X106705Y267227D01*
X105805Y266854D01*
X105032Y266261D01*
X104439Y265488D01*
X104066Y264588D01*
X103939Y263622D01*
X104066Y262656D01*
X104439Y261756D01*
X105032Y260983D01*
X105805Y260390D01*
X106705Y260017D01*
X107671Y259890D01*
X110171D01*
X111137Y260017D01*
X112037Y260390D01*
X112810Y260983D01*
X113403Y261756D01*
X113651Y262353D01*
X114192D01*
X114439Y261756D01*
X115032Y260983D01*
X115805Y260390D01*
X116705Y260017D01*
X117671Y259890D01*
X120171D01*
X121137Y260017D01*
X122037Y260390D01*
X122810Y260983D01*
X123403Y261756D01*
X123776Y262656D01*
X123903Y263622D01*
X123776Y264588D01*
X123403Y265488D01*
X122810Y266261D01*
X122037Y266854D01*
X121137Y267227D01*
X120171Y267354D01*
D02*
G37*
G36*
X237345Y270169D02*
X234844D01*
X233879Y270042D01*
X232979Y269669D01*
X232206Y269076D01*
X231612Y268303D01*
X231240Y267403D01*
X231113Y266437D01*
X231240Y265471D01*
X231612Y264571D01*
X232206Y263798D01*
X232979Y263205D01*
X233879Y262832D01*
X234844Y262705D01*
X237345D01*
X238310Y262832D01*
X239211Y263205D01*
X239983Y263798D01*
X240576Y264571D01*
X240949Y265471D01*
X241076Y266437D01*
X240949Y267403D01*
X240576Y268303D01*
X239983Y269076D01*
X239211Y269669D01*
X238310Y270042D01*
X237345Y270169D01*
D02*
G37*
G36*
X149552Y275797D02*
X146298D01*
Y274807D01*
X149552D01*
Y275797D01*
D02*
G37*
G36*
X283888Y271389D02*
X281388D01*
X280422Y271262D01*
X279522Y270889D01*
X278749Y270296D01*
X278156Y269523D01*
X277908Y268926D01*
X277367D01*
X277120Y269523D01*
X276527Y270296D01*
X275754Y270889D01*
X274854Y271262D01*
X273888Y271389D01*
X271388D01*
X270422Y271262D01*
X269522Y270889D01*
X268749Y270296D01*
X268156Y269523D01*
X267783Y268623D01*
X267656Y267657D01*
X267783Y266691D01*
X268156Y265792D01*
X268749Y265019D01*
X269522Y264425D01*
X270422Y264053D01*
X271388Y263926D01*
X273888D01*
X274854Y264053D01*
X275754Y264425D01*
X276527Y265019D01*
X277120Y265792D01*
X277367Y266389D01*
X277908D01*
X278156Y265792D01*
X278749Y265019D01*
X279522Y264425D01*
X280422Y264053D01*
X281388Y263926D01*
X283888D01*
X284854Y264053D01*
X285754Y264425D01*
X286527Y265019D01*
X287120Y265792D01*
X287493Y266691D01*
X287620Y267657D01*
X287493Y268623D01*
X287120Y269523D01*
X286527Y270296D01*
X285754Y270889D01*
X284854Y271262D01*
X283888Y271389D01*
D02*
G37*
G36*
Y261188D02*
X283238D01*
Y258257D01*
X287339D01*
X287298Y258571D01*
X286945Y259422D01*
X286384Y260154D01*
X285653Y260715D01*
X284802Y261067D01*
X283888Y261188D01*
D02*
G37*
G36*
X120171Y257354D02*
X117671D01*
X116705Y257227D01*
X115805Y256854D01*
X115032Y256261D01*
X114439Y255488D01*
X114192Y254891D01*
X113651D01*
X113403Y255488D01*
X112810Y256261D01*
X112037Y256854D01*
X111137Y257227D01*
X110171Y257354D01*
X107671D01*
X106705Y257227D01*
X105805Y256854D01*
X105032Y256261D01*
X104439Y255488D01*
X104066Y254588D01*
X103939Y253622D01*
X104066Y252656D01*
X104439Y251756D01*
X105032Y250983D01*
X105805Y250390D01*
X106705Y250017D01*
X107671Y249890D01*
X110171D01*
X111137Y250017D01*
X112037Y250390D01*
X112810Y250983D01*
X113403Y251756D01*
X113651Y252353D01*
X114192D01*
X114439Y251756D01*
X115032Y250983D01*
X115805Y250390D01*
X116705Y250017D01*
X117671Y249890D01*
X120171D01*
X121137Y250017D01*
X122037Y250390D01*
X122810Y250983D01*
X123403Y251756D01*
X123776Y252656D01*
X123903Y253622D01*
X123776Y254588D01*
X123403Y255488D01*
X122810Y256261D01*
X122037Y256854D01*
X121137Y257227D01*
X120171Y257354D01*
D02*
G37*
G36*
X287339Y257057D02*
X283238D01*
Y254127D01*
X283888D01*
X284802Y254247D01*
X285653Y254600D01*
X286384Y255161D01*
X286945Y255892D01*
X287298Y256744D01*
X287339Y257057D01*
D02*
G37*
G36*
X272038Y261188D02*
X271388D01*
X270474Y261067D01*
X269623Y260715D01*
X268892Y260154D01*
X268331Y259422D01*
X267978Y258571D01*
X267937Y258257D01*
X272038D01*
Y261188D01*
D02*
G37*
G36*
X282038D02*
X281388D01*
X280474Y261067D01*
X279623Y260715D01*
X278892Y260154D01*
X278331Y259422D01*
X277978Y258571D01*
X277891Y257911D01*
X277890Y257903D01*
X277846D01*
X277846D01*
X277840D01*
X277836D01*
X277831D01*
X277826D01*
X277825D01*
X277450D01*
X277450D01*
X277444D01*
X277440D01*
X277435D01*
X277430D01*
X277429D01*
X277386D01*
X277385Y257911D01*
X277298Y258571D01*
X276945Y259422D01*
X276384Y260154D01*
X275653Y260715D01*
X274801Y261067D01*
X273888Y261188D01*
X273238D01*
Y257657D01*
Y254127D01*
X273888D01*
X274801Y254247D01*
X275653Y254600D01*
X276384Y255161D01*
X276945Y255892D01*
X277298Y256744D01*
X277385Y257404D01*
X277386Y257412D01*
X277429D01*
X277430D01*
X277435D01*
X277440D01*
X277444D01*
X277450D01*
X277450D01*
X277825D01*
X277826D01*
X277831D01*
X277836D01*
X277840D01*
X277846D01*
X277846D01*
X277890D01*
X277891Y257404D01*
X277978Y256744D01*
X278331Y255892D01*
X278892Y255161D01*
X279623Y254600D01*
X280474Y254247D01*
X281388Y254127D01*
X282038D01*
Y257657D01*
Y261188D01*
D02*
G37*
%LPD*%
D10*
X191024Y280000D02*
D03*
Y268386D02*
D03*
D11*
X212992Y323819D02*
D03*
X218110D02*
D03*
D12*
X149700Y104546D02*
D03*
Y110254D02*
D03*
D13*
X176013Y279915D02*
D03*
Y268498D02*
D03*
D14*
X218110Y317913D02*
D03*
X212992D02*
D03*
D15*
X168307Y163386D02*
D03*
X216535Y311024D02*
D03*
X146653Y223425D02*
D03*
X188976Y207677D02*
D03*
X169291D02*
D03*
X191761Y260427D02*
D03*
X146653Y231299D02*
D03*
X145669Y127953D02*
D03*
X146653Y149606D02*
D03*
X157480Y157480D02*
D03*
X146653D02*
D03*
X142717Y280512D02*
D03*
X156363Y289237D02*
D03*
X165354Y289370D02*
D03*
X206693Y132874D02*
D03*
D16*
X275590Y137795D02*
D03*
Y314961D02*
D03*
X177165D02*
D03*
D17*
X185855Y250093D02*
D03*
Y255014D02*
D03*
X149600Y119361D02*
D03*
Y114439D02*
D03*
X213681Y140551D02*
D03*
Y145473D02*
D03*
X216535Y198327D02*
D03*
Y203248D02*
D03*
Y192421D02*
D03*
Y187500D02*
D03*
D18*
X156988Y322835D02*
D03*
X152067D02*
D03*
X146161D02*
D03*
X141240D02*
D03*
X135335D02*
D03*
X130413D02*
D03*
X155020Y186614D02*
D03*
X150098D02*
D03*
D19*
X154527Y315551D02*
D03*
Y306496D02*
D03*
X143701Y315551D02*
D03*
Y306496D02*
D03*
X132874Y315551D02*
D03*
Y306496D02*
D03*
X143701Y192913D02*
D03*
Y201969D02*
D03*
D20*
X134842Y230709D02*
D03*
Y224016D02*
D03*
X213620Y158627D02*
D03*
Y151934D02*
D03*
D21*
X204368Y143469D02*
D03*
X199250D02*
D03*
X156918Y281097D02*
D03*
X151800D02*
D03*
D22*
X157087Y149606D02*
D03*
X163779D02*
D03*
D23*
X177824Y250742D02*
D03*
Y258301D02*
D03*
X170265Y254522D02*
D03*
D24*
X162233Y250782D02*
D03*
Y258262D02*
D03*
X154359Y254522D02*
D03*
D25*
X150787Y193504D02*
D03*
X158268D02*
D03*
X154527Y201378D02*
D03*
D26*
X163583Y186614D02*
D03*
X180905Y176772D02*
D03*
X180905Y196457D02*
D03*
D27*
X145827Y172008D02*
D03*
X153386D02*
D03*
X149606Y179567D02*
D03*
D28*
X145698Y274207D02*
D03*
Y272238D02*
D03*
Y270270D02*
D03*
Y268301D02*
D03*
Y266333D02*
D03*
X163020Y274207D02*
D03*
Y272238D02*
D03*
Y270270D02*
D03*
Y268301D02*
D03*
Y266333D02*
D03*
D29*
X197085Y151540D02*
D03*
Y159020D02*
D03*
X206534D02*
D03*
Y155280D02*
D03*
Y151540D02*
D03*
D30*
X149600Y110354D02*
X149700Y110254D01*
X149600Y110354D02*
Y114439D01*
X145000Y107400D02*
X147854Y104546D01*
X145000Y107400D02*
Y127284D01*
X157087Y157087D02*
X157480Y157480D01*
X157087Y149606D02*
Y157087D01*
X108921Y223622D02*
X113646Y228346D01*
X124016D01*
X126378Y230709D01*
X134842D01*
X145000Y127284D02*
X145669Y127953D01*
D31*
X152559Y121555D02*
Y130905D01*
X149606Y118602D02*
X152559Y121555D01*
Y130905D02*
X188976Y167323D01*
X213583Y338583D02*
X219000Y344000D01*
X213583Y325295D02*
Y338583D01*
X218012Y317421D02*
Y323819D01*
X212992Y314567D02*
Y317913D01*
X218012Y317421D02*
X224410Y311024D01*
X197085Y159020D02*
X208830Y170766D01*
X232185Y166437D02*
X236094D01*
X210630Y187992D02*
X232185Y166437D01*
X210630Y187992D02*
Y206116D01*
X212430Y189145D02*
Y205370D01*
Y189145D02*
X214075Y187500D01*
X216535D01*
X219009Y203522D02*
X236094Y186437D01*
X216535Y203248D02*
X218735D01*
X217210Y210150D02*
Y294445D01*
X212430Y205370D02*
X217210Y210150D01*
X216535Y187500D02*
X227598Y176437D01*
X208830Y206861D02*
X213610Y211641D01*
X208830Y170766D02*
Y206861D01*
X210630Y206116D02*
X215409Y210895D01*
X213610Y211641D02*
Y292954D01*
X215409Y210895D02*
Y293700D01*
X219009Y203522D02*
Y295191D01*
X227598Y176437D02*
X236094D01*
X189000Y322655D02*
X217210Y294445D01*
X220810Y211722D02*
X236094Y196437D01*
X220810Y211722D02*
Y295936D01*
X222609Y219320D02*
Y296682D01*
Y219320D02*
X235492Y206437D01*
X224410Y228122D02*
X236094Y216437D01*
X224410Y228122D02*
Y311024D01*
X198762Y315438D02*
X219009Y295191D01*
X200562Y316184D02*
X220810Y295936D01*
X202362Y316929D02*
X222609Y296682D01*
X179000Y330109D02*
X215409Y293700D01*
X169000Y337563D02*
X213610Y292954D01*
X212992Y314567D02*
X216535Y311024D01*
X198762Y315438D02*
Y343762D01*
X199000Y344000D01*
X209000Y339922D02*
Y344000D01*
X200562Y331484D02*
X209000Y339922D01*
X200562Y316184D02*
Y331484D01*
X202362Y330738D02*
X212800Y341176D01*
X202362Y316929D02*
Y330738D01*
X209000Y354000D02*
X212800Y350200D01*
Y341176D02*
Y350200D01*
X169000Y337563D02*
Y344000D01*
X179000Y330109D02*
Y344000D01*
X189000Y322655D02*
Y344000D01*
X118921Y193622D02*
X123541D01*
X124906Y149606D02*
X146653D01*
X118921Y143622D02*
X124906Y149606D01*
X146653Y223425D02*
X151575Y228346D01*
X118921Y153622D02*
X142795D01*
X146653Y157480D01*
X118921Y163622D02*
X137441D01*
X118921Y273622D02*
X128600Y283301D01*
Y308141D01*
X118921Y283622D02*
X126800Y291501D01*
Y308887D01*
X118921Y293622D02*
X125000Y299701D01*
Y310039D01*
X206927Y151934D02*
X213620D01*
X197085Y159020D02*
X206534D01*
X150098Y186614D02*
Y192815D01*
X150787Y193504D01*
X149606Y179567D02*
Y186122D01*
X150098Y186614D01*
X172765Y268597D02*
X173355D01*
X171091Y270270D02*
X172765Y268597D01*
X163020Y270270D02*
X171091D01*
X169123Y272238D02*
X171091Y270270D01*
X163020Y272238D02*
X169123D01*
X173749Y279817D02*
X176013D01*
X162943Y268379D02*
X163020Y268301D01*
X159628Y268379D02*
X162943D01*
X162942Y266411D02*
X163020Y266333D01*
X159050Y266411D02*
X162942D01*
X151406Y274207D02*
X151505Y274305D01*
X145698Y274207D02*
X151406D01*
X151505Y274305D02*
Y281097D01*
X129921Y312008D02*
X140157D01*
X143701Y315551D01*
X149184Y310208D02*
X154527Y315551D01*
X137441Y163622D02*
X145827Y172008D01*
X170265Y254522D02*
X170757Y255014D01*
X141602Y205578D02*
Y209137D01*
X162233Y250782D02*
X163414D01*
X119646Y183622D02*
X141602Y205578D01*
X130512Y315551D02*
X132874D01*
X170757Y255014D02*
X185855D01*
X130667Y310208D02*
X149184D01*
X125000Y310039D02*
X130512Y315551D01*
X126800Y308887D02*
X129921Y312008D01*
X128600Y308141D02*
X130667Y310208D01*
X145698Y270270D02*
X149438D01*
X150422Y269285D01*
X154527Y315551D02*
Y317913D01*
X156988Y320374D01*
Y322835D01*
X143701Y315551D02*
Y316929D01*
X146161Y319390D01*
Y322835D01*
X132874Y315551D02*
Y316929D01*
X135335Y319390D01*
Y322835D01*
X140748Y237205D02*
X146653Y231299D01*
X140748Y237205D02*
Y267717D01*
X141333Y268301D01*
X145698D01*
X151575Y228346D02*
Y233268D01*
X142717Y242126D02*
X151575Y233268D01*
X142717Y242126D02*
Y263352D01*
X145698Y266333D01*
X123541Y193622D02*
X153543Y223625D01*
X144517Y242872D02*
X153543Y233845D01*
Y223625D02*
Y233845D01*
X144517Y242872D02*
Y258690D01*
X150422Y264595D01*
Y269285D01*
X163414Y250782D02*
X167154Y254522D01*
X170265D01*
X141602Y209137D02*
X177824Y245359D01*
Y250742D01*
X151330Y274131D02*
X159050Y266411D01*
X155512Y272495D02*
X159628Y268379D01*
X155512Y272495D02*
Y279395D01*
X157213Y281097D01*
X158314Y272238D02*
X163020D01*
X157697Y272855D02*
X158314Y272238D01*
X157697Y272855D02*
Y275808D01*
X158465Y276575D01*
X163020Y274207D02*
X168139D01*
X173749Y279817D01*
X159000Y354000D02*
Y357819D01*
X169000Y354000D02*
Y357976D01*
X236094Y306437D02*
X239508D01*
X228346Y284185D02*
X236094Y276437D01*
X226547Y235985D02*
X236094Y226437D01*
X159000Y357819D02*
X166931Y365750D01*
X169000Y357976D02*
X174974Y363950D01*
X179000Y354000D02*
X187150Y362150D01*
X223786Y360350D02*
X228346Y355789D01*
X219000Y354000D02*
X226547Y346453D01*
X235492Y206437D02*
X236094D01*
X224532Y362150D02*
X230147Y356535D01*
X149000Y354000D02*
X162550Y367550D01*
X139000Y354000D02*
X154350Y369350D01*
X129000Y354000D02*
X132376D01*
X149526Y371150D01*
X300256Y226437D02*
X303965Y230147D01*
X295957Y226437D02*
X300256D01*
X300197Y291339D02*
X303965Y287570D01*
Y230147D02*
Y287570D01*
X295957Y266437D02*
X300886D01*
X230147Y322385D02*
X236094Y316437D01*
X205350Y360350D02*
X223786D01*
X199000Y354000D02*
X205350Y360350D01*
X187150Y362150D02*
X224532D01*
X225277Y363950D02*
X231946Y357281D01*
X174974Y363950D02*
X225277D01*
X231946Y330061D02*
X241144Y320863D01*
X231946Y330061D02*
Y357281D01*
X239508Y306437D02*
X241144Y308074D01*
Y320863D01*
X226547Y235985D02*
Y346453D01*
X228346Y284185D02*
Y355789D01*
X230147Y322385D02*
Y356535D01*
X226023Y365750D02*
X233747Y358026D01*
Y331214D02*
Y358026D01*
X166931Y365750D02*
X226023D01*
X236094Y296437D02*
X239350D01*
X243110Y300197D01*
Y321850D01*
X233747Y331214D02*
X243110Y321850D01*
X226768Y367550D02*
X235546Y358772D01*
Y332367D02*
Y358772D01*
Y332367D02*
X291476Y276437D01*
X162550Y367550D02*
X226768D01*
X291476Y276437D02*
X295957D01*
X237347Y333113D02*
X288963Y281496D01*
X300197D01*
X227514Y369350D02*
X237347Y359517D01*
Y333113D02*
Y359517D01*
X154350Y369350D02*
X227514D01*
X149526Y371150D02*
X228259D01*
X239146Y360263D01*
Y333858D02*
Y360263D01*
Y333858D02*
X281666Y291339D01*
X300197D01*
X157213Y281097D02*
Y290087D01*
X154527Y201378D02*
X154527Y201378D01*
X145669Y157480D02*
X146653D01*
X295957Y306437D02*
Y316437D01*
X189000Y344000D02*
X189527Y343473D01*
X149000Y340173D02*
Y344000D01*
Y340173D02*
X152067Y337106D01*
Y322835D02*
Y337106D01*
X141240Y322835D02*
Y337327D01*
X139000Y339567D02*
X141240Y337327D01*
X139000Y339567D02*
Y344000D01*
X130413Y322835D02*
Y338154D01*
X129000Y339567D02*
X130413Y338154D01*
X129000Y339567D02*
Y344000D01*
X158465Y276575D02*
X159449D01*
X141147Y272238D02*
X145698D01*
X140748Y272638D02*
X141147Y272238D01*
X300886Y266437D02*
X302165Y267717D01*
Y279528D01*
X300197Y281496D02*
X302165Y279528D01*
X160827Y207677D02*
X169291D01*
X154527Y201378D02*
X160827Y207677D01*
X188976Y167323D02*
Y207677D01*
X140748Y272638D02*
Y278543D01*
X142717Y280512D01*
X156363Y289237D02*
X157213Y290087D01*
X159449Y276575D02*
X165354Y282480D01*
Y286417D01*
X213681Y145473D02*
Y151873D01*
Y140551D02*
X215354D01*
X231240Y156437D01*
X236094D01*
D32*
X180905Y166142D02*
Y176772D01*
X153543Y138779D02*
X180905Y166142D01*
X113764Y138779D02*
X153543D01*
X113764Y138464D02*
Y138779D01*
X108921Y133622D02*
X113764Y138464D01*
X108921Y143622D02*
X113764Y138779D01*
X163583Y168110D02*
X168307Y163386D01*
X163583Y168110D02*
Y186614D01*
D33*
X216535Y192421D02*
Y198327D01*
X198955Y143469D02*
Y149670D01*
X197085Y151540D02*
X198955Y149670D01*
X204664Y143469D02*
Y145730D01*
X201772Y148622D02*
X204664Y145730D01*
X201772Y148622D02*
Y152559D01*
X206534Y155280D02*
X210398D01*
X213620Y158502D01*
Y158627D01*
X177824Y258301D02*
X179950Y260427D01*
X191761D01*
X201772Y152559D02*
X204493Y155280D01*
X206534D01*
X157480Y157480D02*
Y167913D01*
X153386Y172008D02*
X157480Y167913D01*
X204626Y143432D02*
X204664Y143469D01*
X204626Y143432D02*
X206693Y141365D01*
Y132874D02*
Y141365D01*
D34*
X155020Y186614D02*
X163583D01*
Y191339D01*
X161417Y193504D02*
X163583Y191339D01*
X158268Y193504D02*
X161417D01*
X149606Y201378D02*
X154527D01*
X143701Y192913D02*
Y195472D01*
X185855Y250093D02*
X193237D01*
X190776Y280014D02*
X196780D01*
X176209D02*
X190776D01*
X176013Y279817D02*
X176209Y280014D01*
X196780D02*
X199635Y277160D01*
X193237Y250093D02*
X199635Y256490D01*
Y277160D01*
X184871Y263380D02*
X189891Y268400D01*
X190776D01*
X143701Y195472D02*
X149606Y201378D01*
X172076Y263380D02*
X184871D01*
X154359Y254522D02*
Y257474D01*
X162233Y258262D02*
X166957D01*
X172076Y263380D01*
X167154Y262396D02*
X173355Y268597D01*
X154359Y257474D02*
X159280Y262396D01*
X167154D01*
X143701Y201969D02*
Y207938D01*
X185855Y250093D01*
D35*
X333070Y307480D02*
D03*
Y150492D02*
D03*
X88917Y307480D02*
D03*
Y150492D02*
D03*
D36*
X307189Y114220D02*
D03*
X114614D02*
D03*
Y342850D02*
D03*
X307189D02*
D03*
X172244Y173228D02*
D03*
Y200000D02*
D03*
D37*
X236094Y126437D02*
D03*
Y136437D02*
D03*
Y146437D02*
D03*
Y156437D02*
D03*
Y166437D02*
D03*
Y176437D02*
D03*
Y186437D02*
D03*
Y196437D02*
D03*
Y206437D02*
D03*
Y216437D02*
D03*
Y226437D02*
D03*
Y236437D02*
D03*
Y246437D02*
D03*
Y256437D02*
D03*
Y266437D02*
D03*
Y276437D02*
D03*
Y286437D02*
D03*
Y296437D02*
D03*
Y306437D02*
D03*
Y316437D02*
D03*
X295957Y126437D02*
D03*
Y136437D02*
D03*
Y146437D02*
D03*
Y156437D02*
D03*
Y166437D02*
D03*
Y176437D02*
D03*
Y186437D02*
D03*
Y196437D02*
D03*
Y206437D02*
D03*
Y216437D02*
D03*
Y226437D02*
D03*
Y236437D02*
D03*
Y246437D02*
D03*
Y256437D02*
D03*
Y266437D02*
D03*
Y276437D02*
D03*
Y286437D02*
D03*
Y296437D02*
D03*
Y306437D02*
D03*
Y316437D02*
D03*
X108921Y323622D02*
D03*
Y313622D02*
D03*
Y303622D02*
D03*
Y293622D02*
D03*
Y283622D02*
D03*
Y273622D02*
D03*
Y263622D02*
D03*
Y253622D02*
D03*
Y243622D02*
D03*
Y233622D02*
D03*
Y223622D02*
D03*
Y213622D02*
D03*
Y203622D02*
D03*
Y193622D02*
D03*
Y183622D02*
D03*
Y173622D02*
D03*
Y163622D02*
D03*
Y153622D02*
D03*
Y143622D02*
D03*
Y133622D02*
D03*
X118921D02*
D03*
Y143622D02*
D03*
Y153622D02*
D03*
Y163622D02*
D03*
Y173622D02*
D03*
Y183622D02*
D03*
Y193622D02*
D03*
Y203622D02*
D03*
Y213622D02*
D03*
Y223622D02*
D03*
Y233622D02*
D03*
Y243622D02*
D03*
Y253622D02*
D03*
Y263622D02*
D03*
Y273622D02*
D03*
Y283622D02*
D03*
Y293622D02*
D03*
Y303622D02*
D03*
Y313622D02*
D03*
Y323622D02*
D03*
X272638Y257657D02*
D03*
X282638D02*
D03*
X272638Y267657D02*
D03*
X282638D02*
D03*
X272638Y277657D02*
D03*
X282638D02*
D03*
D38*
X129000Y354000D02*
D03*
X139000D02*
D03*
X149000D02*
D03*
X159000D02*
D03*
X169000D02*
D03*
X179000D02*
D03*
X189000D02*
D03*
X199000D02*
D03*
X209000D02*
D03*
X219000D02*
D03*
Y344000D02*
D03*
X209000D02*
D03*
X199000D02*
D03*
X189000D02*
D03*
X179000D02*
D03*
X169000D02*
D03*
X159000D02*
D03*
X149000D02*
D03*
X139000D02*
D03*
X129000D02*
D03*
M02*
